<?xml version="1.0" standalone="no"?>
<!DOCTYPE svg PUBLIC "-//W3C//DTD SVG 1.1//EN" "http://www.w3.org/Graphics/SVG/1.1/DTD/svg11.dtd" >
<svg xmlns="http://www.w3.org/2000/svg">
<metadata></metadata>
<defs>
<font id="proxima_novablack" horiz-adv-x="596" >
<font-face units-per-em="1000" ascent="790" descent="-210" />
<missing-glyph horiz-adv-x="255" />
<glyph unicode="ffj" horiz-adv-x="1022" d="M458 0v327h-80v156h80v22q0 37 13.5 69t38 54.5t58.5 35.5t74 13q35 0 63.5 -6.5t48.5 -17.5l-33 -122q-7 5 -17.5 9t-22.5 4q-18 0 -30.5 -11t-12.5 -28v-22h98v-156h-98v-327h-180zM882 518q-21 0 -39.5 8t-32 21.5t-21.5 32t-8 39.5t8 39.5t21.5 32t32 21.5t39.5 8 t39.5 -8t32 -21.5t21.5 -32t8 -39.5t-8 -39.5t-21.5 -32t-32 -21.5t-39.5 -8zM771 -196q-27 0 -46 2t-34 5.5t-27.5 10t-27.5 15.5l43 133q15 -11 27 -15t33 -4q25 0 39 17.5t14 52.5v462h180v-462q0 -47 -11.5 -86.5t-36.5 -68.5t-63 -45.5t-90 -16.5zM87 0v327h-80v156h80 v22q0 38 13.5 69.5t38 54.5t58.5 35.5t74 12.5q42 0 83.5 -12.5t67.5 -39.5l-65 -100q-16 19 -44 19q-17 0 -31.5 -10.5t-14.5 -28.5v-22h98v-156h-98v-327h-180z" />
<glyph unicode="fj" horiz-adv-x="651" d="M87 0v327h-80v156h80v22q0 37 13.5 69t38 54.5t58.5 35.5t74 13q35 0 63.5 -6.5t48.5 -17.5l-33 -122q-7 5 -17.5 9t-22.5 4q-18 0 -30.5 -11t-12.5 -28v-22h98v-156h-98v-327h-180zM511 518q-21 0 -39.5 8t-32 21.5t-21.5 32t-8 39.5t8 39.5t21.5 32t32 21.5t39.5 8 t39.5 -8t32 -21.5t21.5 -32t8 -39.5t-8 -39.5t-21.5 -32t-32 -21.5t-39.5 -8zM400 -196q-27 0 -46 2t-34 5.5t-27.5 10t-27.5 15.5l43 133q15 -11 27 -15t33 -4q25 0 39 17.5t14 52.5v462h180v-462q0 -47 -11.5 -86.5t-36.5 -68.5t-63 -45.5t-90 -16.5z" />
<glyph unicode="ff" horiz-adv-x="742" d="M87 0v327h-80v156h80v22q0 38 13.5 69.5t38 54.5t58.5 35.5t74 12.5q42 0 83.5 -12.5t67.5 -39.5l-65 -100q-16 19 -44 19q-17 0 -31.5 -10.5t-14.5 -28.5v-22h98v-156h-98v-327h-180zM458 0v327h-80v156h80v22q0 38 13.5 69.5t38 54.5t58.5 35.5t74 12.5 q42 0 83.5 -12.5t67.5 -39.5l-65 -100q-16 19 -44 19q-17 0 -31.5 -10.5t-14.5 -28.5v-22h98v-156h-98v-327h-180z" />
<glyph unicode="fi" horiz-adv-x="651" d="M87 0v327h-80v156h80v22q0 37 13.5 69t38 54.5t58.5 35.5t74 13q35 0 63.5 -6.5t48.5 -17.5l-33 -122q-7 5 -17.5 9t-22.5 4q-18 0 -30.5 -11t-12.5 -28v-22h98v-156h-98v-327h-180zM511 518q-21 0 -39.5 8t-32 21.5t-21.5 32t-8 39.5t8 39.5t21.5 32t32 21.5t39.5 8 t39.5 -8t32 -21.5t21.5 -32t8 -39.5t-8 -39.5t-21.5 -32t-32 -21.5t-39.5 -8zM421 0v483h180v-483h-180z" />
<glyph unicode="fl" horiz-adv-x="651" d="M87 0v327h-80v156h80v22q0 37 13.5 69t38 54.5t58.5 35.5t74 13q35 0 63.5 -6.5t48.5 -17.5l-33 -122q-7 5 -17.5 9t-22.5 4q-18 0 -30.5 -11t-12.5 -28v-22h98v-156h-98v-327h-180zM421 0v667h180v-667h-180z" />
<glyph unicode="ffi" horiz-adv-x="1022" d="M458 0v327h-80v156h80v22q0 37 13.5 69t38 54.5t58.5 35.5t74 13q35 0 63.5 -6.5t48.5 -17.5l-33 -122q-7 5 -17.5 9t-22.5 4q-18 0 -30.5 -11t-12.5 -28v-22h98v-156h-98v-327h-180zM882 518q-21 0 -39.5 8t-32 21.5t-21.5 32t-8 39.5t8 39.5t21.5 32t32 21.5t39.5 8 t39.5 -8t32 -21.5t21.5 -32t8 -39.5t-8 -39.5t-21.5 -32t-32 -21.5t-39.5 -8zM792 0v483h180v-483h-180zM87 0v327h-80v156h80v22q0 38 13.5 69.5t38 54.5t58.5 35.5t74 12.5q42 0 83.5 -12.5t67.5 -39.5l-65 -100q-16 19 -44 19q-17 0 -31.5 -10.5t-14.5 -28.5v-22h98v-156 h-98v-327h-180z" />
<glyph unicode="ffl" horiz-adv-x="1022" d="M458 0v327h-80v156h80v22q0 37 13.5 69t38 54.5t58.5 35.5t74 13q35 0 63.5 -6.5t48.5 -17.5l-33 -122q-7 5 -17.5 9t-22.5 4q-18 0 -30.5 -11t-12.5 -28v-22h98v-156h-98v-327h-180zM792 0v667h180v-667h-180zM87 0v327h-80v156h80v22q0 38 13.5 69.5t38 54.5t58.5 35.5 t74 12.5q42 0 83.5 -12.5t67.5 -39.5l-65 -100q-16 19 -44 19q-17 0 -31.5 -10.5t-14.5 -28.5v-22h98v-156h-98v-327h-180z" />
<glyph unicode="fb" horiz-adv-x="967" d="M87 0v327h-80v156h80v22q0 37 13.5 69t38 54.5t58.5 35.5t74 13q35 0 63.5 -6.5t48.5 -17.5l-33 -122q-7 5 -17.5 9t-22.5 4q-18 0 -30.5 -11t-12.5 -28v-22h98v-156h-98v-327h-180zM601 179q13 -16 35 -24t40 -8q37 0 63.5 24.5t26.5 70.5q0 45 -26.5 69.5t-63.5 24.5 q-18 0 -40 -8.5t-35 -24.5v-124zM421 0v667h180v-235q29 35 64 49t72 14q45 0 83.5 -17t67.5 -49.5t45.5 -79.5t16.5 -107q0 -62 -17 -109.5t-46 -79.5t-67.5 -48.5t-82.5 -16.5q-37 0 -71 14t-65 49v-51h-180z" />
<glyph unicode="fh" horiz-adv-x="979" d="M87 0v327h-80v156h80v22q0 37 13.5 69t38 54.5t58.5 35.5t74 13q35 0 63.5 -6.5t48.5 -17.5l-33 -122q-7 5 -17.5 9t-22.5 4q-18 0 -30.5 -11t-12.5 -28v-22h98v-156h-98v-327h-180zM749 0v269q0 38 -19 52.5t-51 14.5q-31 0 -48.5 -12.5t-28.5 -25.5v-298h-180v667h180 v-239q21 24 61.5 45.5t104.5 21.5q42 0 72.5 -11.5t50 -32t29 -48t9.5 -58.5v-345h-180z" />
<glyph unicode="fk" horiz-adv-x="928" d="M87 0v327h-80v156h80v22q0 37 13.5 69t38 54.5t58.5 35.5t74 13q35 0 63.5 -6.5t48.5 -17.5l-33 -122q-7 5 -17.5 9t-22.5 4q-18 0 -30.5 -11t-12.5 -28v-22h98v-156h-98v-327h-180zM719 0l-83 156l-35 -47v-109h-180v667h180v-356l111 172h217l-166 -220l177 -263h-221z " />
<glyph unicode=" "  horiz-adv-x="255" />
<glyph unicode="&#x09;" horiz-adv-x="255" />
<glyph unicode="&#xa0;" horiz-adv-x="255" />
<glyph unicode="!" horiz-adv-x="280" d="M60 248l-27 419h214l-25 -419h-162zM141 -11q-22 0 -41 8.5t-33.5 23t-23 34t-8.5 40.5q0 22 8.5 41.5t23 34t33.5 23t41 8.5t41 -8.5t33.5 -23t23 -34t8.5 -41.5q0 -21 -8.5 -40.5t-23 -34t-33.5 -23t-41 -8.5z" />
<glyph unicode="&#x22;" horiz-adv-x="469" d="M89 339q-16 62 -28 114l-10 44t-9 40t-6 30.5t-2 17.5q0 19 7.5 36t20 29.5t29 19.5t35.5 7t35.5 -7t29 -19.5t20 -29.5t7.5 -36q0 -5 -2.5 -17.5t-6.5 -30.5t-9 -40l-10 -44q-12 -52 -27 -114h-74zM307 339q-16 62 -28 114l-10 44t-9 40t-6 30.5t-2 17.5q0 19 7 36 t19.5 29.5t29.5 19.5t36 7t35.5 -7t29 -19.5t19.5 -29.5t7 -36q0 -5 -2.5 -17.5t-6.5 -30.5t-9 -40l-10 -44q-12 -52 -27 -114h-73z" />
<glyph unicode="#" horiz-adv-x="646" d="M250 0l53 158h-79l-52 -158h-127l53 158h-86l35 109h88l43 132h-87l34 108h90l53 160h127l-53 -160h78l53 160h127l-54 -160h88l-33 -108h-91l-44 -132h91l-34 -109h-94l-52 -158h-127zM383 399h-78l-43 -132h77z" />
<glyph unicode="$" horiz-adv-x="635" d="M262 -8q-81 8 -140 34.5t-104 67.5l105 150q38 -36 92.5 -61t122.5 -25q29 0 51.5 8t22.5 28q0 16 -27.5 23.5t-69 14.5t-89.5 18.5t-89.5 35t-69 64t-27.5 106.5q0 38 14 74t42 65.5t69.5 50t96.5 27.5v95h128v-96q60 -8 112.5 -30t97.5 -58l-108 -143q-44 33 -96 49.5 t-100 16.5q-30 0 -40.5 -8.5t-10.5 -21.5q0 -16 27.5 -24t68.5 -15.5t89.5 -19.5t89.5 -35t68.5 -62t27.5 -101q0 -97 -59.5 -155.5t-166.5 -72.5v-92h-128v92z" />
<glyph unicode="%" horiz-adv-x="784" d="M198 341q-41 0 -74 13t-56 35.5t-35.5 53t-12.5 65.5t12.5 66t35.5 54t56 36t74 13t74.5 -13t57 -36t36 -54t12.5 -66t-12.5 -65.5t-36 -53t-57 -35.5t-74.5 -13zM131 0l426 667h98l-427 -667h-97zM585 -12q-41 0 -74 13t-56 35.5t-35.5 53t-12.5 65.5t12.5 66t35.5 54 t56 36t74 13t74 -13t56.5 -36t36 -54t12.5 -66t-12.5 -65.5t-36 -53t-56.5 -35.5t-74 -13zM198 447q24 0 41 14.5t17 46.5q0 34 -17 48.5t-41 14.5q-23 0 -39.5 -14.5t-16.5 -48.5q0 -32 16.5 -46.5t39.5 -14.5zM585 94q24 0 41 14t17 47q0 34 -17 48.5t-41 14.5 t-40.5 -14.5t-16.5 -48.5q0 -33 16.5 -47t40.5 -14z" />
<glyph unicode="&#x26;" horiz-adv-x="652" d="M442 0l-31 32q-37 -21 -78 -32.5t-88 -11.5q-49 0 -91.5 12.5t-74 37.5t-49.5 62.5t-18 88.5q0 37 11.5 66t30.5 51.5t44.5 39t53.5 30.5q-17 35 -27 69.5t-10 66.5q0 34 15.5 64t43.5 52.5t67 35.5t87 13q38 0 74 -10t63.5 -29.5t44.5 -47.5t17 -64q0 -39 -13.5 -67 t-35.5 -48.5t-50.5 -35.5t-58.5 -28q10 -14 19.5 -26t18.5 -23l36 -46q16 25 28.5 51.5t20.5 54.5l139 -66q-20 -40 -43 -78t-52 -73q31 -35 62.5 -69.5t65.5 -71.5h-222zM272 126q24 0 47 10q-31 36 -50 61q-24 30 -49 66q-20 -25 -20 -56q0 -35 21.5 -58t50.5 -23z M291 507q0 -28 19 -66q29 14 47.5 31.5t18.5 42.5q0 16 -11 26.5t-28 10.5q-20 0 -33 -12.5t-13 -32.5z" />
<glyph unicode="'" horiz-adv-x="252" d="M89 339q-16 62 -28 114l-10 44t-9 40t-6 30.5t-2 17.5q0 19 7.5 36t20 29.5t29 19.5t35.5 7t35.5 -7t29 -19.5t20 -29.5t7.5 -36q0 -5 -2.5 -17.5t-6.5 -30.5t-9 -40l-10 -44q-12 -52 -27 -114h-74z" />
<glyph unicode="(" horiz-adv-x="346" d="M214 -199q-40 36 -72.5 86.5t-56 109.5t-36 122.5t-12.5 123.5t12.5 123.5t36 122.5t56 109.5t72.5 86.5l114 -87q-27 -44 -45.5 -86t-30 -85t-17 -88.5t-5.5 -95.5t5.5 -95t17 -88t30 -85t45.5 -85z" />
<glyph unicode=")" horiz-adv-x="347" d="M18 -110q27 43 45.5 85t30 85t17 88t5.5 95t-5.5 95.5t-17 88.5t-30 85t-45.5 86l114 87q40 -36 72.5 -86.5t55.5 -109.5t36 -122.5t13 -123.5t-13 -123.5t-36 -122.5t-55.5 -109.5t-72.5 -86.5z" />
<glyph unicode="*" horiz-adv-x="363" d="M141 343l4 105l-88 -56l-40 70l92 48l-92 48l40 70l88 -56l-4 105h81l-5 -105l88 56l41 -70l-93 -48l93 -48l-41 -70l-88 56l5 -105h-81z" />
<glyph unicode="+" horiz-adv-x="510" d="M313 285v-193h-116v193h-168v105h168v185h116v-185h168v-105h-168z" />
<glyph unicode="," horiz-adv-x="281" d="M254 73q0 -66 -33 -122t-92 -98l-73 59q12 5 26 15.5t26.5 23.5t23 28t15.5 29q-10 -4 -26 -4q-36 0 -61.5 25.5t-25.5 67.5q0 22 8.5 41t22.5 33t33 22.5t40 8.5q23 0 44 -8.5t37 -25t25.5 -40.5t9.5 -55z" />
<glyph unicode="-" horiz-adv-x="300" d="M30 167v150h240v-150h-240z" />
<glyph unicode="." horiz-adv-x="283" d="M141 -12q-22 0 -41.5 8.5t-34 23t-23 34t-8.5 41.5t8.5 41.5t23 34t34 23t41.5 8.5t41.5 -8.5t34 -23t23 -34t8.5 -41.5t-8.5 -41.5t-23 -34t-34 -23t-41.5 -8.5z" />
<glyph unicode="/" horiz-adv-x="362" d="M0 -20l237 707h125l-237 -707h-125z" />
<glyph unicode="0" horiz-adv-x="628" d="M314 -12q-75 0 -130.5 28.5t-92 76t-55 110t-18.5 130.5t18.5 130t55 109.5t92 76t130.5 28.5t130.5 -28.5t92 -76t55 -109.5t18.5 -130t-18.5 -130.5t-55 -110t-92 -76t-130.5 -28.5zM314 166q48 0 70.5 41t22.5 126t-22.5 125.5t-70.5 40.5t-70.5 -40.5t-22.5 -125.5 t22.5 -126t70.5 -41z" />
<glyph unicode="1" horiz-adv-x="483" d="M227 0v410l-113 -112l-114 119l255 250h174v-667h-202z" />
<glyph unicode="2" horiz-adv-x="613" d="M41 0v157q76 54 130.5 93t91.5 67t59 47t34 33.5t15.5 25.5t3.5 24q0 24 -22.5 38t-54.5 14q-54 0 -96 -18.5t-80 -50.5l-110 134q29 31 63.5 52.5t71.5 35t74.5 19.5t72.5 6q65 0 117.5 -17t90 -47.5t58 -73t20.5 -92.5q0 -34 -10.5 -66t-35.5 -64.5t-65 -67t-100 -73.5 h217v-176h-545z" />
<glyph unicode="3" horiz-adv-x="617" d="M300 -12q-100 0 -173 29.5t-115 74.5l99 138q19 -17 43 -29t48 -20t47.5 -11.5t42.5 -3.5q50 0 73.5 13.5t23.5 31.5q0 9 -3.5 15.5t-14.5 11t-31.5 7t-53.5 2.5h-26t-29.5 -0.5t-26 -1t-15.5 -0.5v179q5 0 17.5 -0.5t27 -0.5h29h23.5q48 0 70 8.5t22 24.5q0 23 -27.5 33 t-71.5 10q-43 0 -85.5 -14.5t-77.5 -43.5l-95 126q45 49 113.5 79.5t166.5 30.5q69 0 121 -13.5t87 -38t52.5 -58.5t17.5 -75q0 -27 -11 -51.5t-30.5 -44t-46.5 -33.5t-59 -19q28 -3 56 -15t50.5 -31.5t37 -47.5t14.5 -62q0 -45 -21 -81.5t-59 -63t-91.5 -41t-118.5 -14.5z " />
<glyph unicode="4" horiz-adv-x="636" d="M339 0v107h-321v155l243 405h280v-384h77v-176h-77v-107h-202zM339 493l-126 -210h126v210z" />
<glyph unicode="5" horiz-adv-x="626" d="M311 -12q-90 0 -160 24.5t-119 69.5l108 142q35 -29 80 -43.5t89 -14.5q51 0 72.5 17t21.5 38q0 23 -20.5 39t-67.5 16q-38 0 -68 -11t-56 -35l-139 32v405h510v-176h-308v-94q24 23 60.5 37t78.5 14q43 0 82 -15.5t68.5 -44t47 -68.5t17.5 -90q0 -55 -20 -100 t-58.5 -76.5t-93.5 -48.5t-125 -17z" />
<glyph unicode="6" horiz-adv-x="625" d="M336 -12q-82 0 -142 26.5t-99 72.5t-58 109t-19 136q0 84 25.5 148t72 108t110.5 66.5t142 22.5q57 0 112.5 -15.5t95.5 -42.5l-85 -156q-29 20 -57.5 28t-65.5 8q-25 0 -51 -6.5t-47 -21t-34.5 -36.5t-13.5 -52v-2q26 33 67.5 50.5t87.5 17.5q45 0 87.5 -14.5 t75.5 -42.5t53 -69.5t20 -94.5q0 -54 -21 -98.5t-58 -76t-88 -48.5t-110 -17zM323 166q38 0 61.5 16.5t23.5 37.5q0 16 -9 27t-22.5 18t-30 10t-31.5 3q-26 0 -50 -5.5t-44 -21.5q1 -17 7.5 -32.5t18.5 -27t31 -18.5t45 -7z" />
<glyph unicode="7" horiz-adv-x="575" d="M120 0l211 491h-313v176h545v-140l-222 -527h-221z" />
<glyph unicode="8" horiz-adv-x="630" d="M315 -12q-56 0 -109 10.5t-95 33.5t-67.5 59t-25.5 87q0 54 35 98t92 68q-53 22 -84.5 58.5t-31.5 95.5q0 49 25.5 83t66 55.5t92 31t102.5 9.5t102.5 -9.5t92 -31t66 -55.5t25.5 -83q0 -59 -32 -95.5t-85 -58.5q57 -24 92.5 -68t35.5 -98q0 -51 -25.5 -87t-67.5 -59 t-95.5 -33.5t-108.5 -10.5zM315 422q31 5 55.5 17.5t24.5 28.5q0 20 -21 32.5t-59 12.5t-59.5 -12.5t-21.5 -32.5q0 -16 25 -28.5t56 -17.5zM315 152q42 0 67 14t25 35q0 10 -8.5 18.5t-22 15t-29.5 11.5t-32 7q-16 -2 -32.5 -7t-29.5 -11.5t-21.5 -15t-8.5 -18.5 q0 -21 24.5 -35t67.5 -14z" />
<glyph unicode="9" horiz-adv-x="625" d="M257 -11q-57 0 -112.5 15.5t-95.5 42.5l85 156q29 -20 57.5 -28t65.5 -8q32 0 58.5 9t46 24.5t30.5 36.5t11 45v3q-26 -33 -67.5 -50.5t-87.5 -17.5q-45 0 -87.5 14.5t-75.5 42.5t-53 69.5t-20 94.5q0 54 21 98.5t58 76t88 48.5t110 17q82 0 142 -26.5t99 -72.5t58 -109 t19 -136q0 -84 -25.5 -148t-72 -108t-110.5 -66.5t-142 -22.5zM310 388q26 0 50 5.5t44 21.5q-3 34 -26.5 59.5t-76.5 25.5q-38 0 -61 -16.5t-23 -37.5q0 -16 9 -27t22.5 -18t30 -10t31.5 -3z" />
<glyph unicode=":" horiz-adv-x="266" d="M141 276q-22 0 -41.5 8.5t-34 23t-23 34t-8.5 41.5t8.5 41.5t23 34t34 23t41.5 8.5t41.5 -8.5t34 -23t23 -34t8.5 -41.5t-8.5 -41.5t-23 -34t-34 -23t-41.5 -8.5zM141 -12q-22 0 -41.5 8.5t-34 23t-23 34t-8.5 41.5t8.5 41.5t23 34t34 23t41.5 8.5t41.5 -8.5t34 -23 t23 -34t8.5 -41.5t-8.5 -41.5t-23 -34t-34 -23t-41.5 -8.5z" />
<glyph unicode=";" horiz-adv-x="281" d="M141 276q-22 0 -41.5 8.5t-34 23.5t-23 34.5t-8.5 41.5t8.5 41t23 33.5t34 23t41.5 8.5t41.5 -8.5t34 -23t23 -33.5t8.5 -41t-8.5 -41.5t-23 -34.5t-34 -23.5t-41.5 -8.5zM254 74q0 -66 -33 -122t-92 -98l-73 59q12 5 26 15.5t26.5 23.5t23 28t15.5 29q-10 -4 -26 -4 q-36 0 -61.5 25.5t-25.5 67.5q0 22 8.5 41t22.5 33t33 22.5t40 8.5q23 0 44 -8.5t37 -25t25.5 -40.5t9.5 -55z" />
<glyph unicode="&#x3c;" horiz-adv-x="510" d="M29 270v130l452 180v-125l-334 -121l334 -119v-125z" />
<glyph unicode="=" horiz-adv-x="510" d="M29 373v105h452v-105h-452zM29 190v105h452v-105h-452z" />
<glyph unicode="&#x3e;" horiz-adv-x="510" d="M29 90v125l334 119l-334 121v125l452 -180v-130z" />
<glyph unicode="?" horiz-adv-x="450" d="M153 224q-12 17 -19.5 41t-7.5 54q0 41 17.5 66.5t38.5 42t38.5 27.5t17.5 23q0 9 -8 15t-31 6q-20 0 -44 -11t-43 -31l-112 129q44 47 103.5 69t118.5 22q102 0 161 -43t59 -118q0 -53 -22 -84t-49 -52.5t-49 -39.5t-22 -43q0 -13 3.5 -22.5t7.5 -14.5zM228 -12 q-22 0 -41.5 8.5t-34 23t-23 34t-8.5 41.5t8.5 41.5t23 34t34 23t41.5 8.5t41.5 -8.5t34 -23t23 -34t8.5 -41.5t-8.5 -41.5t-23 -34t-34 -23t-41.5 -8.5z" />
<glyph unicode="@" horiz-adv-x="783" d="M352 -70q-68 0 -126 24t-100.5 66.5t-66.5 100t-24 123.5q0 79 33 150.5t87.5 125.5t126.5 86t150 32q73 0 131 -24t99 -64.5t63 -94t22 -112.5q0 -67 -22 -116t-55.5 -80.5t-72.5 -46.5t-73 -15q-48 0 -71.5 20t-31.5 46l-2 7q-26 -38 -61 -55.5t-68 -17.5 q-38 0 -67 13.5t-49 37t-30.5 55.5t-10.5 68q0 48 18 91t48 75.5t69 52t82 19.5q42 0 73.5 -15t48.5 -41l9 44h158l-46 -217q-1 -4 -2 -13.5t-1 -13.5q0 -21 7.5 -29.5t20.5 -8.5q15 0 29 9t25 27t18 44t7 60q0 57 -18.5 103.5t-53.5 79.5t-84.5 50.5t-112.5 17.5 q-70 0 -133 -28t-111 -75.5t-76 -110.5t-28 -133q0 -58 21 -108t57.5 -87t87.5 -58t111 -21q48 0 93 14t86 40l24 -34q-47 -30 -99.5 -46.5t-108.5 -16.5zM358 209q28 0 45.5 13.5t28.5 27.5l19 95q-7 10 -21 19t-37 9t-41 -8.5t-31 -22.5t-19.5 -32t-6.5 -37 q0 -29 17 -46.5t46 -17.5z" />
<glyph unicode="A" horiz-adv-x="710" d="M499 0l-24 78h-240l-24 -78h-229l246 667h254l246 -667h-229zM355 469l-66 -215h132z" />
<glyph unicode="B" horiz-adv-x="697" d="M54 0v667h405q52 0 89.5 -15.5t61.5 -40t35.5 -55t11.5 -59.5q0 -63 -32.5 -102.5t-81.5 -50.5q27 -4 50 -18t40.5 -35.5t27 -49.5t9.5 -60q0 -35 -12 -67.5t-36.5 -58t-61.5 -40.5t-87 -15h-419zM412 421q16 0 28 11t12 29q0 17 -12 27.5t-28 10.5h-156v-78h156z M418 168q22 0 34.5 11.5t12.5 30.5q0 18 -12.5 30.5t-34.5 12.5h-162v-85h162z" />
<glyph unicode="C" horiz-adv-x="697" d="M385 -12q-78 0 -145.5 25t-116.5 70.5t-77 109t-28 140.5t28 140.5t77 109t116.5 70.5t145.5 25q66 0 115.5 -17.5t86.5 -45t61.5 -62.5t39.5 -69l-174 -81q-6 19 -18.5 37t-29.5 31t-38 21t-43 8q-36 0 -66 -13t-51.5 -35.5t-33 -53t-11.5 -65.5t11.5 -65.5t33 -53 t51.5 -35.5t66 -13q22 0 43 8t38 21t29.5 30.5t18.5 37.5l174 -80q-15 -33 -39.5 -68t-61 -63t-86.5 -46t-116 -18z" />
<glyph unicode="D" horiz-adv-x="736" d="M54 0v667h298q79 0 146 -22t116 -64.5t76.5 -104.5t27.5 -142t-27.5 -142t-76.5 -105t-116 -65t-145 -22h-299zM352 176q38 0 68 13t50.5 34.5t31.5 50t11 60.5q0 34 -10 62.5t-29.5 49.5t-50 33t-70.5 12h-97v-315h96z" />
<glyph unicode="E" d="M54 0v667h506v-176h-304v-66h297v-176h-297v-73h304v-176h-506z" />
<glyph unicode="F" horiz-adv-x="592" d="M54 0v667h506v-176h-304v-66h297v-176h-297v-249h-202z" />
<glyph unicode="G" horiz-adv-x="726" d="M385 -12q-76 0 -142.5 24t-116.5 68.5t-79 108.5t-29 144t29 144t79 108.5t116.5 68.5t142.5 24q60 0 107 -15t83 -39.5t61.5 -56t41.5 -63.5l-170 -87q-7 15 -18.5 30t-27.5 27t-35.5 19t-41.5 7q-36 0 -66 -13t-51.5 -35.5t-33 -53t-11.5 -65.5t11.5 -65.5t33 -53 t51.5 -35.5t66 -13q29 0 58.5 9t45.5 21v24h-124v176h325v-273q-56 -62 -131 -98.5t-174 -36.5z" />
<glyph unicode="H" horiz-adv-x="751" d="M495 0v255h-239v-255h-202v667h202v-236h239v236h202v-667h-202z" />
<glyph unicode="I" horiz-adv-x="310" d="M54 0v667h202v-667h-202z" />
<glyph unicode="J" horiz-adv-x="498" d="M186 -12q-49 0 -98 12t-88 42l82 154q17 -11 38.5 -20.5t47.5 -9.5q33 0 53.5 20t20.5 55v426h202v-429q0 -64 -18.5 -111t-52.5 -78t-81.5 -46t-105.5 -15z" />
<glyph unicode="K" horiz-adv-x="671" d="M443 0l-150 235l-37 -50v-185h-202v667h202v-250l175 250h247l-252 -310l263 -357h-246z" />
<glyph unicode="L" horiz-adv-x="536" d="M54 0v667h202v-491h253v-176h-455z" />
<glyph unicode="M" horiz-adv-x="900" d="M644 0v401l-149 -401h-90l-149 401v-401h-202v667h279l117 -320l117 320h279v-667h-202z" />
<glyph unicode="N" horiz-adv-x="750" d="M502 0l-246 338v-338h-202v667h208l232 -316v316h202v-667h-194z" />
<glyph unicode="O" horiz-adv-x="766" d="M383 -12q-77 0 -144 25t-116 70.5t-77 109t-28 140.5t28 140.5t77 109t116 70.5t144 25t144 -25t116 -70.5t77 -109t28 -140.5t-28 -140.5t-77 -109t-116 -70.5t-144 -25zM383 166q36 0 65.5 13t50.5 35.5t32.5 53t11.5 65.5t-11.5 65.5t-32.5 53t-50.5 35.5t-65.5 13 t-65.5 -13t-50.5 -35.5t-32.5 -53t-11.5 -65.5t11.5 -65.5t32.5 -53t50.5 -35.5t65.5 -13z" />
<glyph unicode="P" horiz-adv-x="662" d="M54 0v667h356q58 0 103 -18t75.5 -49.5t46 -73t15.5 -88.5t-15.5 -88t-46 -72.5t-75.5 -49.5t-103 -18h-154v-210h-202zM384 386q26 0 43.5 13t17.5 39q0 27 -17.5 40t-43.5 13h-128v-105h128z" />
<glyph unicode="Q" horiz-adv-x="766" d="M383 -12q-77 0 -144 25t-116 70.5t-77 109t-28 140.5t28 140.5t77 109t116 70.5t144 25t144 -25t116 -70.5t77 -109t28 -140.5q0 -68 -22 -125t-61 -101l36 -45l-140 -112l-47 58q-63 -20 -131 -20zM389 166l-46 58l140 112l50 -64q10 27 10 61q0 35 -11.5 65.5t-32.5 53 t-50.5 35.5t-65.5 13t-65.5 -13t-50.5 -35.5t-32.5 -53t-11.5 -65.5t11.5 -65.5t32.5 -53t50.5 -35.5t65.5 -13h6z" />
<glyph unicode="R" horiz-adv-x="678" d="M421 0l-92 210h-73v-210h-202v667h356q58 0 103 -18t75.5 -49.5t46 -73t15.5 -88.5q0 -43 -11.5 -76.5t-29 -58t-38.5 -41t-41 -26.5l121 -236h-230zM379 386q26 0 46 12.5t20 40.5q0 27 -20 39.5t-46 12.5h-123v-105h123z" />
<glyph unicode="S" horiz-adv-x="613" d="M313 -12q-107 0 -181.5 29t-128.5 77l105 150q38 -36 92.5 -61t122.5 -25q29 0 51.5 8t22.5 28q0 16 -27.5 23.5t-69 14.5t-89.5 18.5t-89.5 35t-69 64t-27.5 106.5q0 42 17.5 82t52.5 71t86.5 49.5t120.5 18.5q82 0 154 -23t129 -70l-108 -143q-44 33 -96 49.5 t-100 16.5q-30 0 -40.5 -8.5t-10.5 -21.5q0 -16 27.5 -24t68.5 -15.5t89.5 -19.5t89.5 -35t68.5 -62t27.5 -101q0 -55 -20 -98t-57 -73t-90.5 -45.5t-120.5 -15.5z" />
<glyph unicode="T" horiz-adv-x="595" d="M197 0v491h-179v176h559v-176h-178v-491h-202z" />
<glyph unicode="U" horiz-adv-x="767" d="M384 -12q-84 0 -146.5 21.5t-103 59.5t-60.5 90.5t-20 114.5v393h205v-386q0 -48 31 -81.5t94 -33.5q62 0 93 33.5t31 81.5v386h205v-392q0 -62 -20 -115t-60.5 -91t-102.5 -59.5t-146 -21.5z" />
<glyph unicode="V" horiz-adv-x="710" d="M228 0l-246 667h229l144 -449l144 449h229l-246 -667h-254z" />
<glyph unicode="W" horiz-adv-x="954" d="M563 0l-86 378l-86 -378h-212l-191 667h226l86 -408l101 408h152l101 -408l85 408h227l-191 -667h-212z" />
<glyph unicode="X" horiz-adv-x="684" d="M464 0l-122 204l-122 -204h-238l223 342l-208 325h237l108 -190l106 190h239l-208 -324l223 -343h-238z" />
<glyph unicode="Y" horiz-adv-x="664" d="M232 0v265l-250 402h227l124 -225l122 225h227l-248 -402v-265h-202z" />
<glyph unicode="Z" horiz-adv-x="600" d="M36 0v160l254 331h-254v176h521v-159l-255 -332h262v-176h-528z" />
<glyph unicode="[" horiz-adv-x="317" d="M54 -190v868h245v-114h-120v-640h120v-114h-245z" />
<glyph unicode="\" horiz-adv-x="362" d="M0 687h125l237 -707h-125z" />
<glyph unicode="]" horiz-adv-x="317" d="M18 -190v114h120v640h-120v114h245v-868h-245z" />
<glyph unicode="^" horiz-adv-x="450" d="M305 333l-80 215l-79 -215h-127l143 334h129l140 -334h-126z" />
<glyph unicode="_" horiz-adv-x="564" d="M-3 -154v114h570v-114h-570z" />
<glyph unicode="`" horiz-adv-x="275" d="M155 556l-155 144h155l120 -144h-120z" />
<glyph unicode="a" horiz-adv-x="559" d="M329 0v46q-20 -26 -60.5 -42t-85.5 -16q-27 0 -56.5 9.5t-53.5 29t-40 49.5t-16 71q0 45 16 74.5t40 47.5t53.5 25t56.5 7q48 0 87 -14t59 -39v50q0 26 -22.5 43t-67.5 17q-34 0 -69.5 -12.5t-64.5 -34.5l-61 111q49 39 111 56t117 17q45 0 87.5 -9t76 -32t53.5 -62.5 t20 -99.5v-292h-180zM258 105q21 0 41.5 6.5t29.5 19.5v27q-9 13 -29.5 19.5t-41.5 6.5q-23 0 -43 -9t-20 -31q0 -11 5.5 -18.5t14.5 -12t20.5 -6.5t22.5 -2z" />
<glyph unicode="b" d="M230 179q13 -16 35 -24t40 -8q37 0 63.5 24.5t26.5 70.5q0 45 -26.5 69.5t-63.5 24.5q-18 0 -40 -8.5t-35 -24.5v-124zM50 0v667h180v-235q29 35 64 49t72 14q45 0 83.5 -17t67.5 -49.5t45.5 -79.5t16.5 -107q0 -62 -17 -109.5t-46 -79.5t-67.5 -48.5t-82.5 -16.5 q-37 0 -71 14t-65 49v-51h-180z" />
<glyph unicode="c" horiz-adv-x="502" d="M288 -12q-57 0 -106.5 18t-86 51t-57.5 80t-21 105q0 57 21 104t57.5 80t86 51t106.5 18q41 0 74.5 -8.5t59 -21.5t43.5 -29.5t28 -31.5l-116 -109q-11 17 -31.5 29t-49.5 12q-38 0 -66.5 -23.5t-28.5 -70.5t28.5 -71t66.5 -24q29 0 49.5 12.5t31.5 29.5l116 -110 q-10 -15 -28 -31t-43.5 -29.5t-59 -22t-74.5 -8.5z" />
<glyph unicode="d" d="M366 0v51q-31 -35 -65 -49t-71 -14q-44 0 -82.5 16.5t-67.5 48.5t-46 79.5t-17 109.5q0 60 16.5 107t45.5 79.5t67.5 49.5t83.5 17q37 0 72 -14t64 -49v235h180v-667h-180zM291 147q18 0 40 8.5t35 24.5v124q-13 16 -35 24t-40 8q-37 0 -63.5 -24.5t-26.5 -69.5t26.5 -70 t63.5 -25z" />
<glyph unicode="e" horiz-adv-x="543" d="M286 -12q-57 0 -106 17.5t-85 50t-57 79.5t-21 107q0 52 19 98.5t54 80.5t83 54t107 20q53 0 99 -18.5t79.5 -53.5t53 -85.5t19.5 -114.5v-37h-328q8 -23 33.5 -42t70.5 -19q10 0 25.5 2.5t31.5 7t30.5 10.5t23.5 14l74 -111q-18 -15 -42.5 -26.5t-51.5 -19t-56 -11 t-56 -3.5zM360 300q-2 8 -6.5 18t-13.5 19t-23.5 15t-36.5 6q-21 0 -35 -6t-23 -15t-14 -19t-7 -18h159z" />
<glyph unicode="f" horiz-adv-x="371" d="M87 0v327h-80v156h80v22q0 38 13.5 69.5t38 54.5t58.5 35.5t74 12.5q42 0 83.5 -12.5t67.5 -39.5l-65 -100q-16 19 -44 19q-17 0 -31.5 -10.5t-14.5 -28.5v-22h98v-156h-98v-327h-180z" />
<glyph unicode="g" horiz-adv-x="595" d="M253 -196q-63 0 -117.5 17t-102.5 55l76 128q28 -28 66.5 -40.5t77.5 -12.5q16 0 35.5 4t36.5 15t28.5 30.5t11.5 51.5v26q-31 -35 -64.5 -50t-71.5 -15q-44 0 -82.5 14.5t-67 44t-45.5 75t-17 107.5q0 60 16.5 105.5t45 75.5t67 45t83.5 15q38 0 72.5 -14t63.5 -49v51 h180v-431q0 -52 -13.5 -91t-35.5 -66.5t-52 -45t-62 -27.5t-65.5 -14t-63.5 -4zM291 172q17 0 39 8t35 23v102q-13 15 -35 23t-39 8q-37 0 -63.5 -19t-26.5 -63t26.5 -63t63.5 -19z" />
<glyph unicode="h" horiz-adv-x="608" d="M378 0v269q0 38 -19 52.5t-51 14.5q-31 0 -48.5 -12.5t-28.5 -25.5v-298h-180v667h180v-239q21 24 61.5 45.5t104.5 21.5q42 0 72.5 -11.5t50 -32t29 -48t9.5 -58.5v-345h-180z" />
<glyph unicode="i" horiz-adv-x="280" d="M140 518q-21 0 -39.5 8t-32 21.5t-21.5 32t-8 39.5t8 39.5t21.5 32t32 21.5t39.5 8t39.5 -8t32 -21.5t21.5 -32t8 -39.5t-8 -39.5t-21.5 -32t-32 -21.5t-39.5 -8zM50 0v483h180v-483h-180z" />
<glyph unicode="j" horiz-adv-x="280" d="M140 518q-21 0 -39.5 8t-32 21.5t-21.5 32t-8 39.5t8 39.5t21.5 32t32 21.5t39.5 8t39.5 -8t32 -21.5t21.5 -32t8 -39.5t-8 -39.5t-21.5 -32t-32 -21.5t-39.5 -8zM29 -196q-27 0 -46 2t-34 5.5t-27.5 10t-27.5 15.5l43 133q15 -11 27 -15t33 -4q25 0 39 17.5t14 52.5v462 h180v-462q0 -47 -11.5 -86.5t-36.5 -68.5t-63 -45.5t-90 -16.5z" />
<glyph unicode="k" horiz-adv-x="557" d="M348 0l-83 156l-35 -47v-109h-180v667h180v-356l111 172h217l-166 -220l177 -263h-221z" />
<glyph unicode="l" horiz-adv-x="280" d="M50 0v667h180v-667h-180z" />
<glyph unicode="m" horiz-adv-x="897" d="M667 0v282q0 22 -12.5 38t-42.5 16t-47.5 -13.5t-26.5 -24.5v-298h-180v282q0 22 -12 38t-43 16q-29 0 -46.5 -13.5t-26.5 -24.5v-298h-180v483h180v-55q8 10 23 22t35.5 22t46.5 16.5t55 6.5q51 0 86.5 -20t52.5 -65q10 16 27 31t38.5 27t48 19.5t55.5 7.5q67 0 108 -35 t41 -110v-350h-180z" />
<glyph unicode="n" horiz-adv-x="607" d="M377 0v267q0 38 -19 53.5t-51 15.5q-31 0 -48.5 -12.5t-28.5 -25.5v-298h-180v483h180v-55q21 24 61.5 45.5t104.5 21.5q42 0 72.5 -12t50 -32.5t29 -48.5t9.5 -59v-343h-180z" />
<glyph unicode="o" horiz-adv-x="577" d="M288 -12q-64 0 -114.5 20.5t-85 55.5t-53 81t-18.5 97t18.5 96.5t53 80.5t85 55.5t114.5 20.5t115 -20.5t85.5 -55.5t53 -80.5t18.5 -96.5t-18.5 -97t-53 -81t-85.5 -55.5t-115 -20.5zM288 147q42 0 64.5 27t22.5 68q0 40 -22.5 67t-64.5 27t-64 -27t-22 -67 q0 -41 22 -68t64 -27z" />
<glyph unicode="p" horiz-adv-x="595" d="M366 -12q-38 0 -72 14t-64 49v-235h-180v667h180v-51q29 35 63.5 49t72.5 14q45 0 83.5 -16.5t67 -48.5t45 -79t16.5 -109t-16.5 -109.5t-45 -79.5t-67 -48.5t-83.5 -16.5zM304 147q36 0 63 24.5t27 70.5q0 45 -27 69.5t-63 24.5q-17 0 -39 -8.5t-35 -24.5v-123 q12 -15 34.5 -24t39.5 -9z" />
<glyph unicode="q" horiz-adv-x="595" d="M291 147q17 0 39.5 9t34.5 24v123q-13 16 -35 24.5t-39 8.5q-36 0 -63 -24.5t-27 -69.5q0 -46 27 -70.5t63 -24.5zM229 -12q-45 0 -84 16.5t-67.5 48.5t-44.5 79.5t-16 109.5t16 109t44.5 79t67.5 48.5t84 16.5q38 0 72.5 -14t63.5 -49v51h180v-667h-180v235 q-30 -35 -64 -49t-72 -14z" />
<glyph unicode="r" horiz-adv-x="390" d="M50 0v483h180v-53q11 13 28 25t36.5 21.5t41 15t42.5 5.5v-172q-15 5 -41 5q-29 0 -60.5 -8t-46.5 -26v-296h-180z" />
<glyph unicode="s" horiz-adv-x="490" d="M246 -12q-33 0 -67 5.5t-65.5 15.5t-58.5 23.5t-46 29.5l72 121q14 -11 35.5 -22t45.5 -19.5t48.5 -14t44.5 -5.5q28 0 38 6t10 15q0 11 -20.5 15.5t-50.5 9t-66 11.5t-66 24t-50.5 47t-20.5 80q0 33 14 62.5t41.5 52.5t67.5 36.5t93 13.5q61 0 114 -17t95 -45l-66 -117 q-23 19 -61.5 34.5t-80.5 15.5q-20 0 -32.5 -6.5t-12.5 -14.5q0 -10 20.5 -14t50.5 -8.5t66 -12.5t66 -26t50.5 -49t20.5 -81q0 -36 -15.5 -66.5t-45 -52.5t-72 -34.5t-96.5 -12.5z" />
<glyph unicode="t" horiz-adv-x="382" d="M253 -12q-81 0 -123.5 38t-42.5 114v187h-80v156h80v132h180v-132h98v-156h-98v-135q0 -19 11 -32t29 -13q12 0 22.5 3t13.5 6l32 -136q-14 -13 -45 -22.5t-77 -9.5z" />
<glyph unicode="u" horiz-adv-x="606" d="M376 0v54q-11 -12 -26 -23.5t-35.5 -21t-46.5 -15.5t-58 -6q-42 0 -72.5 12t-50 32t-28.5 47.5t-9 58.5v345h180v-268q0 -37 18.5 -52.5t51.5 -15.5q30 0 47.5 12.5t28.5 25.5v298h180v-483h-180z" />
<glyph unicode="v" horiz-adv-x="535" d="M172 0l-187 483h190l92 -276l93 276h190l-187 -483h-191z" />
<glyph unicode="w" horiz-adv-x="805" d="M481 0l-79 270l-78 -270h-196l-140 483h185l64 -266l85 266h161l84 -266l64 266h186l-140 -483h-196z" />
<glyph unicode="x" horiz-adv-x="521" d="M336 0l-75 128l-77 -128h-196l158 248l-148 235h197l65 -113l65 113h197l-148 -235l159 -248h-197z" />
<glyph unicode="y" horiz-adv-x="535" d="M70 -28q8 -5 18.5 -7t19.5 -2q54 0 63 19l4 10l-190 491h190l92 -276l93 276h190l-210 -543q-16 -42 -39 -68t-51.5 -41t-62.5 -20.5t-72 -6.5q-5 0 -14 0.5t-19.5 1.5t-20.5 2.5t-16 3.5z" />
<glyph unicode="z" horiz-adv-x="486" d="M33 0v132l170 195h-170v156h416v-126l-174 -201h178v-156h-420z" />
<glyph unicode="{" horiz-adv-x="316" d="M239 -190q-36 0 -69.5 12.5t-59 36t-41 57.5t-15.5 78v139q0 28 -13 46t-39 18v94q26 0 39 18t13 46v138q0 43 15.5 77.5t41 58.5t59 36.5t69.5 12.5h60v-114h-60q-25 0 -42.5 -18.5t-17.5 -51.5v-159q0 -32 -10.5 -56t-35.5 -35q25 -11 35.5 -35t10.5 -56v-158 q0 -32 17.5 -51.5t42.5 -19.5h60v-114h-60z" />
<glyph unicode="|" horiz-adv-x="222" d="M54 -20v707h114v-707h-114z" />
<glyph unicode="}" horiz-adv-x="316" d="M17 -76h60q25 0 42.5 19.5t17.5 51.5v158q0 32 10.5 56t35.5 35q-25 11 -35.5 35t-10.5 56v159q0 33 -17.5 51.5t-42.5 18.5h-60v114h60q36 0 69.5 -12.5t59 -36.5t41 -58.5t15.5 -77.5v-138q0 -28 13 -46t39 -18v-94q-26 0 -39 -18t-13 -46v-139q0 -44 -15.5 -78 t-41 -57.5t-59 -36t-69.5 -12.5h-60v114z" />
<glyph unicode="~" horiz-adv-x="518" d="M493 653q-3 -44 -11 -89t-25 -81t-46.5 -59t-76.5 -23q-34 0 -55 12t-34 30t-20 39t-12.5 39t-11 30t-16.5 12q-12 0 -19.5 -16.5t-12 -41t-7 -53t-3.5 -51.5l-118 13q3 44 11 89t25.5 81.5t47 59.5t76.5 23q34 0 55 -12t34 -30t20 -39.5t12.5 -39.5t11 -30t16.5 -12 q12 0 19.5 16.5t12 41t7 53t4.5 52.5z" />
<glyph unicode="&#xa1;" horiz-adv-x="280" d="M58 235h162l27 -419h-214zM33 389q0 21 8.5 40.5t23 34t33.5 23t41 8.5t41 -8.5t33.5 -23t23 -34t8.5 -40.5q0 -22 -8.5 -41.5t-23 -34t-33.5 -23t-41 -8.5t-41 8.5t-33.5 23t-23 34t-8.5 41.5z" />
<glyph unicode="&#xa2;" horiz-adv-x="502" d="M229 -7q-46 8 -85 29t-67 53.5t-44 74.5t-16 92q0 49 16 91t44 74t67 53t85 30v75h126v-77q54 -11 88 -35.5t50 -48.5l-116 -109q-11 17 -31.5 29t-49.5 12q-38 0 -66.5 -23.5t-28.5 -70.5t28.5 -71t66.5 -24q29 0 49.5 12.5t31.5 29.5l116 -110q-16 -23 -50 -48t-88 -36 v-95h-126v93z" />
<glyph unicode="&#xa3;" horiz-adv-x="581" d="M26 379h38q-10 19 -16 39t-6 42q0 54 24.5 94.5t63 68t84.5 41t89 13.5q99 0 163 -30.5t100 -99.5l-160 -92q-11 32 -32 46t-45 14q-30 0 -48 -17.5t-18 -41.5q0 -22 7 -40t15 -37h134v-109h-109q-2 -23 -16 -47.5t-35 -37.5q11 4 23 5t20 1q20 0 34 -4t26.5 -8.5 t25 -8.5t28.5 -4q30 0 48 9.5t28 23.5l77 -159q-20 -22 -58.5 -37t-101.5 -15q-32 0 -58 6.5t-48 14.5t-41 14.5t-36 6.5q-26 0 -55.5 -10t-58.5 -27l-66 132q15 8 30 18t27.5 22t20 26t7.5 30q0 13 -2.5 25t-7.5 24h-95v109z" />
<glyph unicode="&#xa4;" horiz-adv-x="648" d="M324 79q-36 0 -67 6.5t-58 18.5l-74 -74l-105 104l68 68q-35 59 -35 131q0 73 36 132l-69 69l105 104l75 -76q27 11 58 17.5t66 6.5t66 -6.5t58 -17.5l76 76l104 -104l-68 -69q17 -29 26.5 -63t9.5 -69q0 -73 -37 -133l69 -66l-104 -104l-77 73q-26 -11 -57 -17.5 t-66 -6.5zM324 238q45 0 69 27t24 68q0 40 -24 67t-69 27t-68.5 -27t-23.5 -67q0 -41 23.5 -68t68.5 -27z" />
<glyph unicode="&#xa5;" horiz-adv-x="664" d="M232 0v107h-207v105h207v53h-207v105h141l-184 297h227l124 -225l122 225h227l-183 -297h142v-105h-207v-53h207v-105h-207v-107h-202z" />
<glyph unicode="&#xa6;" horiz-adv-x="222" d="M54 -20v316h114v-316h-114zM54 371v316h114v-316h-114z" />
<glyph unicode="&#xa7;" horiz-adv-x="500" d="M475 336q0 -39 -20 -73.5t-55 -54.5q31 -15 53 -44t22 -79q0 -39 -17.5 -70t-48.5 -52.5t-72.5 -32.5t-90.5 -11q-78 0 -137 24t-97 56l69 112q13 -12 32.5 -24.5t41 -22.5t45 -16.5t46.5 -6.5q26 0 41.5 6t15.5 21q0 17 -20.5 25t-50.5 14.5t-66 15t-66 25.5t-50.5 46.5 t-20.5 78.5q0 24 8.5 44t20.5 35t26 25.5t25 16.5q-42 20 -61 54t-19 76q0 33 16.5 61.5t45.5 48.5t68.5 31.5t84.5 11.5q81 0 130.5 -20t78.5 -45l-65 -105q-26 20 -62.5 34t-72.5 14q-52 0 -52 -27q0 -14 20.5 -21t50.5 -12.5t66 -13.5t66 -24.5t50.5 -45t20.5 -75.5z M298 298q0 22 -14.5 35t-39.5 18q-26 -5 -34.5 -18t-8.5 -30q0 -27 20.5 -38.5t42.5 -15.5q20 8 27 20t7 29z" />
<glyph unicode="&#xa8;" horiz-adv-x="318" d="M357 618q0 -38 -26 -63.5t-64 -25.5q-37 0 -63 25.5t-26 63.5t26 63.5t63 25.5q38 0 64 -25.5t26 -63.5zM140 618q0 -38 -25.5 -63.5t-63.5 -25.5t-63.5 25.5t-25.5 63.5t25.5 63.5t63.5 25.5t63.5 -25.5t25.5 -63.5z" />
<glyph unicode="&#xa9;" horiz-adv-x="778" d="M734 334q0 -71 -27 -134t-74 -110t-109.5 -74t-134.5 -27q-71 0 -134 27t-110 74t-74 110t-27 134q0 72 27 134.5t74 109.5t110 74t134 27q72 0 134.5 -27t109.5 -74t74 -109.5t27 -134.5zM692 334q0 63 -24 118t-65 96t-96 65t-118 24q-62 0 -117.5 -24t-96.5 -65 t-65 -96t-24 -118q0 -62 24 -117.5t65 -96.5t96.5 -65t117.5 -24q63 0 118 24t96 65t65 96.5t24 117.5zM549 195q-27 -32 -66 -51t-86 -19q-43 0 -81 15.5t-66 43.5t-44.5 66.5t-16.5 84.5t16.5 84t44.5 65.5t66 43t81 15.5q47 0 85.5 -18.5t64.5 -49.5l-37 -37 q-20 26 -49 42t-64 16q-32 0 -60 -12t-48.5 -33.5t-32.5 -51t-12 -64.5t12 -65t32.5 -51.5t48.5 -34t60 -12.5q36 0 65 16.5t49 42.5z" />
<glyph unicode="&#xaa;" horiz-adv-x="392" d="M225 326v29q-8 -11 -31.5 -24t-64.5 -13q-19 0 -38.5 6t-35 19t-25.5 32t-10 46t10 46t25.5 31t35 17.5t38.5 5.5q41 0 64.5 -11.5t31.5 -21.5v24q0 18 -14 30.5t-43 12.5q-22 0 -44.5 -9.5t-41.5 -26.5l-44 82q33 25 75.5 36t77.5 11q30 0 59 -6t51.5 -21.5t36.5 -42.5 t14 -69v-183h-127zM183 395q12 0 24.5 5t17.5 14v15q-5 8 -17.5 13t-24.5 5q-13 0 -25.5 -5t-12.5 -21q0 -17 12.5 -21.5t25.5 -4.5z" />
<glyph unicode="&#xab;" horiz-adv-x="615" d="M425 63l-160 180l160 177h160l-160 -177l160 -180h-160zM190 63l-160 180l160 177h160l-160 -177l160 -180h-160z" />
<glyph unicode="&#xac;" horiz-adv-x="527" d="M481 190h-108v183h-344v105h452v-288z" />
<glyph unicode="&#xad;" horiz-adv-x="300" d="M30 167v150h240v-150h-240z" />
<glyph unicode="&#xae;" horiz-adv-x="494" d="M459 465q0 -44 -16.5 -82.5t-45 -67.5t-67.5 -45.5t-83 -16.5t-82.5 16.5t-67.5 45.5t-45.5 67.5t-16.5 82.5t16.5 83t45.5 67.5t67.5 45t82.5 16.5t83 -16.5t67.5 -45t45 -67.5t16.5 -83zM424 465q0 37 -14 69.5t-38 56.5t-56 37.5t-69 13.5t-69 -13.5t-56 -37.5 t-38 -56.5t-14 -69.5q0 -36 14 -68.5t38 -56.5t56 -38t69 -14t69 14t56 38t38 56.5t14 68.5zM304 343l-63 96h-39v-96h-37v243h99q31 0 56.5 -20t25.5 -54q0 -20 -7.5 -34t-18 -22.5t-21 -12t-15.5 -3.5l65 -97h-45zM308 512q0 20 -14 31.5t-30 11.5h-62v-84h62q16 0 30 11 t14 30z" />
<glyph unicode="&#xaf;" horiz-adv-x="363" d="M0 551v97h363v-97h-363z" />
<glyph unicode="&#xb0;" horiz-adv-x="331" d="M314 528q0 -31 -12 -58t-32 -47t-47 -31.5t-58 -11.5t-58 11.5t-47 31.5t-31.5 47t-11.5 58t11.5 58t31.5 47t47 32t58 12t58 -12t47 -32t32 -47t12 -58zM224 528q0 24 -17.5 41.5t-41.5 17.5t-40.5 -17.5t-16.5 -41.5t16.5 -40.5t40.5 -16.5t41.5 16.5t17.5 40.5z" />
<glyph unicode="&#xb1;" horiz-adv-x="510" d="M313 328v-193h-116v193h-168v105h168v185h116v-185h168v-105h-168zM29 0v105h452v-105h-452z" />
<glyph unicode="&#xb2;" horiz-adv-x="407" d="M42 421v95q72 50 112.5 79.5t60.5 46.5t24.5 25.5t4.5 17.5q0 17 -12.5 27.5t-37.5 10.5q-16 0 -32 -4.5t-30 -11.5t-25.5 -15.5t-18.5 -16.5l-66 84q37 38 85.5 53t89.5 15q84 0 131.5 -35.5t47.5 -95.5q0 -19 -6.5 -37t-23 -38t-44 -43t-70.5 -53h148v-104h-338z" />
<glyph unicode="&#xb3;" horiz-adv-x="407" d="M383 534q0 -27 -13 -49t-37 -37.5t-57.5 -24.5t-73.5 -9q-62 0 -107.5 17.5t-71.5 44.5l62 87q26 -25 58.5 -35t53.5 -10q29 0 42 7.5t13 18.5q0 20 -19.5 24t-53.5 4h-29t-20 -1v102q7 -1 22 -1h26q38 0 52.5 5.5t14.5 20.5q0 14 -15.5 19.5t-41.5 5.5t-53 -9.5 t-49 -29.5l-58 77q28 29 70.5 47.5t104.5 18.5q89 0 131 -31.5t42 -79.5q0 -31 -24 -56.5t-65 -32.5q17 -2 34 -8.5t31 -18.5t22.5 -28.5t8.5 -37.5z" />
<glyph unicode="&#xb4;" horiz-adv-x="275" d="M120 556h-120l120 144h155z" />
<glyph unicode="&#xb5;" horiz-adv-x="620" d="M230 -184h-180v667h180v-268q0 -37 18.5 -52.5t51.5 -15.5q30 0 47.5 12.5t28.5 25.5v298h180v-305q0 -16 10 -23.5t24 -7.5q10 0 19 3l11 -152q-15 -5 -37 -7.5t-41 -2.5q-60 0 -99 21t-57 66q-16 -38 -45.5 -62.5t-71.5 -24.5q-12 0 -22.5 2.5t-16.5 5.5v-180z" />
<glyph unicode="&#xb6;" horiz-adv-x="449" d="M347 -100v687h-68v-687h-80v423q-36 0 -67 13.5t-54.5 37t-37 54.5t-13.5 67t13.5 67t37 54.5t54.5 37t67 13.5h228v-767h-80z" />
<glyph unicode="&#xb7;" horiz-adv-x="283" d="M247 244q0 -21 -8.5 -40.5t-23 -34t-33.5 -23t-41 -8.5t-41 8.5t-33.5 23t-23 34t-8.5 40.5q0 22 8.5 41.5t23 34t33.5 23t41 8.5t41 -8.5t33.5 -23t23 -34t8.5 -41.5z" />
<glyph unicode="&#xb8;" horiz-adv-x="237" d="M119 -200q-40 0 -71 10t-48 24l31 64q20 -14 41 -22t42 -8q16 0 29 5.5t13 18.5q0 17 -21 17q-16 0 -26 -12l-59 34l30 80h80l-25 -58q15 9 34 9q27 0 47.5 -20.5t20.5 -52.5q0 -43 -35 -66t-83 -23z" />
<glyph unicode="&#xb9;" horiz-adv-x="336" d="M144 421v233l-70 -69l-74 78l163 158h113v-400h-132z" />
<glyph unicode="&#xba;" horiz-adv-x="405" d="M202 318q-43 0 -76.5 13.5t-57 36.5t-36 52.5t-12.5 62.5t12.5 62.5t36 52.5t57 36.5t76.5 13.5t77.5 -13.5t57.5 -36.5t35.5 -52.5t12.5 -62.5t-12.5 -62.5t-35.5 -52.5t-57.5 -36.5t-77.5 -13.5zM202 418q25 0 39 15.5t14 49.5t-14 48.5t-39 14.5q-24 0 -37.5 -14.5 t-13.5 -48.5t13.5 -49.5t37.5 -15.5z" />
<glyph unicode="&#xbb;" horiz-adv-x="615" d="M190 63h-160l160 180l-160 177h160l160 -177zM425 63h-160l160 180l-160 177h160l160 -177z" />
<glyph unicode="&#xbc;" horiz-adv-x="897" d="M144 267v233l-70 -69l-74 78l163 158h113v-400h-132zM837 71v-71h-131v71h-197v87l143 242h185v-227h47v-102h-47zM706 291l-68 -118h68v118zM265 0h-97l426 667h98z" />
<glyph unicode="&#xbd;" horiz-adv-x="927" d="M144 267v233l-70 -69l-74 78l163 158h113v-400h-132zM562 0v95q72 50 112.5 79.5t60.5 46.5t24.5 25.5t4.5 17.5q0 17 -12.5 27.5t-37.5 10.5q-16 0 -32 -4.5t-30 -11.5t-25.5 -15.5t-18.5 -16.5l-66 84q37 38 85.5 53t89.5 15q84 0 131.5 -35.5t47.5 -95.5 q0 -19 -6.5 -37t-23 -38t-44 -43t-70.5 -53h148v-104h-338zM265 0h-97l426 667h98z" />
<glyph unicode="&#xbe;" horiz-adv-x="964" d="M904 71v-71h-131v71h-197v87l143 242h185v-227h47v-102h-47zM773 291l-68 -118h68v118zM332 0h-97l426 667h98zM383 380q0 -27 -13 -49t-37 -37.5t-57.5 -24.5t-73.5 -9q-62 0 -107.5 17.5t-71.5 44.5l62 87q26 -25 58.5 -35t53.5 -10q29 0 42 7.5t13 18.5q0 20 -19.5 24 t-53.5 4h-29t-20 -1v102q7 -1 22 -1h26q38 0 52.5 5.5t14.5 20.5q0 14 -15.5 19.5t-41.5 5.5t-53 -9.5t-49 -29.5l-58 77q28 29 70.5 47.5t104.5 18.5q89 0 131 -31.5t42 -79.5q0 -31 -24 -56.5t-65 -32.5q17 -2 34 -8.5t31 -18.5t22.5 -28.5t8.5 -37.5z" />
<glyph unicode="&#xbf;" horiz-adv-x="401" d="M297 259q12 -17 19.5 -41t7.5 -54q0 -41 -17.5 -66.5t-38.5 -42t-38.5 -27.5t-17.5 -23q0 -9 8 -15t31 -6q20 0 44 11t43 31l112 -129q-44 -47 -103.5 -69t-118.5 -22q-102 0 -161 43t-59 118q0 35 10.5 60.5t26.5 44t34 32.5t34 26.5t26.5 25.5t10.5 30q0 13 -3.5 22.5 t-7.5 14.5zM222 495q22 0 41.5 -8.5t34 -23t23 -34t8.5 -41.5t-8.5 -41.5t-23 -34t-34 -23t-41.5 -8.5t-41.5 8.5t-34 23t-23 34t-8.5 41.5t8.5 41.5t23 34t34 23t41.5 8.5z" />
<glyph unicode="&#xc0;" horiz-adv-x="710" d="M499 0l-24 78h-240l-24 -78h-229l246 667h254l246 -667h-229zM355 469l-66 -215h132zM302 723l-155 144h155l120 -144h-120z" />
<glyph unicode="&#xc1;" horiz-adv-x="710" d="M499 0l-24 78h-240l-24 -78h-229l246 667h254l246 -667h-229zM355 469l-66 -215h132zM405 723h-120l120 144h155z" />
<glyph unicode="&#xc2;" horiz-adv-x="710" d="M419 723l-64 73l-61 -73h-105l88 144h156l91 -144h-105zM499 0l-24 78h-240l-24 -78h-229l246 667h254l246 -667h-229zM355 469l-66 -215h132z" />
<glyph unicode="&#xc3;" horiz-adv-x="710" d="M499 0l-24 78h-240l-24 -78h-229l246 667h254l246 -667h-229zM355 469l-66 -215h132zM408 721q-23 0 -39.5 6.5t-28.5 15t-22 15t-20 6.5t-17 -9t-7 -28h-89q0 69 30 101.5t88 32.5q23 0 39.5 -6.5t28.5 -15t22 -15t20 -6.5t17 9t7 28h89q0 -69 -30 -101.5t-88 -32.5z " />
<glyph unicode="&#xc4;" horiz-adv-x="710" d="M553 785q0 -38 -26 -63.5t-64 -25.5q-37 0 -63 25.5t-26 63.5t26 63.5t63 25.5q38 0 64 -25.5t26 -63.5zM336 785q0 -38 -25.5 -63.5t-63.5 -25.5t-63.5 25.5t-25.5 63.5t25.5 63.5t63.5 25.5t63.5 -25.5t25.5 -63.5zM499 0l-24 78h-240l-24 -78h-229l246 667h254 l246 -667h-229zM355 469l-66 -215h132z" />
<glyph unicode="&#xc5;" horiz-adv-x="710" d="M499 0l-24 78h-240l-24 -78h-229l246 667h254l246 -667h-229zM355 469l-66 -215h132zM356 686q-23 0 -43.5 9t-35.5 24t-24 35.5t-9 43.5t9 43.5t24 35.5t35.5 24t43.5 9t43 -9t35 -24t23.5 -35.5t8.5 -43.5t-8.5 -43.5t-23.5 -35.5t-35 -24t-43 -9zM356 763 q14 0 24 10.5t10 24.5t-10 24.5t-24 10.5t-24.5 -10.5t-10.5 -24.5t10.5 -24.5t24.5 -10.5z" />
<glyph unicode="&#xc6;" horiz-adv-x="989" d="M453 0v78h-207l-41 -78h-230l395 667h589v-176h-304v-66h297v-176h-297v-73h304v-176h-506zM453 469l-113 -215h113v215z" />
<glyph unicode="&#xc7;" horiz-adv-x="697" d="M379 -196q-40 0 -71 10t-48 24l31 64q20 -14 41 -22t42 -8q16 0 29 5.5t13 18.5q0 17 -21 17q-16 0 -26 -12l-59 34l21 57q-68 8 -125.5 36t-99 72.5t-65 103.5t-23.5 129q0 77 28 140.5t77 109t116.5 70.5t145.5 25q66 0 115.5 -17.5t86.5 -45t61.5 -62.5t39.5 -69 l-174 -81q-6 19 -18.5 37t-29.5 31t-38 21t-43 8q-36 0 -66 -13t-51.5 -35.5t-33 -53t-11.5 -65.5t11.5 -65.5t33 -53t51.5 -35.5t66 -13q22 0 43 8t38 21t29.5 30.5t18.5 37.5l174 -80q-14 -32 -37 -65t-57 -60.5t-80 -46.5t-106 -22l-13 -32q15 9 34 9q27 0 47.5 -20.5 t20.5 -52.5q0 -43 -35 -66t-83 -23z" />
<glyph unicode="&#xc8;" d="M54 0v667h506v-176h-304v-66h297v-176h-297v-73h304v-176h-506zM251 723l-155 144h155l120 -144h-120z" />
<glyph unicode="&#xc9;" d="M359 723h-120l120 144h155zM54 0v667h506v-176h-304v-66h297v-176h-297v-73h304v-176h-506z" />
<glyph unicode="&#xca;" d="M370 723l-64 73l-61 -73h-105l88 144h156l91 -144h-105zM54 0v667h506v-176h-304v-66h297v-176h-297v-73h304v-176h-506z" />
<glyph unicode="&#xcb;" d="M508 785q0 -38 -26 -63.5t-64 -25.5q-37 0 -63 25.5t-26 63.5t26 63.5t63 25.5q38 0 64 -25.5t26 -63.5zM291 785q0 -38 -25.5 -63.5t-63.5 -25.5t-63.5 25.5t-25.5 63.5t25.5 63.5t63.5 25.5t63.5 -25.5t25.5 -63.5zM54 0v667h506v-176h-304v-66h297v-176h-297v-73h304 v-176h-506z" />
<glyph unicode="&#xcc;" horiz-adv-x="310" d="M54 0v667h202v-667h-202zM106 723l-155 144h155l120 -144h-120z" />
<glyph unicode="&#xcd;" horiz-adv-x="310" d="M54 0v667h202v-667h-202zM207 723h-120l120 144h155z" />
<glyph unicode="&#xce;" horiz-adv-x="310" d="M217 723l-64 73l-61 -73h-105l88 144h156l91 -144h-105zM54 0v667h202v-667h-202z" />
<glyph unicode="&#xcf;" horiz-adv-x="310" d="M354 785q0 -38 -26 -63.5t-64 -25.5q-37 0 -63 25.5t-26 63.5t26 63.5t63 25.5q38 0 64 -25.5t26 -63.5zM137 785q0 -38 -25.5 -63.5t-63.5 -25.5t-63.5 25.5t-25.5 63.5t25.5 63.5t63.5 25.5t63.5 -25.5t25.5 -63.5zM54 0v667h202v-667h-202z" />
<glyph unicode="&#xd0;" horiz-adv-x="757" d="M75 0v254h-68v159h68v254h298q79 0 146 -22t116 -64.5t76.5 -104.5t27.5 -142t-27.5 -142t-76.5 -105t-116 -65t-145 -22h-299zM373 176q38 0 68 13t50.5 34.5t31.5 50t11 60.5q0 34 -10 62.5t-29.5 49.5t-50 33t-70.5 12h-97v-78h129v-159h-129v-78h96z" />
<glyph unicode="&#xd1;" horiz-adv-x="750" d="M426 721q-23 0 -39.5 6.5t-28.5 15t-22 15t-20 6.5t-17 -9t-7 -28h-89q0 69 30 101.5t88 32.5q23 0 39.5 -6.5t28.5 -15t22 -15t20 -6.5t17 9t7 28h89q0 -69 -30 -101.5t-88 -32.5zM502 0l-246 338v-338h-202v667h208l232 -316v316h202v-667h-194z" />
<glyph unicode="&#xd2;" horiz-adv-x="766" d="M332 723l-155 144h155l120 -144h-120zM383 -12q-77 0 -144 25t-116 70.5t-77 109t-28 140.5t28 140.5t77 109t116 70.5t144 25t144 -25t116 -70.5t77 -109t28 -140.5t-28 -140.5t-77 -109t-116 -70.5t-144 -25zM383 166q36 0 65.5 13t50.5 35.5t32.5 53t11.5 65.5 t-11.5 65.5t-32.5 53t-50.5 35.5t-65.5 13t-65.5 -13t-50.5 -35.5t-32.5 -53t-11.5 -65.5t11.5 -65.5t32.5 -53t50.5 -35.5t65.5 -13z" />
<glyph unicode="&#xd3;" horiz-adv-x="766" d="M432 723h-120l120 144h155zM383 -12q-77 0 -144 25t-116 70.5t-77 109t-28 140.5t28 140.5t77 109t116 70.5t144 25t144 -25t116 -70.5t77 -109t28 -140.5t-28 -140.5t-77 -109t-116 -70.5t-144 -25zM383 166q36 0 65.5 13t50.5 35.5t32.5 53t11.5 65.5t-11.5 65.5 t-32.5 53t-50.5 35.5t-65.5 13t-65.5 -13t-50.5 -35.5t-32.5 -53t-11.5 -65.5t11.5 -65.5t32.5 -53t50.5 -35.5t65.5 -13z" />
<glyph unicode="&#xd4;" horiz-adv-x="766" d="M449 723l-64 73l-61 -73h-105l88 144h156l91 -144h-105zM383 -12q-77 0 -144 25t-116 70.5t-77 109t-28 140.5t28 140.5t77 109t116 70.5t144 25t144 -25t116 -70.5t77 -109t28 -140.5t-28 -140.5t-77 -109t-116 -70.5t-144 -25zM383 166q36 0 65.5 13t50.5 35.5t32.5 53 t11.5 65.5t-11.5 65.5t-32.5 53t-50.5 35.5t-65.5 13t-65.5 -13t-50.5 -35.5t-32.5 -53t-11.5 -65.5t11.5 -65.5t32.5 -53t50.5 -35.5t65.5 -13z" />
<glyph unicode="&#xd5;" horiz-adv-x="766" d="M383 -12q-77 0 -144 25t-116 70.5t-77 109t-28 140.5t28 140.5t77 109t116 70.5t144 25t144 -25t116 -70.5t77 -109t28 -140.5t-28 -140.5t-77 -109t-116 -70.5t-144 -25zM383 166q36 0 65.5 13t50.5 35.5t32.5 53t11.5 65.5t-11.5 65.5t-32.5 53t-50.5 35.5t-65.5 13 t-65.5 -13t-50.5 -35.5t-32.5 -53t-11.5 -65.5t11.5 -65.5t32.5 -53t50.5 -35.5t65.5 -13zM436 721q-23 0 -39.5 6.5t-28.5 15t-22 15t-20 6.5t-17 -9t-7 -28h-89q0 69 30 101.5t88 32.5q23 0 39.5 -6.5t28.5 -15t22 -15t20 -6.5t17 9t7 28h89q0 -69 -30 -101.5t-88 -32.5z " />
<glyph unicode="&#xd6;" horiz-adv-x="766" d="M584 785q0 -38 -26 -63.5t-64 -25.5q-37 0 -63 25.5t-26 63.5t26 63.5t63 25.5q38 0 64 -25.5t26 -63.5zM367 785q0 -38 -25.5 -63.5t-63.5 -25.5t-63.5 25.5t-25.5 63.5t25.5 63.5t63.5 25.5t63.5 -25.5t25.5 -63.5zM383 -12q-77 0 -144 25t-116 70.5t-77 109t-28 140.5 t28 140.5t77 109t116 70.5t144 25t144 -25t116 -70.5t77 -109t28 -140.5t-28 -140.5t-77 -109t-116 -70.5t-144 -25zM383 166q36 0 65.5 13t50.5 35.5t32.5 53t11.5 65.5t-11.5 65.5t-32.5 53t-50.5 35.5t-65.5 13t-65.5 -13t-50.5 -35.5t-32.5 -53t-11.5 -65.5t11.5 -65.5 t32.5 -53t50.5 -35.5t65.5 -13z" />
<glyph unicode="&#xd7;" horiz-adv-x="510" d="M255 260l-133 -134l-75 74l134 134l-134 134l75 74l133 -134l134 134l74 -74l-133 -134l133 -134l-74 -74z" />
<glyph unicode="&#xd8;" horiz-adv-x="766" d="M383 -12q-110 0 -196 49l-31 -37h-138l87 102q-42 45 -64.5 103t-22.5 128q0 77 28 140.5t77 109t116 70.5t144 25q49 0 93.5 -10.5t84.5 -29.5l25 29h138l-76 -90q47 -45 73.5 -107t26.5 -137q0 -77 -28 -140.5t-77 -109t-116 -70.5t-144 -25zM383 166q36 0 65.5 13 t50.5 35.5t32.5 53t11.5 65.5q0 51 -25 92l-207 -243q34 -16 72 -16zM223 333q0 -42 15 -75l198 233q-24 9 -53 9q-36 0 -65.5 -13t-50.5 -35.5t-32.5 -53t-11.5 -65.5z" />
<glyph unicode="&#xd9;" horiz-adv-x="767" d="M384 -12q-84 0 -146.5 21.5t-103 59.5t-60.5 90.5t-20 114.5v393h205v-386q0 -48 31 -81.5t94 -33.5q62 0 93 33.5t31 81.5v386h205v-392q0 -62 -20 -115t-60.5 -91t-102.5 -59.5t-146 -21.5zM332 723l-155 144h155l120 -144h-120z" />
<glyph unicode="&#xda;" horiz-adv-x="767" d="M435 723h-120l120 144h155zM384 -12q-84 0 -146.5 21.5t-103 59.5t-60.5 90.5t-20 114.5v393h205v-386q0 -48 31 -81.5t94 -33.5q62 0 93 33.5t31 81.5v386h205v-392q0 -62 -20 -115t-60.5 -91t-102.5 -59.5t-146 -21.5z" />
<glyph unicode="&#xdb;" horiz-adv-x="767" d="M454 723l-64 73l-61 -73h-105l88 144h156l91 -144h-105zM384 -12q-84 0 -146.5 21.5t-103 59.5t-60.5 90.5t-20 114.5v393h205v-386q0 -48 31 -81.5t94 -33.5q62 0 93 33.5t31 81.5v386h205v-392q0 -62 -20 -115t-60.5 -91t-102.5 -59.5t-146 -21.5z" />
<glyph unicode="&#xdc;" horiz-adv-x="767" d="M585 785q0 -38 -26 -63.5t-64 -25.5q-37 0 -63 25.5t-26 63.5t26 63.5t63 25.5q38 0 64 -25.5t26 -63.5zM368 785q0 -38 -25.5 -63.5t-63.5 -25.5t-63.5 25.5t-25.5 63.5t25.5 63.5t63.5 25.5t63.5 -25.5t25.5 -63.5zM384 -12q-84 0 -146.5 21.5t-103 59.5t-60.5 90.5 t-20 114.5v393h205v-386q0 -48 31 -81.5t94 -33.5q62 0 93 33.5t31 81.5v386h205v-392q0 -62 -20 -115t-60.5 -91t-102.5 -59.5t-146 -21.5z" />
<glyph unicode="&#xdd;" horiz-adv-x="664" d="M232 0v265l-250 402h227l124 -225l122 225h227l-248 -402v-265h-202zM383 723h-120l120 144h155z" />
<glyph unicode="&#xde;" horiz-adv-x="662" d="M54 0v667h202v-96h154q58 0 103 -18.5t75.5 -50t46 -73t15.5 -88.5t-15.5 -88.5t-46 -72t-75.5 -48.5t-103 -18h-154v-114h-202zM379 290q26 0 46 13t20 39t-20 39.5t-46 13.5h-123v-105h123z" />
<glyph unicode="&#xdf;" horiz-adv-x="688" d="M676 154q0 -38 -16.5 -69t-45.5 -52.5t-68.5 -33t-85.5 -11.5q-68 0 -117.5 19t-89.5 53l69 123q10 -12 25.5 -23.5t34.5 -19.5t39 -13t39 -5q22 0 33 6.5t11 14.5q0 11 -17.5 16t-43.5 10.5t-56 13.5t-56 25.5t-43.5 46.5t-17.5 77q0 37 15.5 62.5t34.5 42.5t34.5 28.5 t15.5 20.5q0 17 -16.5 24.5t-39.5 7.5q-37 0 -60 -17.5t-23 -49.5v-451h-180v451q0 45 17.5 86t51.5 72t83.5 49.5t114.5 18.5q45 0 88 -11.5t76 -32.5t53 -51t20 -68q0 -43 -17.5 -70.5t-39 -45.5t-39 -31t-17.5 -27q0 -9 17.5 -12t43.5 -7t56 -12t56 -25.5t43.5 -48.5 t17.5 -81z" />
<glyph unicode="&#xe0;" horiz-adv-x="559" d="M329 0v46q-20 -26 -60.5 -42t-85.5 -16q-27 0 -56.5 9.5t-53.5 29t-40 49.5t-16 71q0 45 16 74.5t40 47.5t53.5 25t56.5 7q48 0 87 -14t59 -39v50q0 26 -22.5 43t-67.5 17q-34 0 -69.5 -12.5t-64.5 -34.5l-61 111q49 39 111 56t117 17q45 0 87.5 -9t76 -32t53.5 -62.5 t20 -99.5v-292h-180zM258 105q21 0 41.5 6.5t29.5 19.5v27q-9 13 -29.5 19.5t-41.5 6.5q-23 0 -43 -9t-20 -31q0 -11 5.5 -18.5t14.5 -12t20.5 -6.5t22.5 -2zM221 556l-155 144h155l120 -144h-120z" />
<glyph unicode="&#xe1;" horiz-adv-x="559" d="M329 0v46q-20 -26 -60.5 -42t-85.5 -16q-27 0 -56.5 9.5t-53.5 29t-40 49.5t-16 71q0 45 16 74.5t40 47.5t53.5 25t56.5 7q48 0 87 -14t59 -39v50q0 26 -22.5 43t-67.5 17q-34 0 -69.5 -12.5t-64.5 -34.5l-61 111q49 39 111 56t117 17q45 0 87.5 -9t76 -32t53.5 -62.5 t20 -99.5v-292h-180zM258 105q21 0 41.5 6.5t29.5 19.5v27q-9 13 -29.5 19.5t-41.5 6.5q-23 0 -43 -9t-20 -31q0 -11 5.5 -18.5t14.5 -12t20.5 -6.5t22.5 -2zM323 556h-120l120 144h155z" />
<glyph unicode="&#xe2;" horiz-adv-x="559" d="M329 0v46q-20 -26 -60.5 -42t-85.5 -16q-27 0 -56.5 9.5t-53.5 29t-40 49.5t-16 71q0 45 16 74.5t40 47.5t53.5 25t56.5 7q48 0 87 -14t59 -39v50q0 26 -22.5 43t-67.5 17q-34 0 -69.5 -12.5t-64.5 -34.5l-61 111q49 39 111 56t117 17q45 0 87.5 -9t76 -32t53.5 -62.5 t20 -99.5v-292h-180zM258 105q21 0 41.5 6.5t29.5 19.5v27q-9 13 -29.5 19.5t-41.5 6.5q-23 0 -43 -9t-20 -31q0 -11 5.5 -18.5t14.5 -12t20.5 -6.5t22.5 -2zM341 556l-64 73l-61 -73h-105l88 144h156l91 -144h-105z" />
<glyph unicode="&#xe3;" horiz-adv-x="559" d="M329 0v46q-20 -26 -60.5 -42t-85.5 -16q-27 0 -56.5 9.5t-53.5 29t-40 49.5t-16 71q0 45 16 74.5t40 47.5t53.5 25t56.5 7q48 0 87 -14t59 -39v50q0 26 -22.5 43t-67.5 17q-34 0 -69.5 -12.5t-64.5 -34.5l-61 111q49 39 111 56t117 17q45 0 87.5 -9t76 -32t53.5 -62.5 t20 -99.5v-292h-180zM258 105q21 0 41.5 6.5t29.5 19.5v27q-9 13 -29.5 19.5t-41.5 6.5q-23 0 -43 -9t-20 -31q0 -11 5.5 -18.5t14.5 -12t20.5 -6.5t22.5 -2zM328 554q-23 0 -39.5 6.5t-28.5 15t-22 15t-20 6.5t-17 -9t-7 -28h-89q0 69 30 101.5t88 32.5q23 0 39.5 -6.5 t28.5 -15t22 -15t20 -6.5t17 9t7 28h89q0 -69 -30 -101.5t-88 -32.5z" />
<glyph unicode="&#xe4;" horiz-adv-x="559" d="M329 0v46q-20 -26 -60.5 -42t-85.5 -16q-27 0 -56.5 9.5t-53.5 29t-40 49.5t-16 71q0 45 16 74.5t40 47.5t53.5 25t56.5 7q48 0 87 -14t59 -39v50q0 26 -22.5 43t-67.5 17q-34 0 -69.5 -12.5t-64.5 -34.5l-61 111q49 39 111 56t117 17q45 0 87.5 -9t76 -32t53.5 -62.5 t20 -99.5v-292h-180zM258 105q21 0 41.5 6.5t29.5 19.5v27q-9 13 -29.5 19.5t-41.5 6.5q-23 0 -43 -9t-20 -31q0 -11 5.5 -18.5t14.5 -12t20.5 -6.5t22.5 -2zM471 618q0 -38 -26 -63.5t-64 -25.5q-37 0 -63 25.5t-26 63.5t26 63.5t63 25.5q38 0 64 -25.5t26 -63.5zM254 618 q0 -38 -25.5 -63.5t-63.5 -25.5t-63.5 25.5t-25.5 63.5t25.5 63.5t63.5 25.5t63.5 -25.5t25.5 -63.5z" />
<glyph unicode="&#xe5;" horiz-adv-x="559" d="M329 0v46q-20 -26 -60.5 -42t-85.5 -16q-27 0 -56.5 9.5t-53.5 29t-40 49.5t-16 71q0 45 16 74.5t40 47.5t53.5 25t56.5 7q48 0 87 -14t59 -39v50q0 26 -22.5 43t-67.5 17q-34 0 -69.5 -12.5t-64.5 -34.5l-61 111q49 39 111 56t117 17q45 0 87.5 -9t76 -32t53.5 -62.5 t20 -99.5v-292h-180zM258 105q21 0 41.5 6.5t29.5 19.5v27q-9 13 -29.5 19.5t-41.5 6.5q-23 0 -43 -9t-20 -31q0 -11 5.5 -18.5t14.5 -12t20.5 -6.5t22.5 -2zM277 519q-23 0 -43.5 9t-35.5 24t-24 35.5t-9 43.5t9 43.5t24 35.5t35.5 24t43.5 9t43 -9t35 -24t23.5 -35.5 t8.5 -43.5t-8.5 -43.5t-23.5 -35.5t-35 -24t-43 -9zM277 596q14 0 24 10.5t10 24.5t-10 24.5t-24 10.5t-24.5 -10.5t-10.5 -24.5t10.5 -24.5t24.5 -10.5z" />
<glyph unicode="&#xe6;" horiz-adv-x="851" d="M520 186q10 -20 34 -38.5t70 -18.5q27 0 54 9.5t44 24.5l78 -115q-18 -15 -42 -26.5t-50.5 -19t-53.5 -11t-51 -3.5q-53 0 -96 15.5t-79 49.5q-33 -28 -84 -46.5t-114 -18.5q-44 0 -82.5 9t-67.5 28t-46 48.5t-17 70.5q0 40 13.5 70t37 49t54 28.5t64.5 9.5 q46 0 88 -13.5t64 -38.5v49q0 25 -23.5 42t-70.5 17q-35 0 -72 -12t-67 -35l-61 112q49 39 111 56t117 17q59 0 95.5 -16t60.5 -43q27 24 67 41.5t103 17.5q49 0 93 -18.5t77 -53.5t52 -85.5t19 -114.5v-37h-319zM668 300q-2 8 -6.5 18t-13 19t-22 15t-34.5 6q-19 0 -32 -6 t-21.5 -14.5t-13.5 -18.5t-7 -19h150zM338 157q-10 13 -31.5 20t-44.5 7q-24 0 -45.5 -8.5t-21.5 -26.5q0 -9 5.5 -15.5t14 -10.5t18 -6t18.5 -2q37 0 62 12.5t25 26.5v3z" />
<glyph unicode="&#xe7;" horiz-adv-x="502" d="M293 -198q-40 0 -71 10t-48 24l31 64q20 -14 41 -22t42 -8q16 0 29 5.5t13 18.5q0 17 -21 17q-16 0 -26 -12l-59 34l21 58q-50 6 -91.5 26.5t-72 52.5t-47.5 75.5t-17 96.5q0 57 21 104t57.5 80t86 51t106.5 18q41 0 74.5 -8.5t59 -21.5t43.5 -29.5t28 -31.5l-116 -109 q-11 17 -31.5 29t-49.5 12q-38 0 -66.5 -23.5t-28.5 -70.5t28.5 -71t66.5 -24q29 0 49.5 12.5t31.5 29.5l116 -110q-18 -27 -60 -54t-109 -35l-15 -35q15 9 34 9q27 0 47.5 -20.5t20.5 -52.5q0 -43 -35 -66t-83 -23z" />
<glyph unicode="&#xe8;" horiz-adv-x="543" d="M286 -12q-57 0 -106 17.5t-85 50t-57 79.5t-21 107q0 52 19 98.5t54 80.5t83 54t107 20q53 0 99 -18.5t79.5 -53.5t53 -85.5t19.5 -114.5v-37h-328q8 -23 33.5 -42t70.5 -19q10 0 25.5 2.5t31.5 7t30.5 10.5t23.5 14l74 -111q-18 -15 -42.5 -26.5t-51.5 -19t-56 -11 t-56 -3.5zM360 300q-2 8 -6.5 18t-13.5 19t-23.5 15t-36.5 6q-21 0 -35 -6t-23 -15t-14 -19t-7 -18h159zM227 556l-155 144h155l120 -144h-120z" />
<glyph unicode="&#xe9;" horiz-adv-x="543" d="M329 556h-120l120 144h155zM286 -12q-57 0 -106 17.5t-85 50t-57 79.5t-21 107q0 52 19 98.5t54 80.5t83 54t107 20q53 0 99 -18.5t79.5 -53.5t53 -85.5t19.5 -114.5v-37h-328q8 -23 33.5 -42t70.5 -19q10 0 25.5 2.5t31.5 7t30.5 10.5t23.5 14l74 -111 q-18 -15 -42.5 -26.5t-51.5 -19t-56 -11t-56 -3.5zM360 300q-2 8 -6.5 18t-13.5 19t-23.5 15t-36.5 6q-21 0 -35 -6t-23 -15t-14 -19t-7 -18h159z" />
<glyph unicode="&#xea;" horiz-adv-x="543" d="M343 556l-64 73l-61 -73h-105l88 144h156l91 -144h-105zM286 -12q-57 0 -106 17.5t-85 50t-57 79.5t-21 107q0 52 19 98.5t54 80.5t83 54t107 20q53 0 99 -18.5t79.5 -53.5t53 -85.5t19.5 -114.5v-37h-328q8 -23 33.5 -42t70.5 -19q10 0 25.5 2.5t31.5 7t30.5 10.5 t23.5 14l74 -111q-18 -15 -42.5 -26.5t-51.5 -19t-56 -11t-56 -3.5zM360 300q-2 8 -6.5 18t-13.5 19t-23.5 15t-36.5 6q-21 0 -35 -6t-23 -15t-14 -19t-7 -18h159z" />
<glyph unicode="&#xeb;" horiz-adv-x="543" d="M479 618q0 -38 -26 -63.5t-64 -25.5q-37 0 -63 25.5t-26 63.5t26 63.5t63 25.5q38 0 64 -25.5t26 -63.5zM262 618q0 -38 -25.5 -63.5t-63.5 -25.5t-63.5 25.5t-25.5 63.5t25.5 63.5t63.5 25.5t63.5 -25.5t25.5 -63.5zM286 -12q-57 0 -106 17.5t-85 50t-57 79.5t-21 107 q0 52 19 98.5t54 80.5t83 54t107 20q53 0 99 -18.5t79.5 -53.5t53 -85.5t19.5 -114.5v-37h-328q8 -23 33.5 -42t70.5 -19q10 0 25.5 2.5t31.5 7t30.5 10.5t23.5 14l74 -111q-18 -15 -42.5 -26.5t-51.5 -19t-56 -11t-56 -3.5zM360 300q-2 8 -6.5 18t-13.5 19t-23.5 15 t-36.5 6q-21 0 -35 -6t-23 -15t-14 -19t-7 -18h159z" />
<glyph unicode="&#xec;" horiz-adv-x="280" d="M50 0v483h180v-483h-180zM91 556l-155 144h155l120 -144h-120z" />
<glyph unicode="&#xed;" horiz-adv-x="280" d="M191 556h-120l120 144h155zM50 0v483h180v-483h-180z" />
<glyph unicode="&#xee;" horiz-adv-x="280" d="M204 556l-64 73l-61 -73h-105l88 144h156l91 -144h-105zM50 0v483h180v-483h-180z" />
<glyph unicode="&#xef;" horiz-adv-x="280" d="M339 618q0 -38 -26 -63.5t-64 -25.5q-37 0 -63 25.5t-26 63.5t26 63.5t63 25.5q38 0 64 -25.5t26 -63.5zM122 618q0 -38 -25.5 -63.5t-63.5 -25.5t-63.5 25.5t-25.5 63.5t25.5 63.5t63.5 25.5t63.5 -25.5t25.5 -63.5zM50 0v483h180v-483h-180z" />
<glyph unicode="&#xf0;" horiz-adv-x="577" d="M52 518l97 42l-47 28l96 143q38 -23 71 -45t63 -45l99 43l33 -75l-61 -27q78 -73 117.5 -151.5t39.5 -172.5q0 -62 -18.5 -111.5t-53 -85t-85.5 -54.5t-115 -19q-61 0 -111 16.5t-85.5 46.5t-55 71.5t-19.5 92.5t16.5 92.5t45 71.5t66.5 46t80 16q57 0 96.5 -25.5 t65.5 -70.5q-13 41 -56 82t-98 79l-149 -66zM288 147q42 0 64.5 19t22.5 49t-22.5 49t-64.5 19t-64 -19t-22 -49t22 -49t64 -19z" />
<glyph unicode="&#xf1;" horiz-adv-x="607" d="M377 0v267q0 38 -19 53.5t-51 15.5q-31 0 -48.5 -12.5t-28.5 -25.5v-298h-180v483h180v-55q21 24 61.5 45.5t104.5 21.5q42 0 72.5 -12t50 -32.5t29 -48.5t9.5 -59v-343h-180zM357 554q-23 0 -39.5 6.5t-28.5 15t-22 15t-20 6.5t-17 -9t-7 -28h-89q0 69 30 101.5t88 32.5 q23 0 39.5 -6.5t28.5 -15t22 -15t20 -6.5t17 9t7 28h89q0 -69 -30 -101.5t-88 -32.5z" />
<glyph unicode="&#xf2;" horiz-adv-x="577" d="M288 -12q-64 0 -114.5 20.5t-85 55.5t-53 81t-18.5 97t18.5 96.5t53 80.5t85 55.5t114.5 20.5t115 -20.5t85.5 -55.5t53 -80.5t18.5 -96.5t-18.5 -97t-53 -81t-85.5 -55.5t-115 -20.5zM288 147q42 0 64.5 27t22.5 68q0 40 -22.5 67t-64.5 27t-64 -27t-22 -67 q0 -41 22 -68t64 -27zM237 556l-155 144h155l120 -144h-120z" />
<glyph unicode="&#xf3;" horiz-adv-x="577" d="M338 556h-120l120 144h155zM288 -12q-64 0 -114.5 20.5t-85 55.5t-53 81t-18.5 97t18.5 96.5t53 80.5t85 55.5t114.5 20.5t115 -20.5t85.5 -55.5t53 -80.5t18.5 -96.5t-18.5 -97t-53 -81t-85.5 -55.5t-115 -20.5zM288 147q42 0 64.5 27t22.5 68q0 40 -22.5 67t-64.5 27 t-64 -27t-22 -67q0 -41 22 -68t64 -27z" />
<glyph unicode="&#xf4;" horiz-adv-x="577" d="M352 556l-64 73l-61 -73h-105l88 144h156l91 -144h-105zM288 -12q-64 0 -114.5 20.5t-85 55.5t-53 81t-18.5 97t18.5 96.5t53 80.5t85 55.5t114.5 20.5t115 -20.5t85.5 -55.5t53 -80.5t18.5 -96.5t-18.5 -97t-53 -81t-85.5 -55.5t-115 -20.5zM288 147q42 0 64.5 27 t22.5 68q0 40 -22.5 67t-64.5 27t-64 -27t-22 -67q0 -41 22 -68t64 -27z" />
<glyph unicode="&#xf5;" horiz-adv-x="577" d="M288 -12q-64 0 -114.5 20.5t-85 55.5t-53 81t-18.5 97t18.5 96.5t53 80.5t85 55.5t114.5 20.5t115 -20.5t85.5 -55.5t53 -80.5t18.5 -96.5t-18.5 -97t-53 -81t-85.5 -55.5t-115 -20.5zM288 147q42 0 64.5 27t22.5 68q0 40 -22.5 67t-64.5 27t-64 -27t-22 -67 q0 -41 22 -68t64 -27zM341 554q-23 0 -39.5 6.5t-28.5 15t-22 15t-20 6.5t-17 -9t-7 -28h-89q0 69 30 101.5t88 32.5q23 0 39.5 -6.5t28.5 -15t22 -15t20 -6.5t17 9t7 28h89q0 -69 -30 -101.5t-88 -32.5z" />
<glyph unicode="&#xf6;" horiz-adv-x="577" d="M486 618q0 -38 -26 -63.5t-64 -25.5q-37 0 -63 25.5t-26 63.5t26 63.5t63 25.5q38 0 64 -25.5t26 -63.5zM269 618q0 -38 -25.5 -63.5t-63.5 -25.5t-63.5 25.5t-25.5 63.5t25.5 63.5t63.5 25.5t63.5 -25.5t25.5 -63.5zM288 -12q-64 0 -114.5 20.5t-85 55.5t-53 81 t-18.5 97t18.5 96.5t53 80.5t85 55.5t114.5 20.5t115 -20.5t85.5 -55.5t53 -80.5t18.5 -96.5t-18.5 -97t-53 -81t-85.5 -55.5t-115 -20.5zM288 147q42 0 64.5 27t22.5 68q0 40 -22.5 67t-64.5 27t-64 -27t-22 -67q0 -41 22 -68t64 -27z" />
<glyph unicode="&#xf7;" horiz-adv-x="511" d="M331 505q0 -32 -22 -54.5t-54 -22.5t-54 22.5t-22 54.5t22 53.5t54 21.5t54 -21.5t22 -53.5zM29 285v105h453v-105h-453zM331 170q0 -32 -22 -54t-54 -22t-54 22t-22 54t22 54t54 22t54 -22t22 -54z" />
<glyph unicode="&#xf8;" horiz-adv-x="577" d="M17 0l64 71q-32 35 -48 79t-16 92q0 51 18.5 96.5t53 80.5t85 55.5t114.5 20.5q43 0 79.5 -9t66.5 -26l21 23h105l-65 -71q32 -35 48.5 -78.5t16.5 -91.5q0 -51 -18.5 -97t-53 -81t-85.5 -55.5t-115 -20.5q-44 0 -80.5 9.5t-66.5 26.5l-22 -24h-102zM288 147 q42 0 64.5 27t22.5 68q0 16 -5 33l-113 -123q15 -5 31 -5zM202 242q0 -20 4 -33l111 123q-12 4 -29 4q-42 0 -64 -27t-22 -67z" />
<glyph unicode="&#xf9;" horiz-adv-x="606" d="M376 0v54q-11 -12 -26 -23.5t-35.5 -21t-46.5 -15.5t-58 -6q-42 0 -72.5 12t-50 32t-28.5 47.5t-9 58.5v345h180v-268q0 -37 18.5 -52.5t51.5 -15.5q30 0 47.5 12.5t28.5 25.5v298h180v-483h-180zM252 556l-155 144h155l120 -144h-120z" />
<glyph unicode="&#xfa;" horiz-adv-x="606" d="M353 556h-120l120 144h155zM376 0v54q-11 -12 -26 -23.5t-35.5 -21t-46.5 -15.5t-58 -6q-42 0 -72.5 12t-50 32t-28.5 47.5t-9 58.5v345h180v-268q0 -37 18.5 -52.5t51.5 -15.5q30 0 47.5 12.5t28.5 25.5v298h180v-483h-180z" />
<glyph unicode="&#xfb;" horiz-adv-x="606" d="M368 556l-64 73l-61 -73h-105l88 144h156l91 -144h-105zM376 0v54q-11 -12 -26 -23.5t-35.5 -21t-46.5 -15.5t-58 -6q-42 0 -72.5 12t-50 32t-28.5 47.5t-9 58.5v345h180v-268q0 -37 18.5 -52.5t51.5 -15.5q30 0 47.5 12.5t28.5 25.5v298h180v-483h-180z" />
<glyph unicode="&#xfc;" horiz-adv-x="606" d="M503 618q0 -38 -26 -63.5t-64 -25.5q-37 0 -63 25.5t-26 63.5t26 63.5t63 25.5q38 0 64 -25.5t26 -63.5zM286 618q0 -38 -25.5 -63.5t-63.5 -25.5t-63.5 25.5t-25.5 63.5t25.5 63.5t63.5 25.5t63.5 -25.5t25.5 -63.5zM376 0v54q-11 -12 -26 -23.5t-35.5 -21t-46.5 -15.5 t-58 -6q-42 0 -72.5 12t-50 32t-28.5 47.5t-9 58.5v345h180v-268q0 -37 18.5 -52.5t51.5 -15.5q30 0 47.5 12.5t28.5 25.5v298h180v-483h-180z" />
<glyph unicode="&#xfd;" horiz-adv-x="535" d="M70 -28q8 -5 18.5 -7t19.5 -2q54 0 63 19l4 10l-190 491h190l92 -276l93 276h190l-210 -543q-16 -42 -39 -68t-51.5 -41t-62.5 -20.5t-72 -6.5q-5 0 -14 0.5t-19.5 1.5t-20.5 2.5t-16 3.5zM317 556h-120l120 144h155z" />
<glyph unicode="&#xfe;" horiz-adv-x="595" d="M366 -12q-38 0 -72 14t-64 49v-235h-180v851h180v-235q29 35 63.5 49t72.5 14q45 0 83.5 -16.5t67 -48.5t45 -79t16.5 -109t-16.5 -109.5t-45 -79.5t-67 -48.5t-83.5 -16.5zM304 147q36 0 63 24.5t27 70.5q0 45 -27 69.5t-63 24.5q-17 0 -39 -8.5t-35 -24.5v-123 q12 -15 34.5 -24t39.5 -9z" />
<glyph unicode="&#xff;" horiz-adv-x="535" d="M70 -28q8 -5 18.5 -7t19.5 -2q54 0 63 19l4 10l-190 491h190l92 -276l93 276h190l-210 -543q-16 -42 -39 -68t-51.5 -41t-62.5 -20.5t-72 -6.5q-5 0 -14 0.5t-19.5 1.5t-20.5 2.5t-16 3.5zM465 618q0 -38 -26 -63.5t-64 -25.5q-37 0 -63 25.5t-26 63.5t26 63.5t63 25.5 q38 0 64 -25.5t26 -63.5zM248 618q0 -38 -25.5 -63.5t-63.5 -25.5t-63.5 25.5t-25.5 63.5t25.5 63.5t63.5 25.5t63.5 -25.5t25.5 -63.5z" />
<glyph unicode="&#x100;" horiz-adv-x="710" d="M499 0l-24 78h-240l-24 -78h-229l246 667h254l246 -667h-229zM355 469l-66 -215h132zM173 718v97h363v-97h-363z" />
<glyph unicode="&#x101;" horiz-adv-x="559" d="M329 0v46q-20 -26 -60.5 -42t-85.5 -16q-27 0 -56.5 9.5t-53.5 29t-40 49.5t-16 71q0 45 16 74.5t40 47.5t53.5 25t56.5 7q48 0 87 -14t59 -39v50q0 26 -22.5 43t-67.5 17q-34 0 -69.5 -12.5t-64.5 -34.5l-61 111q49 39 111 56t117 17q45 0 87.5 -9t76 -32t53.5 -62.5 t20 -99.5v-292h-180zM258 105q21 0 41.5 6.5t29.5 19.5v27q-9 13 -29.5 19.5t-41.5 6.5q-23 0 -43 -9t-20 -31q0 -11 5.5 -18.5t14.5 -12t20.5 -6.5t22.5 -2zM94 551v97h363v-97h-363z" />
<glyph unicode="&#x102;" horiz-adv-x="710" d="M499 0l-24 78h-240l-24 -78h-229l246 667h254l246 -667h-229zM355 469l-66 -215h132zM530 779q-30 -41 -75.5 -64.5t-99.5 -23.5t-99.5 23.5t-76.5 64.5l76 62q17 -23 42 -38t58 -15q63 0 100 53l75 -62v0z" />
<glyph unicode="&#x103;" horiz-adv-x="559" d="M329 0v46q-20 -26 -60.5 -42t-85.5 -16q-27 0 -56.5 9.5t-53.5 29t-40 49.5t-16 71q0 45 16 74.5t40 47.5t53.5 25t56.5 7q48 0 87 -14t59 -39v50q0 26 -22.5 43t-67.5 17q-34 0 -69.5 -12.5t-64.5 -34.5l-61 111q49 39 111 56t117 17q45 0 87.5 -9t76 -32t53.5 -62.5 t20 -99.5v-292h-180zM258 105q21 0 41.5 6.5t29.5 19.5v27q-9 13 -29.5 19.5t-41.5 6.5q-23 0 -43 -9t-20 -31q0 -11 5.5 -18.5t14.5 -12t20.5 -6.5t22.5 -2zM451 612q-30 -41 -75.5 -64.5t-99.5 -23.5t-99.5 23.5t-76.5 64.5l76 62q17 -23 42 -38t58 -15q63 0 100 53 l75 -62v0z" />
<glyph unicode="&#x104;" horiz-adv-x="710" d="M793 -133q-17 -25 -41.5 -39t-59.5 -14q-21 0 -41 5.5t-35.5 16.5t-24.5 29t-9 43q0 53 39 92h-122l-24 78h-240l-24 -78h-229l246 667h254l246 -667q-37 -19 -51 -40.5t-14 -43.5q0 -20 10 -27t19 -7q14 0 22 8.5t13 19.5zM355 469l-66 -215h132z" />
<glyph unicode="&#x105;" horiz-adv-x="559" d="M574 -133q-17 -25 -41.5 -39t-59.5 -14q-21 0 -41 5.5t-35.5 16.5t-24.5 29t-9 43q0 53 39 92h-73v46q-20 -26 -60.5 -42t-85.5 -16q-27 0 -56.5 9.5t-53.5 29t-40 49.5t-16 71q0 45 16 74.5t40 47.5t53.5 25t56.5 7q48 0 87 -14t59 -39v50q0 26 -22.5 43t-67.5 17 q-34 0 -69.5 -12.5t-64.5 -34.5l-61 111q49 39 111 56t117 17q45 0 87.5 -9t76 -32t53.5 -62.5t20 -99.5v-292q-37 -19 -51 -40.5t-14 -43.5q0 -20 10 -27t19 -7q14 0 22 8.5t13 19.5zM258 105q21 0 41.5 6.5t29.5 19.5v27q-9 13 -29.5 19.5t-41.5 6.5q-23 0 -43 -9t-20 -31 q0 -11 5.5 -18.5t14.5 -12t20.5 -6.5t22.5 -2z" />
<glyph unicode="&#x106;" horiz-adv-x="697" d="M434 723h-120l120 144h155zM385 -12q-78 0 -145.5 25t-116.5 70.5t-77 109t-28 140.5t28 140.5t77 109t116.5 70.5t145.5 25q66 0 115.5 -17.5t86.5 -45t61.5 -62.5t39.5 -69l-174 -81q-6 19 -18.5 37t-29.5 31t-38 21t-43 8q-36 0 -66 -13t-51.5 -35.5t-33 -53 t-11.5 -65.5t11.5 -65.5t33 -53t51.5 -35.5t66 -13q22 0 43 8t38 21t29.5 30.5t18.5 37.5l174 -80q-15 -33 -39.5 -68t-61 -63t-86.5 -46t-116 -18z" />
<glyph unicode="&#x107;" horiz-adv-x="502" d="M340 556h-120l120 144h155zM288 -12q-57 0 -106.5 18t-86 51t-57.5 80t-21 105q0 57 21 104t57.5 80t86 51t106.5 18q41 0 74.5 -8.5t59 -21.5t43.5 -29.5t28 -31.5l-116 -109q-11 17 -31.5 29t-49.5 12q-38 0 -66.5 -23.5t-28.5 -70.5t28.5 -71t66.5 -24q29 0 49.5 12.5 t31.5 29.5l116 -110q-10 -15 -28 -31t-43.5 -29.5t-59 -22t-74.5 -8.5z" />
<glyph unicode="&#x108;" horiz-adv-x="697" d="M446 723l-64 73l-61 -73h-105l88 144h156l91 -144h-105zM385 -12q-78 0 -145.5 25t-116.5 70.5t-77 109t-28 140.5t28 140.5t77 109t116.5 70.5t145.5 25q66 0 115.5 -17.5t86.5 -45t61.5 -62.5t39.5 -69l-174 -81q-6 19 -18.5 37t-29.5 31t-38 21t-43 8q-36 0 -66 -13 t-51.5 -35.5t-33 -53t-11.5 -65.5t11.5 -65.5t33 -53t51.5 -35.5t66 -13q22 0 43 8t38 21t29.5 30.5t18.5 37.5l174 -80q-15 -33 -39.5 -68t-61 -63t-86.5 -46t-116 -18z" />
<glyph unicode="&#x109;" horiz-adv-x="502" d="M361 556l-64 73l-61 -73h-105l88 144h156l91 -144h-105zM288 -12q-57 0 -106.5 18t-86 51t-57.5 80t-21 105q0 57 21 104t57.5 80t86 51t106.5 18q41 0 74.5 -8.5t59 -21.5t43.5 -29.5t28 -31.5l-116 -109q-11 17 -31.5 29t-49.5 12q-38 0 -66.5 -23.5t-28.5 -70.5 t28.5 -71t66.5 -24q29 0 49.5 12.5t31.5 29.5l116 -110q-10 -15 -28 -31t-43.5 -29.5t-59 -22t-74.5 -8.5z" />
<glyph unicode="&#x10a;" horiz-adv-x="697" d="M385 -12q-78 0 -145.5 25t-116.5 70.5t-77 109t-28 140.5t28 140.5t77 109t116.5 70.5t145.5 25q66 0 115.5 -17.5t86.5 -45t61.5 -62.5t39.5 -69l-174 -81q-6 19 -18.5 37t-29.5 31t-38 21t-43 8q-36 0 -66 -13t-51.5 -35.5t-33 -53t-11.5 -65.5t11.5 -65.5t33 -53 t51.5 -35.5t66 -13q22 0 43 8t38 21t29.5 30.5t18.5 37.5l174 -80q-15 -33 -39.5 -68t-61 -63t-86.5 -46t-116 -18zM387 697q-37 0 -63 26t-26 63t26 63t63 26q18 0 34 -7t28 -19t19 -28.5t7 -34.5t-7 -34.5t-19 -28.5t-28 -19t-34 -7z" />
<glyph unicode="&#x10b;" horiz-adv-x="502" d="M288 -12q-57 0 -106.5 18t-86 51t-57.5 80t-21 105q0 57 21 104t57.5 80t86 51t106.5 18q41 0 74.5 -8.5t59 -21.5t43.5 -29.5t28 -31.5l-116 -109q-11 17 -31.5 29t-49.5 12q-38 0 -66.5 -23.5t-28.5 -70.5t28.5 -71t66.5 -24q29 0 49.5 12.5t31.5 29.5l116 -110 q-10 -15 -28 -31t-43.5 -29.5t-59 -22t-74.5 -8.5zM287 530q-37 0 -63 26t-26 63t26 63t63 26q18 0 34 -7t28 -19t19 -28.5t7 -34.5t-7 -34.5t-19 -28.5t-28 -19t-34 -7z" />
<glyph unicode="&#x10c;" horiz-adv-x="697" d="M307 723l-91 144h105l64 -73l61 73h105l-88 -144h-156zM385 -12q-78 0 -145.5 25t-116.5 70.5t-77 109t-28 140.5t28 140.5t77 109t116.5 70.5t145.5 25q66 0 115.5 -17.5t86.5 -45t61.5 -62.5t39.5 -69l-174 -81q-6 19 -18.5 37t-29.5 31t-38 21t-43 8q-36 0 -66 -13 t-51.5 -35.5t-33 -53t-11.5 -65.5t11.5 -65.5t33 -53t51.5 -35.5t66 -13q22 0 43 8t38 21t29.5 30.5t18.5 37.5l174 -80q-15 -33 -39.5 -68t-61 -63t-86.5 -46t-116 -18z" />
<glyph unicode="&#x10d;" horiz-adv-x="502" d="M222 556l-91 144h105l64 -73l61 73h105l-88 -144h-156zM288 -12q-57 0 -106.5 18t-86 51t-57.5 80t-21 105q0 57 21 104t57.5 80t86 51t106.5 18q41 0 74.5 -8.5t59 -21.5t43.5 -29.5t28 -31.5l-116 -109q-11 17 -31.5 29t-49.5 12q-38 0 -66.5 -23.5t-28.5 -70.5 t28.5 -71t66.5 -24q29 0 49.5 12.5t31.5 29.5l116 -110q-10 -15 -28 -31t-43.5 -29.5t-59 -22t-74.5 -8.5z" />
<glyph unicode="&#x10e;" horiz-adv-x="736" d="M297 723l-91 144h105l64 -73l61 73h105l-88 -144h-156zM54 0v667h298q79 0 146 -22t116 -64.5t76.5 -104.5t27.5 -142t-27.5 -142t-76.5 -105t-116 -65t-145 -22h-299zM352 176q38 0 68 13t50.5 34.5t31.5 50t11 60.5q0 34 -10 62.5t-29.5 49.5t-50 33t-70.5 12h-97v-315 h96z" />
<glyph unicode="&#x10f;" horiz-adv-x="736" d="M742 582q0 -50 -25 -92t-69 -73l-55 44q9 4 19.5 12t20 18t17.5 21t11 22q-5 -3 -19 -3q-27 0 -46 18.5t-19 50.5q0 33 23 56t55 23q34 0 60.5 -25t26.5 -72zM366 0v51q-31 -35 -65 -49t-71 -14q-44 0 -82.5 16.5t-67.5 48.5t-46 79.5t-17 109.5q0 60 16.5 107t45.5 79.5 t67.5 49.5t83.5 17q37 0 72 -14t64 -49v235h180v-667h-180zM291 147q18 0 40 8.5t35 24.5v124q-13 16 -35 24t-40 8q-37 0 -63.5 -24.5t-26.5 -69.5t26.5 -70t63.5 -25z" />
<glyph unicode="&#x110;" horiz-adv-x="757" d="M75 0v254h-68v159h68v254h298q79 0 146 -22t116 -64.5t76.5 -104.5t27.5 -142t-27.5 -142t-76.5 -105t-116 -65t-145 -22h-299zM373 176q38 0 68 13t50.5 34.5t31.5 50t11 60.5q0 34 -10 62.5t-29.5 49.5t-50 33t-70.5 12h-97v-78h129v-159h-129v-78h96z" />
<glyph unicode="&#x111;" horiz-adv-x="602" d="M366 0v51q-31 -35 -65 -49t-71 -14q-44 0 -82.5 16.5t-67.5 48.5t-46 79.5t-17 109.5q0 60 16.5 107t45.5 79.5t67.5 49.5t83.5 17q37 0 72 -14t64 -49v89h-134v97h134v49h180v-49h49v-97h-49v-521h-180zM291 147q18 0 40 8.5t35 24.5v124q-13 16 -35 24t-40 8 q-37 0 -63.5 -24.5t-26.5 -69.5t26.5 -70t63.5 -25z" />
<glyph unicode="&#x112;" d="M54 0v667h506v-176h-304v-66h297v-176h-297v-73h304v-176h-506zM122 718v97h363v-97h-363z" />
<glyph unicode="&#x113;" horiz-adv-x="543" d="M286 -12q-57 0 -106 17.5t-85 50t-57 79.5t-21 107q0 52 19 98.5t54 80.5t83 54t107 20q53 0 99 -18.5t79.5 -53.5t53 -85.5t19.5 -114.5v-37h-328q8 -23 33.5 -42t70.5 -19q10 0 25.5 2.5t31.5 7t30.5 10.5t23.5 14l74 -111q-18 -15 -42.5 -26.5t-51.5 -19t-56 -11 t-56 -3.5zM360 300q-2 8 -6.5 18t-13.5 19t-23.5 15t-36.5 6q-21 0 -35 -6t-23 -15t-14 -19t-7 -18h159zM92 551v97h363v-97h-363z" />
<glyph unicode="&#x114;" d="M54 0v667h506v-176h-304v-66h297v-176h-297v-73h304v-176h-506zM478 779q-30 -41 -75.5 -64.5t-99.5 -23.5t-99.5 23.5t-76.5 64.5l76 62q17 -23 42 -38t58 -15q63 0 100 53l75 -62v0z" />
<glyph unicode="&#x115;" horiz-adv-x="543" d="M286 -12q-57 0 -106 17.5t-85 50t-57 79.5t-21 107q0 52 19 98.5t54 80.5t83 54t107 20q53 0 99 -18.5t79.5 -53.5t53 -85.5t19.5 -114.5v-37h-328q8 -23 33.5 -42t70.5 -19q10 0 25.5 2.5t31.5 7t30.5 10.5t23.5 14l74 -111q-18 -15 -42.5 -26.5t-51.5 -19t-56 -11 t-56 -3.5zM360 300q-2 8 -6.5 18t-13.5 19t-23.5 15t-36.5 6q-21 0 -35 -6t-23 -15t-14 -19t-7 -18h159zM457 612q-30 -41 -75.5 -64.5t-99.5 -23.5t-99.5 23.5t-76.5 64.5l76 62q17 -23 42 -38t58 -15q63 0 100 53l75 -62v0z" />
<glyph unicode="&#x116;" d="M54 0v667h506v-176h-304v-66h297v-176h-297v-73h304v-176h-506zM306 697q-37 0 -63 26t-26 63t26 63t63 26q18 0 34 -7t28 -19t19 -28.5t7 -34.5t-7 -34.5t-19 -28.5t-28 -19t-34 -7z" />
<glyph unicode="&#x117;" horiz-adv-x="543" d="M286 -12q-57 0 -106 17.5t-85 50t-57 79.5t-21 107q0 52 19 98.5t54 80.5t83 54t107 20q53 0 99 -18.5t79.5 -53.5t53 -85.5t19.5 -114.5v-37h-328q8 -23 33.5 -42t70.5 -19q10 0 25.5 2.5t31.5 7t30.5 10.5t23.5 14l74 -111q-18 -15 -42.5 -26.5t-51.5 -19t-56 -11 t-56 -3.5zM360 300q-2 8 -6.5 18t-13.5 19t-23.5 15t-36.5 6q-21 0 -35 -6t-23 -15t-14 -19t-7 -18h159zM282 530q-37 0 -63 26t-26 63t26 63t63 26q18 0 34 -7t28 -19t19 -28.5t7 -34.5t-7 -34.5t-19 -28.5t-28 -19t-34 -7z" />
<glyph unicode="&#x118;" d="M560 0q-37 -19 -51 -40.5t-14 -43.5q0 -20 10 -27t19 -7q14 0 22 8.5t13 19.5l66 -43q-17 -25 -41.5 -39t-59.5 -14q-21 0 -41 5.5t-35.5 16.5t-24.5 29t-9 43q0 53 39 92h-399v667h506v-176h-304v-66h297v-176h-297v-73h304v-176v0z" />
<glyph unicode="&#x119;" horiz-adv-x="543" d="M453 -133q-17 -25 -41.5 -39t-59.5 -14q-21 0 -41 5.5t-35.5 16.5t-24.5 29t-9 43q0 44 28 80q-54 2 -100 20.5t-80 51t-53.5 78.5t-19.5 104q0 52 19 98.5t54 80.5t83 54t107 20q53 0 99 -18.5t79.5 -53.5t53 -85.5t19.5 -114.5v-37h-328q8 -23 33.5 -42t70.5 -19 q10 0 25.5 2.5t31.5 7t30.5 10.5t23.5 14l74 -111q-20 -17 -47 -28.5t-57 -19.5q-37 -19 -51 -40.5t-14 -43.5q0 -20 10 -27t19 -7q14 0 22 8.5t13 19.5zM360 300q-2 8 -6.5 18t-13.5 19t-23.5 15t-36.5 6q-21 0 -35 -6t-23 -15t-14 -19t-7 -18h159z" />
<glyph unicode="&#x11a;" d="M231 723l-91 144h105l64 -73l61 73h105l-88 -144h-156zM54 0v667h506v-176h-304v-66h297v-176h-297v-73h304v-176h-506z" />
<glyph unicode="&#x11b;" horiz-adv-x="543" d="M201 556l-91 144h105l64 -73l61 73h105l-88 -144h-156zM286 -12q-57 0 -106 17.5t-85 50t-57 79.5t-21 107q0 52 19 98.5t54 80.5t83 54t107 20q53 0 99 -18.5t79.5 -53.5t53 -85.5t19.5 -114.5v-37h-328q8 -23 33.5 -42t70.5 -19q10 0 25.5 2.5t31.5 7t30.5 10.5 t23.5 14l74 -111q-18 -15 -42.5 -26.5t-51.5 -19t-56 -11t-56 -3.5zM360 300q-2 8 -6.5 18t-13.5 19t-23.5 15t-36.5 6q-21 0 -35 -6t-23 -15t-14 -19t-7 -18h159z" />
<glyph unicode="&#x11c;" horiz-adv-x="726" d="M448 723l-64 73l-61 -73h-105l88 144h156l91 -144h-105zM385 -12q-76 0 -142.5 24t-116.5 68.5t-79 108.5t-29 144t29 144t79 108.5t116.5 68.5t142.5 24q60 0 107 -15t83 -39.5t61.5 -56t41.5 -63.5l-170 -87q-7 15 -18.5 30t-27.5 27t-35.5 19t-41.5 7q-36 0 -66 -13 t-51.5 -35.5t-33 -53t-11.5 -65.5t11.5 -65.5t33 -53t51.5 -35.5t66 -13q29 0 58.5 9t45.5 21v24h-124v176h325v-273q-56 -62 -131 -98.5t-174 -36.5z" />
<glyph unicode="&#x11d;" horiz-adv-x="595" d="M368 556l-64 73l-61 -73h-105l88 144h156l91 -144h-105zM253 -196q-63 0 -117.5 17t-102.5 55l76 128q28 -28 66.5 -40.5t77.5 -12.5q16 0 35.5 4t36.5 15t28.5 30.5t11.5 51.5v26q-31 -35 -64.5 -50t-71.5 -15q-44 0 -82.5 14.5t-67 44t-45.5 75t-17 107.5 q0 60 16.5 105.5t45 75.5t67 45t83.5 15q38 0 72.5 -14t63.5 -49v51h180v-431q0 -52 -13.5 -91t-35.5 -66.5t-52 -45t-62 -27.5t-65.5 -14t-63.5 -4zM291 172q17 0 39 8t35 23v102q-13 15 -35 23t-39 8q-37 0 -63.5 -19t-26.5 -63t26.5 -63t63.5 -19z" />
<glyph unicode="&#x11e;" horiz-adv-x="726" d="M385 -12q-76 0 -142.5 24t-116.5 68.5t-79 108.5t-29 144t29 144t79 108.5t116.5 68.5t142.5 24q60 0 107 -15t83 -39.5t61.5 -56t41.5 -63.5l-170 -87q-7 15 -18.5 30t-27.5 27t-35.5 19t-41.5 7q-36 0 -66 -13t-51.5 -35.5t-33 -53t-11.5 -65.5t11.5 -65.5t33 -53 t51.5 -35.5t66 -13q29 0 58.5 9t45.5 21v24h-124v176h325v-273q-56 -62 -131 -98.5t-174 -36.5zM560 779q-30 -41 -75.5 -64.5t-99.5 -23.5t-99.5 23.5t-76.5 64.5l76 62q17 -23 42 -38t58 -15q63 0 100 53l75 -62v0z" />
<glyph unicode="&#x11f;" horiz-adv-x="595" d="M253 -196q-63 0 -117.5 17t-102.5 55l76 128q28 -28 66.5 -40.5t77.5 -12.5q16 0 35.5 4t36.5 15t28.5 30.5t11.5 51.5v26q-31 -35 -64.5 -50t-71.5 -15q-44 0 -82.5 14.5t-67 44t-45.5 75t-17 107.5q0 60 16.5 105.5t45 75.5t67 45t83.5 15q38 0 72.5 -14t63.5 -49v51 h180v-431q0 -52 -13.5 -91t-35.5 -66.5t-52 -45t-62 -27.5t-65.5 -14t-63.5 -4zM291 172q17 0 39 8t35 23v102q-13 15 -35 23t-39 8q-37 0 -63.5 -19t-26.5 -63t26.5 -63t63.5 -19zM469 612q-30 -41 -75.5 -64.5t-99.5 -23.5t-99.5 23.5t-76.5 64.5l76 62q17 -23 42 -38 t58 -15q63 0 100 53l75 -62v0z" />
<glyph unicode="&#x120;" horiz-adv-x="726" d="M385 -12q-76 0 -142.5 24t-116.5 68.5t-79 108.5t-29 144t29 144t79 108.5t116.5 68.5t142.5 24q60 0 107 -15t83 -39.5t61.5 -56t41.5 -63.5l-170 -87q-7 15 -18.5 30t-27.5 27t-35.5 19t-41.5 7q-36 0 -66 -13t-51.5 -35.5t-33 -53t-11.5 -65.5t11.5 -65.5t33 -53 t51.5 -35.5t66 -13q29 0 58.5 9t45.5 21v24h-124v176h325v-273q-56 -62 -131 -98.5t-174 -36.5zM385 697q-37 0 -63 26t-26 63t26 63t63 26q18 0 34 -7t28 -19t19 -28.5t7 -34.5t-7 -34.5t-19 -28.5t-28 -19t-34 -7z" />
<glyph unicode="&#x121;" horiz-adv-x="595" d="M253 -196q-63 0 -117.5 17t-102.5 55l76 128q28 -28 66.5 -40.5t77.5 -12.5q16 0 35.5 4t36.5 15t28.5 30.5t11.5 51.5v26q-31 -35 -64.5 -50t-71.5 -15q-44 0 -82.5 14.5t-67 44t-45.5 75t-17 107.5q0 60 16.5 105.5t45 75.5t67 45t83.5 15q38 0 72.5 -14t63.5 -49v51 h180v-431q0 -52 -13.5 -91t-35.5 -66.5t-52 -45t-62 -27.5t-65.5 -14t-63.5 -4zM291 172q17 0 39 8t35 23v102q-13 15 -35 23t-39 8q-37 0 -63.5 -19t-26.5 -63t26.5 -63t63.5 -19zM307 530q-37 0 -63 26t-26 63t26 63t63 26q18 0 34 -7t28 -19t19 -28.5t7 -34.5t-7 -34.5 t-19 -28.5t-28 -19t-34 -7z" />
<glyph unicode="&#x122;" horiz-adv-x="726" d="M472 -139q0 -50 -25 -92t-69 -73l-55 44q9 4 19.5 12t20 18t17.5 21t11 22q-5 -3 -19 -3q-27 0 -46 18.5t-19 50.5q0 33 23 56t55 23q34 0 60.5 -25t26.5 -72zM385 -12q-76 0 -142.5 24t-116.5 68.5t-79 108.5t-29 144t29 144t79 108.5t116.5 68.5t142.5 24q60 0 107 -15 t83 -39.5t61.5 -56t41.5 -63.5l-170 -87q-7 15 -18.5 30t-27.5 27t-35.5 19t-41.5 7q-36 0 -66 -13t-51.5 -35.5t-33 -53t-11.5 -65.5t11.5 -65.5t33 -53t51.5 -35.5t66 -13q29 0 58.5 9t45.5 21v24h-124v176h325v-273q-56 -62 -131 -98.5t-174 -36.5z" />
<glyph unicode="&#x123;" horiz-adv-x="595" d="M213 612q0 51 21 94t69 76l55 -44q-8 -3 -18.5 -9.5t-20.5 -15.5t-18 -19.5t-10 -20.5q2 0 3.5 0.5t3.5 0.5q14 0 27.5 -5.5t24 -15.5t17 -23.5t6.5 -29.5t-6 -30.5t-17 -25.5t-25.5 -17.5t-31.5 -6.5q-11 0 -25 4t-26 14t-20.5 28t-8.5 46zM253 -196q-63 0 -117.5 17 t-102.5 55l76 128q28 -28 66.5 -40.5t77.5 -12.5q16 0 35.5 4t36.5 15t28.5 30.5t11.5 51.5v26q-31 -35 -64.5 -50t-71.5 -15q-44 0 -82.5 14.5t-67 44t-45.5 75t-17 107.5q0 60 16.5 105.5t45 75.5t67 45t83.5 15q38 0 72.5 -14t63.5 -49v51h180v-431q0 -52 -13.5 -91 t-35.5 -66.5t-52 -45t-62 -27.5t-65.5 -14t-63.5 -4zM291 172q17 0 39 8t35 23v102q-13 15 -35 23t-39 8q-37 0 -63.5 -19t-26.5 -63t26.5 -63t63.5 -19z" />
<glyph unicode="&#x124;" horiz-adv-x="751" d="M438 723l-64 73l-61 -73h-105l88 144h156l91 -144h-105zM495 0v255h-239v-255h-202v667h202v-236h239v236h202v-667h-202z" />
<glyph unicode="&#x125;" horiz-adv-x="608" d="M367 723l-64 73l-61 -73h-105l88 144h156l91 -144h-105zM378 0v269q0 38 -19 52.5t-51 14.5q-31 0 -48.5 -12.5t-28.5 -25.5v-298h-180v667h180v-239q21 24 61.5 45.5t104.5 21.5q42 0 72.5 -11.5t50 -32t29 -48t9.5 -58.5v-345h-180z" />
<glyph unicode="&#x126;" horiz-adv-x="765" d="M502 0v255h-239v-255h-202v501h-54v97h54v69h202v-69h239v69h202v-69h54v-97h-54v-501h-202zM502 431v70h-239v-70h239z" />
<glyph unicode="&#x127;" horiz-adv-x="613" d="M236 521v-93q21 24 61.5 45.5t104.5 21.5q42 0 72.5 -11.5t50 -32t29 -48t9.5 -58.5v-345h-180v269q0 38 -19 52.5t-51 14.5q-31 0 -48.5 -12.5t-28.5 -25.5v-298h-180v521h-49v97h49v49h180v-49h134v-97h-134z" />
<glyph unicode="&#x128;" horiz-adv-x="310" d="M54 0v667h202v-667h-202zM210 721q-23 0 -39.5 6.5t-28.5 15t-22 15t-20 6.5t-17 -9t-7 -28h-89q0 69 30 101.5t88 32.5q23 0 39.5 -6.5t28.5 -15t22 -15t20 -6.5t17 9t7 28h89q0 -69 -30 -101.5t-88 -32.5z" />
<glyph unicode="&#x129;" horiz-adv-x="280" d="M50 0v483h180v-483h-180zM195 554q-23 0 -39.5 6.5t-28.5 15t-22 15t-20 6.5t-17 -9t-7 -28h-89q0 69 30 101.5t88 32.5q23 0 39.5 -6.5t28.5 -15t22 -15t20 -6.5t17 9t7 28h89q0 -69 -30 -101.5t-88 -32.5z" />
<glyph unicode="&#x12a;" horiz-adv-x="310" d="M54 0v667h202v-667h-202zM-25 718v97h363v-97h-363z" />
<glyph unicode="&#x12b;" horiz-adv-x="280" d="M50 0v483h180v-483h-180zM-40 551v97h363v-97h-363z" />
<glyph unicode="&#x12c;" horiz-adv-x="310" d="M54 0v667h202v-667h-202zM336 779q-30 -41 -75.5 -64.5t-99.5 -23.5t-99.5 23.5t-76.5 64.5l76 62q17 -23 42 -38t58 -15q63 0 100 53l75 -62v0z" />
<glyph unicode="&#x12d;" horiz-adv-x="280" d="M50 0v483h180v-483h-180zM318 612q-30 -41 -75.5 -64.5t-99.5 -23.5t-99.5 23.5t-76.5 64.5l76 62q17 -23 42 -38t58 -15q63 0 100 53l75 -62v0z" />
<glyph unicode="&#x12e;" horiz-adv-x="310" d="M322 -133q-17 -25 -41.5 -39t-59.5 -14q-21 0 -41 5.5t-35.5 16.5t-24.5 29t-9 43q0 53 39 92h-96v667h202v-667h1q-37 -19 -51 -40.5t-14 -43.5q0 -20 10 -27t19 -7q14 0 22 8.5t13 19.5z" />
<glyph unicode="&#x12f;" horiz-adv-x="280" d="M295 -133q-17 -25 -41.5 -39t-59.5 -14q-21 0 -41 5.5t-35.5 16.5t-24.5 29t-9 43q0 53 39 92h-73v483h180v-483q-37 -19 -51 -40.5t-14 -43.5q0 -20 10 -27t19 -7q14 0 22 8.5t13 19.5zM140 518q-21 0 -39.5 8t-32 21.5t-21.5 32t-8 39.5t8 39.5t21.5 32t32 21.5t39.5 8 t39.5 -8t32 -21.5t21.5 -32t8 -39.5t-8 -39.5t-21.5 -32t-32 -21.5t-39.5 -8z" />
<glyph unicode="&#x130;" horiz-adv-x="310" d="M54 0v667h202v-667h-202zM157 697q-37 0 -63 26t-26 63t26 63t63 26q18 0 34 -7t28 -19t19 -28.5t7 -34.5t-7 -34.5t-19 -28.5t-28 -19t-34 -7z" />
<glyph unicode="&#x131;" horiz-adv-x="280" d="M50 0v483h180v-483h-180z" />
<glyph unicode="&#x132;" horiz-adv-x="808" d="M54 0v667h202v-667h-202zM496 -12q-49 0 -98 12t-88 42l82 154q17 -11 38.5 -20.5t47.5 -9.5q33 0 53.5 20t20.5 55v426h202v-429q0 -64 -18.5 -111t-52.5 -78t-81.5 -46t-105.5 -15z" />
<glyph unicode="&#x133;" horiz-adv-x="560" d="M140 518q-21 0 -39.5 8t-32 21.5t-21.5 32t-8 39.5t8 39.5t21.5 32t32 21.5t39.5 8t39.5 -8t32 -21.5t21.5 -32t8 -39.5t-8 -39.5t-21.5 -32t-32 -21.5t-39.5 -8zM50 0v483h180v-483h-180zM420 518q-21 0 -39.5 8t-32 21.5t-21.5 32t-8 39.5t8 39.5t21.5 32t32 21.5 t39.5 8t39.5 -8t32 -21.5t21.5 -32t8 -39.5t-8 -39.5t-21.5 -32t-32 -21.5t-39.5 -8zM309 -196q-27 0 -46 2t-34 5.5t-27.5 10t-27.5 15.5l43 133q15 -11 27 -15t33 -4q25 0 39 17.5t14 52.5v462h180v-462q0 -47 -11.5 -86.5t-36.5 -68.5t-63 -45.5t-90 -16.5z" />
<glyph unicode="&#x134;" horiz-adv-x="498" d="M407 723l-64 73l-61 -73h-105l88 144h156l91 -144h-105zM186 -12q-49 0 -98 12t-88 42l82 154q17 -11 38.5 -20.5t47.5 -9.5q33 0 53.5 20t20.5 55v426h202v-429q0 -64 -18.5 -111t-52.5 -78t-81.5 -46t-105.5 -15z" />
<glyph unicode="&#x135;" horiz-adv-x="280" d="M207 556l-64 73l-61 -73h-105l88 144h156l91 -144h-105zM29 -196q-27 0 -46 2t-34 5.5t-27.5 10t-27.5 15.5l43 145q15 -11 27 -15t33 -4q25 0 39 16t14 42v462h180v-462q0 -47 -11.5 -86.5t-36.5 -68.5t-63 -45.5t-90 -16.5z" />
<glyph unicode="&#x136;" horiz-adv-x="689" d="M430 -139q0 -50 -25 -92t-69 -73l-55 44q9 4 19.5 12t20 18t17.5 21t11 22q-5 -3 -19 -3q-27 0 -46 18.5t-19 50.5q0 33 23 56t55 23q34 0 60.5 -25t26.5 -72zM443 0l-150 235l-37 -50v-185h-202v667h202v-250l175 250h247l-252 -310l263 -357h-246z" />
<glyph unicode="&#x137;" horiz-adv-x="557" d="M364 -139q0 -50 -25 -92t-69 -73l-55 44q9 4 19.5 12t20 18t17.5 21t11 22q-5 -3 -19 -3q-27 0 -46 18.5t-19 50.5q0 33 23 56t55 23q34 0 60.5 -25t26.5 -72zM348 0l-83 156l-35 -47v-109h-180v667h180v-356l111 172h217l-166 -220l177 -263h-221z" />
<glyph unicode="&#x138;" horiz-adv-x="557" d="M348 0l-83 156l-35 -47v-109h-180v483h180v-172l111 172h217l-166 -220l177 -263h-221z" />
<glyph unicode="&#x139;" horiz-adv-x="536" d="M331 723h-120l120 144h155zM54 0v667h202v-491h253v-176h-455z" />
<glyph unicode="&#x13a;" horiz-adv-x="280" d="M191 723h-120l120 144h155zM50 0v667h180v-667h-180z" />
<glyph unicode="&#x13b;" horiz-adv-x="536" d="M349 -139q0 -50 -25 -92t-69 -73l-55 44q9 4 19.5 12t20 18t17.5 21t11 22q-5 -3 -19 -3q-27 0 -46 18.5t-19 50.5q0 33 23 56t55 23q34 0 60.5 -25t26.5 -72zM54 0v667h202v-491h253v-176h-455z" />
<glyph unicode="&#x13c;" horiz-adv-x="280" d="M226 -139q0 -50 -25 -92t-69 -73l-55 44q9 4 19.5 12t20 18t17.5 21t11 22q-5 -3 -19 -3q-27 0 -46 18.5t-19 50.5q0 33 23 56t55 23q34 0 60.5 -25t26.5 -72zM50 0v667h180v-667h-180z" />
<glyph unicode="&#x13d;" horiz-adv-x="536" d="M486 584q0 -50 -25 -92t-69 -73l-55 44q9 4 19.5 12t20 18t17.5 21t11 22q-5 -3 -19 -3q-27 0 -46 18.5t-19 50.5q0 33 23 56t55 23q34 0 60.5 -25t26.5 -72zM54 0v667h202v-491h253v-176h-455z" />
<glyph unicode="&#x13e;" horiz-adv-x="418" d="M434 584q0 -50 -25 -92t-69 -73l-55 44q9 4 19.5 12t20 18t17.5 21t11 22q-5 -3 -19 -3q-27 0 -46 18.5t-19 50.5q0 33 23 56t55 23q34 0 60.5 -25t26.5 -72zM50 0v667h180v-667h-180z" />
<glyph unicode="&#x13f;" horiz-adv-x="599" d="M54 0v667h202v-491h253v-176h-455zM563 342q0 -21 -8.5 -40.5t-23 -34t-33.5 -23t-41 -8.5t-41 8.5t-33.5 23t-23 34t-8.5 40.5q0 22 8.5 41.5t23 34t33.5 23t41 8.5t41 -8.5t33.5 -23t23 -34t8.5 -41.5z" />
<glyph unicode="&#x140;" horiz-adv-x="462" d="M50 0v667h180v-667h-180zM477 244q0 -21 -8.5 -40.5t-23 -34t-33.5 -23t-41 -8.5t-41 8.5t-33.5 23t-23 34t-8.5 40.5q0 22 8.5 41.5t23 34t33.5 23t41 8.5t41 -8.5t33.5 -23t23 -34t8.5 -41.5z" />
<glyph unicode="&#x141;" horiz-adv-x="545" d="M7 323l56 32v312h202v-195l56 32v-161l-56 -32v-135h253v-176h-455v195l-56 -32v160z" />
<glyph unicode="&#x142;" horiz-adv-x="330" d="M7 306l68 39v322h180v-218l68 39v-125l-68 -40v-323h-180v219l-68 -39v126z" />
<glyph unicode="&#x143;" horiz-adv-x="750" d="M426 723h-120l120 144h155zM502 0l-246 338v-338h-202v667h208l232 -316v316h202v-667h-194z" />
<glyph unicode="&#x144;" horiz-adv-x="607" d="M355 556h-120l120 144h155zM377 0v267q0 38 -19 53.5t-51 15.5q-31 0 -48.5 -12.5t-28.5 -25.5v-298h-180v483h180v-55q21 24 61.5 45.5t104.5 21.5q42 0 72.5 -12t50 -32.5t29 -48.5t9.5 -59v-343h-180z" />
<glyph unicode="&#x145;" horiz-adv-x="750" d="M460 -139q0 -50 -25 -92t-69 -73l-55 44q9 4 19.5 12t20 18t17.5 21t11 22q-5 -3 -19 -3q-27 0 -46 18.5t-19 50.5q0 33 23 56t55 23q34 0 60.5 -25t26.5 -72zM502 0l-246 338v-338h-202v667h208l232 -316v316h202v-667h-194z" />
<glyph unicode="&#x146;" horiz-adv-x="607" d="M389 -139q0 -50 -25 -92t-69 -73l-55 44q9 4 19.5 12t20 18t17.5 21t11 22q-5 -3 -19 -3q-27 0 -46 18.5t-19 50.5q0 33 23 56t55 23q34 0 60.5 -25t26.5 -72zM377 0v267q0 38 -19 53.5t-51 15.5q-31 0 -48.5 -12.5t-28.5 -25.5v-298h-180v483h180v-55q21 24 61.5 45.5 t104.5 21.5q42 0 72.5 -12t50 -32.5t29 -48.5t9.5 -59v-343h-180z" />
<glyph unicode="&#x147;" horiz-adv-x="750" d="M298 723l-91 144h105l64 -73l61 73h105l-88 -144h-156zM502 0l-246 338v-338h-202v667h208l232 -316v316h202v-667h-194z" />
<glyph unicode="&#x148;" horiz-adv-x="607" d="M227 556l-91 144h105l64 -73l61 73h105l-88 -144h-156zM377 0v267q0 38 -19 53.5t-51 15.5q-31 0 -48.5 -12.5t-28.5 -25.5v-298h-180v483h180v-55q21 24 61.5 45.5t104.5 21.5q42 0 72.5 -12t50 -32.5t29 -48.5t9.5 -59v-343h-180z" />
<glyph unicode="&#x149;" horiz-adv-x="607" d="M191 688q0 -50 -25 -92t-69 -73l-55 44q9 4 19.5 12t20 18t17.5 21t11 22q-5 -3 -19 -3q-27 0 -46 18.5t-19 50.5q0 33 23 56t55 23q34 0 60.5 -25t26.5 -72zM377 0v267q0 38 -19 53.5t-51 15.5q-31 0 -48.5 -12.5t-28.5 -25.5v-298h-180v483h180v-55q21 24 61.5 45.5 t104.5 21.5q42 0 72.5 -12t50 -32.5t29 -48.5t9.5 -59v-343h-180z" />
<glyph unicode="&#x14a;" horiz-adv-x="750" d="M438 -196q-49 0 -98 12t-88 42l82 154q17 -11 38.5 -20.5t47.5 -9.5q48 0 67 39l-231 317v-338h-202v667h208l232 -316v316h202v-613q0 -64 -18.5 -111t-52.5 -78t-81.5 -46t-105.5 -15z" />
<glyph unicode="&#x14b;" horiz-adv-x="607" d="M557 21q0 -47 -11.5 -86.5t-36.5 -68.5t-63 -45.5t-90 -16.5q-27 0 -46 2t-34 5.5t-27.5 10t-27.5 15.5l43 145q15 -11 27 -15t33 -4q25 0 39 16t14 42v246q0 38 -19 53.5t-51 15.5q-31 0 -48.5 -12.5t-28.5 -25.5v-298h-180v483h180v-55q21 24 61.5 45.5t104.5 21.5 q42 0 72.5 -12t50 -32.5t29 -48.5t9.5 -59v-322z" />
<glyph unicode="&#x14c;" horiz-adv-x="766" d="M201 718v97h363v-97h-363zM383 -12q-77 0 -144 25t-116 70.5t-77 109t-28 140.5t28 140.5t77 109t116 70.5t144 25t144 -25t116 -70.5t77 -109t28 -140.5t-28 -140.5t-77 -109t-116 -70.5t-144 -25zM383 166q36 0 65.5 13t50.5 35.5t32.5 53t11.5 65.5t-11.5 65.5 t-32.5 53t-50.5 35.5t-65.5 13t-65.5 -13t-50.5 -35.5t-32.5 -53t-11.5 -65.5t11.5 -65.5t32.5 -53t50.5 -35.5t65.5 -13z" />
<glyph unicode="&#x14d;" horiz-adv-x="577" d="M107 551v97h363v-97h-363zM288 -12q-64 0 -114.5 20.5t-85 55.5t-53 81t-18.5 97t18.5 96.5t53 80.5t85 55.5t114.5 20.5t115 -20.5t85.5 -55.5t53 -80.5t18.5 -96.5t-18.5 -97t-53 -81t-85.5 -55.5t-115 -20.5zM288 147q42 0 64.5 27t22.5 68q0 40 -22.5 67t-64.5 27 t-64 -27t-22 -67q0 -41 22 -68t64 -27z" />
<glyph unicode="&#x14e;" horiz-adv-x="766" d="M383 -12q-77 0 -144 25t-116 70.5t-77 109t-28 140.5t28 140.5t77 109t116 70.5t144 25t144 -25t116 -70.5t77 -109t28 -140.5t-28 -140.5t-77 -109t-116 -70.5t-144 -25zM383 166q36 0 65.5 13t50.5 35.5t32.5 53t11.5 65.5t-11.5 65.5t-32.5 53t-50.5 35.5t-65.5 13 t-65.5 -13t-50.5 -35.5t-32.5 -53t-11.5 -65.5t11.5 -65.5t32.5 -53t50.5 -35.5t65.5 -13zM558 779q-30 -41 -75.5 -64.5t-99.5 -23.5t-99.5 23.5t-76.5 64.5l76 62q17 -23 42 -38t58 -15q63 0 100 53l75 -62v0z" />
<glyph unicode="&#x14f;" horiz-adv-x="577" d="M288 -12q-64 0 -114.5 20.5t-85 55.5t-53 81t-18.5 97t18.5 96.5t53 80.5t85 55.5t114.5 20.5t115 -20.5t85.5 -55.5t53 -80.5t18.5 -96.5t-18.5 -97t-53 -81t-85.5 -55.5t-115 -20.5zM288 147q42 0 64.5 27t22.5 68q0 40 -22.5 67t-64.5 27t-64 -27t-22 -67 q0 -41 22 -68t64 -27zM462 612q-30 -41 -75.5 -64.5t-99.5 -23.5t-99.5 23.5t-76.5 64.5l76 62q17 -23 42 -38t58 -15q63 0 100 53l75 -62v0z" />
<glyph unicode="&#x150;" horiz-adv-x="766" d="M347 723h-100l80 144h135zM503 723h-100l80 144h135zM383 -12q-77 0 -144 25t-116 70.5t-77 109t-28 140.5t28 140.5t77 109t116 70.5t144 25t144 -25t116 -70.5t77 -109t28 -140.5t-28 -140.5t-77 -109t-116 -70.5t-144 -25zM383 166q36 0 65.5 13t50.5 35.5t32.5 53 t11.5 65.5t-11.5 65.5t-32.5 53t-50.5 35.5t-65.5 13t-65.5 -13t-50.5 -35.5t-32.5 -53t-11.5 -65.5t11.5 -65.5t32.5 -53t50.5 -35.5t65.5 -13z" />
<glyph unicode="&#x151;" horiz-adv-x="577" d="M253 556h-100l80 144h135zM409 556h-100l80 144h135zM288 -12q-64 0 -114.5 20.5t-85 55.5t-53 81t-18.5 97t18.5 96.5t53 80.5t85 55.5t114.5 20.5t115 -20.5t85.5 -55.5t53 -80.5t18.5 -96.5t-18.5 -97t-53 -81t-85.5 -55.5t-115 -20.5zM288 147q42 0 64.5 27t22.5 68 q0 40 -22.5 67t-64.5 27t-64 -27t-22 -67q0 -41 22 -68t64 -27z" />
<glyph unicode="&#x152;" horiz-adv-x="1062" d="M526 0v36q-32 -25 -78.5 -36.5t-87.5 -11.5q-73 0 -135.5 25t-108.5 70t-72 108.5t-26 141.5t26 141.5t72 108.5t108.5 69.5t135.5 24.5q41 0 87.5 -11t78.5 -35v36h506v-176h-304v-66h297v-176h-297v-73h304v-176h-506zM526 430q-19 32 -54.5 50.5t-80.5 18.5 q-39 0 -70.5 -13t-53 -35.5t-33 -52.5t-11.5 -65t11.5 -65.5t33 -53t53 -35.5t70.5 -13q45 0 80.5 19.5t54.5 51.5v193z" />
<glyph unicode="&#x153;" horiz-adv-x="901" d="M561 186q5 -10 13.5 -21t22 -20t31.5 -15t42 -6q28 0 56 9.5t46 24.5l78 -110q-18 -15 -42.5 -26.5t-51.5 -19t-56 -11t-56 -3.5q-33 0 -59 6.5t-47.5 17t-39 24t-33.5 28.5q-30 -30 -72.5 -53t-104.5 -23q-64 0 -114.5 20.5t-85 55.5t-53 81t-18.5 97t18.5 96.5t53 80.5 t85 55.5t114.5 20.5q61 0 103.5 -23.5t74.5 -53.5q29 30 69.5 53.5t102.5 23.5q53 0 99 -18.5t79.5 -53.5t53 -85.5t19.5 -114.5v-37h-328zM718 300q-2 8 -6.5 18t-13.5 19t-23.5 15.5t-36.5 6.5q-21 0 -35 -6t-23 -15t-14 -19t-7 -19h159zM375 242q0 48 -25 71t-62 23 q-36 0 -61 -23t-25 -71t25 -72t61 -24q37 0 62 24t25 72z" />
<glyph unicode="&#x154;" horiz-adv-x="678" d="M401 723h-120l120 144h155zM421 0l-92 210h-73v-210h-202v667h356q58 0 103 -18t75.5 -49.5t46 -73t15.5 -88.5q0 -43 -11.5 -76.5t-29 -58t-38.5 -41t-41 -26.5l121 -236h-230zM379 386q26 0 46 12.5t20 40.5q0 27 -20 39.5t-46 12.5h-123v-105h123z" />
<glyph unicode="&#x155;" horiz-adv-x="390" d="M263 556h-120l120 144h155zM50 0v483h180v-53q11 13 28 25t36.5 21.5t41 15t42.5 5.5v-172q-15 5 -41 5q-29 0 -60.5 -8t-46.5 -26v-296h-180z" />
<glyph unicode="&#x156;" horiz-adv-x="678" d="M428 -139q0 -50 -25 -92t-69 -73l-55 44q9 4 19.5 12t20 18t17.5 21t11 22q-5 -3 -19 -3q-27 0 -46 18.5t-19 50.5q0 33 23 56t55 23q34 0 60.5 -25t26.5 -72zM421 0l-92 210h-73v-210h-202v667h356q58 0 103 -18t75.5 -49.5t46 -73t15.5 -88.5q0 -43 -11.5 -76.5 t-29 -58t-38.5 -41t-41 -26.5l121 -236h-230zM379 386q26 0 46 12.5t20 40.5q0 27 -20 39.5t-46 12.5h-123v-105h123z" />
<glyph unicode="&#x157;" horiz-adv-x="390" d="M280 -139q0 -50 -25 -92t-69 -73l-55 44q9 4 19.5 12t20 18t17.5 21t11 22q-5 -3 -19 -3q-27 0 -46 18.5t-19 50.5q0 33 23 56t55 23q34 0 60.5 -25t26.5 -72zM50 0v483h180v-53q11 13 28 25t36.5 21.5t41 15t42.5 5.5v-172q-15 5 -41 5q-29 0 -60.5 -8t-46.5 -26v-296 h-180z" />
<glyph unicode="&#x158;" horiz-adv-x="678" d="M266 723l-91 144h105l64 -73l61 73h105l-88 -144h-156zM421 0l-92 210h-73v-210h-202v667h356q58 0 103 -18t75.5 -49.5t46 -73t15.5 -88.5q0 -43 -11.5 -76.5t-29 -58t-38.5 -41t-41 -26.5l121 -236h-230zM379 386q26 0 46 12.5t20 40.5q0 27 -20 39.5t-46 12.5h-123 v-105h123z" />
<glyph unicode="&#x159;" horiz-adv-x="390" d="M137 556l-91 144h105l64 -73l61 73h105l-88 -144h-156zM50 0v483h180v-53q11 13 28 25t36.5 21.5t41 15t42.5 5.5v-172q-15 5 -41 5q-29 0 -60.5 -8t-46.5 -26v-296h-180z" />
<glyph unicode="&#x15a;" horiz-adv-x="613" d="M358 723h-120l120 144h155zM313 -12q-107 0 -181.5 29t-128.5 77l105 150q38 -36 92.5 -61t122.5 -25q29 0 51.5 8t22.5 28q0 16 -27.5 23.5t-69 14.5t-89.5 18.5t-89.5 35t-69 64t-27.5 106.5q0 42 17.5 82t52.5 71t86.5 49.5t120.5 18.5q82 0 154 -23t129 -70 l-108 -143q-44 33 -96 49.5t-100 16.5q-30 0 -40.5 -8.5t-10.5 -21.5q0 -16 27.5 -24t68.5 -15.5t89.5 -19.5t89.5 -35t68.5 -62t27.5 -101q0 -55 -20 -98t-57 -73t-90.5 -45.5t-120.5 -15.5z" />
<glyph unicode="&#x15b;" horiz-adv-x="490" d="M296 556h-120l120 144h155zM246 -12q-33 0 -67 5.5t-65.5 15.5t-58.5 23.5t-46 29.5l72 121q14 -11 35.5 -22t45.5 -19.5t48.5 -14t44.5 -5.5q28 0 38 6t10 15q0 11 -20.5 15.5t-50.5 9t-66 11.5t-66 24t-50.5 47t-20.5 80q0 33 14 62.5t41.5 52.5t67.5 36.5t93 13.5 q61 0 114 -17t95 -45l-66 -117q-23 19 -61.5 34.5t-80.5 15.5q-20 0 -32.5 -6.5t-12.5 -14.5q0 -10 20.5 -14t50.5 -8.5t66 -12.5t66 -26t50.5 -49t20.5 -81q0 -36 -15.5 -66.5t-45 -52.5t-72 -34.5t-96.5 -12.5z" />
<glyph unicode="&#x15c;" horiz-adv-x="613" d="M362 723l-64 73l-61 -73h-105l88 144h156l91 -144h-105zM313 -12q-107 0 -181.5 29t-128.5 77l105 150q38 -36 92.5 -61t122.5 -25q29 0 51.5 8t22.5 28q0 16 -27.5 23.5t-69 14.5t-89.5 18.5t-89.5 35t-69 64t-27.5 106.5q0 42 17.5 82t52.5 71t86.5 49.5t120.5 18.5 q82 0 154 -23t129 -70l-108 -143q-44 33 -96 49.5t-100 16.5q-30 0 -40.5 -8.5t-10.5 -21.5q0 -16 27.5 -24t68.5 -15.5t89.5 -19.5t89.5 -35t68.5 -62t27.5 -101q0 -55 -20 -98t-57 -73t-90.5 -45.5t-120.5 -15.5z" />
<glyph unicode="&#x15d;" horiz-adv-x="490" d="M308 556l-64 73l-61 -73h-105l88 144h156l91 -144h-105zM246 -12q-33 0 -67 5.5t-65.5 15.5t-58.5 23.5t-46 29.5l72 121q14 -11 35.5 -22t45.5 -19.5t48.5 -14t44.5 -5.5q28 0 38 6t10 15q0 11 -20.5 15.5t-50.5 9t-66 11.5t-66 24t-50.5 47t-20.5 80q0 33 14 62.5 t41.5 52.5t67.5 36.5t93 13.5q61 0 114 -17t95 -45l-66 -117q-23 19 -61.5 34.5t-80.5 15.5q-20 0 -32.5 -6.5t-12.5 -14.5q0 -10 20.5 -14t50.5 -8.5t66 -12.5t66 -26t50.5 -49t20.5 -81q0 -36 -15.5 -66.5t-45 -52.5t-72 -34.5t-96.5 -12.5z" />
<glyph unicode="&#x15e;" horiz-adv-x="613" d="M296 -200q-40 0 -71 10t-48 24l31 64q20 -14 41 -22t42 -8q16 0 29 5.5t13 18.5q0 17 -21 17q-16 0 -26 -12l-59 34l22 61q-81 8 -141 34.5t-105 67.5l105 150q38 -36 92.5 -61t122.5 -25q29 0 51.5 8t22.5 28q0 16 -27.5 23.5t-69 14.5t-89.5 18.5t-89.5 35t-69 64 t-27.5 106.5q0 42 17.5 82t52.5 71t86.5 49.5t120.5 18.5q82 0 154 -23t129 -70l-108 -143q-44 33 -96 49.5t-100 16.5q-30 0 -40.5 -8.5t-10.5 -21.5q0 -16 27.5 -24t68.5 -15.5t89.5 -19.5t89.5 -35t68.5 -62t27.5 -101q0 -108 -72.5 -168t-201.5 -64l-15 -35q15 9 34 9 q27 0 47.5 -20.5t20.5 -52.5q0 -43 -35 -66t-83 -23z" />
<glyph unicode="&#x15f;" horiz-adv-x="490" d="M245 -200q-40 0 -71 10t-48 24l31 64q20 -14 41 -22t42 -8q16 0 29 5.5t13 18.5q0 17 -21 17q-16 0 -26 -12l-59 34l22 60q-56 6 -106.5 25t-82.5 46l72 121q14 -11 35.5 -22t45.5 -19.5t48.5 -14t44.5 -5.5q28 0 38 6t10 15q0 11 -20.5 15.5t-50.5 9t-66 11.5t-66 24 t-50.5 47t-20.5 80q0 33 14 62.5t41.5 52.5t67.5 36.5t93 13.5q61 0 114 -17t95 -45l-66 -117q-23 19 -61.5 34.5t-80.5 15.5q-20 0 -32.5 -6.5t-12.5 -14.5q0 -10 20.5 -14t50.5 -8.5t66 -12.5t66 -26t50.5 -49t20.5 -81q0 -67 -52.5 -112t-146.5 -53l-15 -36q15 9 34 9 q27 0 47.5 -20.5t20.5 -52.5q0 -43 -35 -66t-83 -23z" />
<glyph unicode="&#x160;" horiz-adv-x="613" d="M223 723l-91 144h105l64 -73l61 73h105l-88 -144h-156zM313 -12q-107 0 -181.5 29t-128.5 77l105 150q38 -36 92.5 -61t122.5 -25q29 0 51.5 8t22.5 28q0 16 -27.5 23.5t-69 14.5t-89.5 18.5t-89.5 35t-69 64t-27.5 106.5q0 42 17.5 82t52.5 71t86.5 49.5t120.5 18.5 q82 0 154 -23t129 -70l-108 -143q-44 33 -96 49.5t-100 16.5q-30 0 -40.5 -8.5t-10.5 -21.5q0 -16 27.5 -24t68.5 -15.5t89.5 -19.5t89.5 -35t68.5 -62t27.5 -101q0 -55 -20 -98t-57 -73t-90.5 -45.5t-120.5 -15.5z" />
<glyph unicode="&#x161;" horiz-adv-x="490" d="M169 556l-91 144h105l64 -73l61 73h105l-88 -144h-156zM246 -12q-33 0 -67 5.5t-65.5 15.5t-58.5 23.5t-46 29.5l72 121q14 -11 35.5 -22t45.5 -19.5t48.5 -14t44.5 -5.5q28 0 38 6t10 15q0 11 -20.5 15.5t-50.5 9t-66 11.5t-66 24t-50.5 47t-20.5 80q0 33 14 62.5 t41.5 52.5t67.5 36.5t93 13.5q61 0 114 -17t95 -45l-66 -117q-23 19 -61.5 34.5t-80.5 15.5q-20 0 -32.5 -6.5t-12.5 -14.5q0 -10 20.5 -14t50.5 -8.5t66 -12.5t66 -26t50.5 -49t20.5 -81q0 -36 -15.5 -66.5t-45 -52.5t-72 -34.5t-96.5 -12.5z" />
<glyph unicode="&#x162;" horiz-adv-x="595" d="M383 -139q0 -50 -25 -92t-69 -73l-55 44q9 4 19.5 12t20 18t17.5 21t11 22q-5 -3 -19 -3q-27 0 -46 18.5t-19 50.5q0 33 23 56t55 23q34 0 60.5 -25t26.5 -72zM197 0v491h-179v176h559v-176h-178v-491h-202z" />
<glyph unicode="&#x163;" horiz-adv-x="382" d="M276 -139q0 -50 -25 -92t-69 -73l-55 44q9 4 19.5 12t20 18t17.5 21t11 22q-5 -3 -19 -3q-27 0 -46 18.5t-19 50.5q0 33 23 56t55 23q34 0 60.5 -25t26.5 -72zM253 -12q-81 0 -123.5 38t-42.5 114v187h-80v156h80v132h180v-132h98v-156h-98v-135q0 -19 11 -32t29 -13 q12 0 22.5 3t13.5 6l32 -136q-14 -13 -45 -22.5t-77 -9.5z" />
<glyph unicode="&#x164;" horiz-adv-x="595" d="M221 723l-91 144h105l64 -73l61 73h105l-88 -144h-156zM197 0v491h-179v176h559v-176h-178v-491h-202z" />
<glyph unicode="&#x165;" horiz-adv-x="447" d="M478 688q0 -50 -25 -92t-69 -73l-55 44q9 4 19.5 12t20 18t17.5 21t11 22q-5 -3 -19 -3q-27 0 -46 18.5t-19 50.5q0 33 23 56t55 23q34 0 60.5 -25t26.5 -72zM253 -12q-81 0 -123.5 38t-42.5 114v187h-80v156h80v132h180v-132h98v-156h-98v-135q0 -19 11 -32t29 -13 q12 0 22.5 3t13.5 6l32 -136q-14 -13 -45 -22.5t-77 -9.5z" />
<glyph unicode="&#x166;" horiz-adv-x="595" d="M197 0v231h-116v97h116v163h-179v176h559v-176h-178v-163h118v-97h-118v-231h-202z" />
<glyph unicode="&#x167;" horiz-adv-x="382" d="M253 -12q-81 0 -123.5 38t-42.5 114v51h-80v97h80v39h-80v156h80v132h180v-132h98v-156h-98v-39h67v-97h-67q0 -19 11 -31.5t29 -12.5q12 0 22.5 3t13.5 6l32 -136q-14 -13 -45 -22.5t-77 -9.5z" />
<glyph unicode="&#x168;" horiz-adv-x="767" d="M384 -12q-84 0 -146.5 21.5t-103 59.5t-60.5 90.5t-20 114.5v393h205v-386q0 -48 31 -81.5t94 -33.5q62 0 93 33.5t31 81.5v386h205v-392q0 -62 -20 -115t-60.5 -91t-102.5 -59.5t-146 -21.5zM438 721q-23 0 -39.5 6.5t-28.5 15t-22 15t-20 6.5t-17 -9t-7 -28h-89 q0 69 30 101.5t88 32.5q23 0 39.5 -6.5t28.5 -15t22 -15t20 -6.5t17 9t7 28h89q0 -69 -30 -101.5t-88 -32.5z" />
<glyph unicode="&#x169;" horiz-adv-x="606" d="M376 0v54q-11 -12 -26 -23.5t-35.5 -21t-46.5 -15.5t-58 -6q-42 0 -72.5 12t-50 32t-28.5 47.5t-9 58.5v345h180v-268q0 -37 18.5 -52.5t51.5 -15.5q30 0 47.5 12.5t28.5 25.5v298h180v-483h-180zM356 554q-23 0 -39.5 6.5t-28.5 15t-22 15t-20 6.5t-17 -9t-7 -28h-89 q0 69 30 101.5t88 32.5q23 0 39.5 -6.5t28.5 -15t22 -15t20 -6.5t17 9t7 28h89q0 -69 -30 -101.5t-88 -32.5z" />
<glyph unicode="&#x16a;" horiz-adv-x="767" d="M384 -12q-84 0 -146.5 21.5t-103 59.5t-60.5 90.5t-20 114.5v393h205v-386q0 -48 31 -81.5t94 -33.5q62 0 93 33.5t31 81.5v386h205v-392q0 -62 -20 -115t-60.5 -91t-102.5 -59.5t-146 -21.5zM205 718v97h363v-97h-363z" />
<glyph unicode="&#x16b;" horiz-adv-x="606" d="M376 0v54q-11 -12 -26 -23.5t-35.5 -21t-46.5 -15.5t-58 -6q-42 0 -72.5 12t-50 32t-28.5 47.5t-9 58.5v345h180v-268q0 -37 18.5 -52.5t51.5 -15.5q30 0 47.5 12.5t28.5 25.5v298h180v-483h-180zM121 551v97h363v-97h-363z" />
<glyph unicode="&#x16c;" horiz-adv-x="767" d="M384 -12q-84 0 -146.5 21.5t-103 59.5t-60.5 90.5t-20 114.5v393h205v-386q0 -48 31 -81.5t94 -33.5q62 0 93 33.5t31 81.5v386h205v-392q0 -62 -20 -115t-60.5 -91t-102.5 -59.5t-146 -21.5zM561 779q-30 -41 -75.5 -64.5t-99.5 -23.5t-99.5 23.5t-76.5 64.5l76 62 q17 -23 42 -38t58 -15q63 0 100 53l75 -62v0z" />
<glyph unicode="&#x16d;" horiz-adv-x="606" d="M376 0v54q-11 -12 -26 -23.5t-35.5 -21t-46.5 -15.5t-58 -6q-42 0 -72.5 12t-50 32t-28.5 47.5t-9 58.5v345h180v-268q0 -37 18.5 -52.5t51.5 -15.5q30 0 47.5 12.5t28.5 25.5v298h180v-483h-180zM481 612q-30 -41 -75.5 -64.5t-99.5 -23.5t-99.5 23.5t-76.5 64.5l76 62 q17 -23 42 -38t58 -15q63 0 100 53l75 -62v0z" />
<glyph unicode="&#x16e;" horiz-adv-x="767" d="M387 686q-23 0 -43.5 9t-35.5 24t-24 35.5t-9 43.5t9 43.5t24 35.5t35.5 24t43.5 9t43 -9t35 -24t23.5 -35.5t8.5 -43.5t-8.5 -43.5t-23.5 -35.5t-35 -24t-43 -9zM387 763q14 0 24 10.5t10 24.5t-10 24.5t-24 10.5t-24.5 -10.5t-10.5 -24.5t10.5 -24.5t24.5 -10.5z M384 -12q-84 0 -146.5 21.5t-103 59.5t-60.5 90.5t-20 114.5v393h205v-386q0 -48 31 -81.5t94 -33.5q62 0 93 33.5t31 81.5v386h205v-392q0 -62 -20 -115t-60.5 -91t-102.5 -59.5t-146 -21.5z" />
<glyph unicode="&#x16f;" horiz-adv-x="606" d="M304 519q-23 0 -43.5 9t-35.5 24t-24 35.5t-9 43.5t9 43.5t24 35.5t35.5 24t43.5 9t43 -9t35 -24t23.5 -35.5t8.5 -43.5t-8.5 -43.5t-23.5 -35.5t-35 -24t-43 -9zM304 596q14 0 24 10.5t10 24.5t-10 24.5t-24 10.5t-24.5 -10.5t-10.5 -24.5t10.5 -24.5t24.5 -10.5zM376 0 v54q-11 -12 -26 -23.5t-35.5 -21t-46.5 -15.5t-58 -6q-42 0 -72.5 12t-50 32t-28.5 47.5t-9 58.5v345h180v-268q0 -37 18.5 -52.5t51.5 -15.5q30 0 47.5 12.5t28.5 25.5v298h180v-483h-180z" />
<glyph unicode="&#x170;" horiz-adv-x="767" d="M384 -12q-84 0 -146.5 21.5t-103 59.5t-60.5 90.5t-20 114.5v393h205v-386q0 -48 31 -81.5t94 -33.5q62 0 93 33.5t31 81.5v386h205v-392q0 -62 -20 -115t-60.5 -91t-102.5 -59.5t-146 -21.5zM351 723h-100l80 144h135zM507 723h-100l80 144h135z" />
<glyph unicode="&#x171;" horiz-adv-x="606" d="M376 0v54q-11 -12 -26 -23.5t-35.5 -21t-46.5 -15.5t-58 -6q-42 0 -72.5 12t-50 32t-28.5 47.5t-9 58.5v345h180v-268q0 -37 18.5 -52.5t51.5 -15.5q30 0 47.5 12.5t28.5 25.5v298h180v-483h-180zM267 556h-100l80 144h135zM423 556h-100l80 144h135z" />
<glyph unicode="&#x172;" horiz-adv-x="767" d="M562 -133q-17 -25 -41.5 -39t-59.5 -14q-21 0 -41 5.5t-35.5 16.5t-24.5 29t-9 43q0 44 28 80q-83 1 -144.5 22.5t-101.5 59.5t-59.5 90t-19.5 114v393h205v-386q0 -48 31 -81.5t94 -33.5q62 0 93 33.5t31 81.5v386h205v-392q0 -51 -13 -95.5t-40 -80t-67.5 -61 t-95.5 -38.5q-37 -19 -51 -40.5t-14 -43.5q0 -20 10 -27t19 -7q14 0 22 8.5t13 19.5z" />
<glyph unicode="&#x173;" horiz-adv-x="606" d="M556 0q-37 -19 -51 -40.5t-14 -43.5q0 -20 10 -27t19 -7q14 0 22 8.5t13 19.5l66 -43q-17 -25 -41.5 -39t-59.5 -14q-21 0 -41 5.5t-35.5 16.5t-24.5 29t-9 43q0 53 39 92h-73v54q-11 -12 -26 -23.5t-35.5 -21t-46.5 -15.5t-58 -6q-42 0 -72.5 12t-50 32t-28.5 47.5 t-9 58.5v345h180v-268q0 -37 18.5 -52.5t51.5 -15.5q30 0 47.5 12.5t28.5 25.5v298h180v-483v0z" />
<glyph unicode="&#x174;" horiz-adv-x="954" d="M540 723l-64 73l-61 -73h-105l88 144h156l91 -144h-105zM563 0l-86 378l-86 -378h-212l-191 667h226l86 -408l101 408h152l101 -408l85 408h227l-191 -667h-212z" />
<glyph unicode="&#x175;" horiz-adv-x="805" d="M465 556l-64 73l-61 -73h-105l88 144h156l91 -144h-105zM481 0l-79 270l-78 -270h-196l-140 483h185l64 -266l85 266h161l84 -266l64 266h186l-140 -483h-196z" />
<glyph unicode="&#x176;" horiz-adv-x="664" d="M397 723l-64 73l-61 -73h-105l88 144h156l91 -144h-105zM232 0v265l-250 402h227l124 -225l122 225h227l-248 -402v-265h-202z" />
<glyph unicode="&#x177;" horiz-adv-x="535" d="M70 -28q8 -5 18.5 -7t19.5 -2q54 0 63 19l4 10l-190 491h190l92 -276l93 276h190l-210 -543q-16 -42 -39 -68t-51.5 -41t-62.5 -20.5t-72 -6.5q-5 0 -14 0.5t-19.5 1.5t-20.5 2.5t-16 3.5zM330 556l-64 73l-61 -73h-105l88 144h156l91 -144h-105z" />
<glyph unicode="&#x178;" horiz-adv-x="664" d="M531 785q0 -38 -26 -63.5t-64 -25.5q-37 0 -63 25.5t-26 63.5t26 63.5t63 25.5q38 0 64 -25.5t26 -63.5zM314 785q0 -38 -25.5 -63.5t-63.5 -25.5t-63.5 25.5t-25.5 63.5t25.5 63.5t63.5 25.5t63.5 -25.5t25.5 -63.5zM232 0v265l-250 402h227l124 -225l122 225h227 l-248 -402v-265h-202z" />
<glyph unicode="&#x179;" horiz-adv-x="600" d="M300 723h-120l120 144h155zM36 0v160l254 331h-254v176h521v-159l-255 -332h262v-176h-528z" />
<glyph unicode="&#x17a;" horiz-adv-x="486" d="M294 556h-120l120 144h155zM33 0v132l170 195h-170v156h416v-126l-174 -201h178v-156h-420z" />
<glyph unicode="&#x17b;" horiz-adv-x="600" d="M36 0v160l254 331h-254v176h521v-159l-255 -332h262v-176h-528zM292 697q-37 0 -63 26t-26 63t26 63t63 26q18 0 34 -7t28 -19t19 -28.5t7 -34.5t-7 -34.5t-19 -28.5t-28 -19t-34 -7z" />
<glyph unicode="&#x17c;" horiz-adv-x="486" d="M33 0v132l170 195h-170v156h416v-126l-174 -201h178v-156h-420zM241 530q-37 0 -63 26t-26 63t26 63t63 26q18 0 34 -7t28 -19t19 -28.5t7 -34.5t-7 -34.5t-19 -28.5t-28 -19t-34 -7z" />
<glyph unicode="&#x17d;" horiz-adv-x="600" d="M224 723l-91 144h105l64 -73l61 73h105l-88 -144h-156zM36 0v160l254 331h-254v176h521v-159l-255 -332h262v-176h-528z" />
<glyph unicode="&#x17e;" horiz-adv-x="486" d="M161 556l-91 144h105l64 -73l61 73h105l-88 -144h-156zM33 0v132l170 195h-170v156h416v-126l-174 -201h178v-156h-420z" />
<glyph unicode="&#x17f;" horiz-adv-x="371" d="M87 0v327h-80v156h80v22q0 38 13.5 69.5t38 54.5t58.5 35.5t74 12.5q42 0 83.5 -12.5t67.5 -39.5l-65 -100q-16 19 -47 19q-15 0 -29 -10.5t-14 -28.5v-505h-180z" />
<glyph unicode="&#x192;" horiz-adv-x="477" d="M-10 -161l85 384h-40v156h74l28 127q8 37 29 68.5t50.5 54.5t66 35.5t76.5 12.5q42 0 78.5 -10.5t62.5 -38.5l-71 -147q-15 20 -43 20q-17 0 -32 -10.5t-20 -31.5l-18 -80h87v-156h-121l-86 -384h-206z" />
<glyph unicode="&#x1a0;" horiz-adv-x="766" d="M383 -12q-77 0 -144 25t-116 70.5t-77 109t-28 140.5t28 140.5t77 109t116 70.5t144 25q81 0 150.5 -27.5t119.5 -78.5q13 10 25 24.5t17 28.5q-5 -3 -17 -3q-24 0 -40.5 16.5t-16.5 44.5q0 29 20 49t48 20q30 0 53 -22t23 -63q0 -42 -20 -77.5t-55 -61.5 q28 -41 43 -89.5t15 -105.5q0 -77 -28 -140.5t-77 -109t-116 -70.5t-144 -25zM383 166q36 0 65.5 13t50.5 35.5t32.5 53t11.5 65.5t-11.5 65.5t-32.5 53t-50.5 35.5t-65.5 13t-65.5 -13t-50.5 -35.5t-32.5 -53t-11.5 -65.5t11.5 -65.5t32.5 -53t50.5 -35.5t65.5 -13z" />
<glyph unicode="&#x1a1;" horiz-adv-x="577" d="M577 534q0 -40 -19 -74.5t-52 -61.5q54 -68 54 -156q0 -51 -18.5 -97t-53 -81t-85.5 -55.5t-115 -20.5t-114.5 20.5t-85 55.5t-53 81t-18.5 97t18.5 96.5t53 80.5t85 55.5t114.5 20.5q54 0 98.5 -14.5t78.5 -40.5q13 10 25 24t17 28q-5 -3 -17 -3q-24 0 -40.5 16.5 t-16.5 44.5q0 29 20 49t48 20q30 0 53 -22t23 -63zM288 147q42 0 64.5 27t22.5 68q0 40 -22.5 67t-64.5 27t-64 -27t-22 -67q0 -41 22 -68t64 -27z" />
<glyph unicode="&#x1af;" horiz-adv-x="767" d="M817 725q0 -42 -25 -85.5t-79 -72.5v-292q0 -62 -20 -115t-60.5 -91t-102.5 -59.5t-146 -21.5t-146.5 21.5t-103 59.5t-60.5 90.5t-20 114.5v393h205v-386q0 -48 31 -81.5t94 -33.5q62 0 93 33.5t31 81.5v386h205v-30q11 10 20 22t14 24q-5 -3 -17 -3q-24 0 -40.5 16.5 t-16.5 44.5q0 29 20 49t48 20q30 0 53 -22t23 -63z" />
<glyph unicode="&#x1b0;" horiz-adv-x="606" d="M376 0v54q-11 -12 -26 -23.5t-35.5 -21t-46.5 -15.5t-58 -6q-42 0 -72.5 12t-50 32t-28.5 47.5t-9 58.5v345h180v-268q0 -37 18.5 -52.5t51.5 -15.5q30 0 47.5 12.5t28.5 25.5v298h163q12 13 18 29q-5 -3 -17 -3q-24 0 -40.5 16.5t-16.5 44.5q0 29 20 49t48 20 q30 0 53 -22t23 -63q0 -34 -17 -71t-54 -66v-417h-180z" />
<glyph unicode="&#x1fc;" horiz-adv-x="989" d="M605 723h-120l120 144h155zM453 0v78h-207l-41 -78h-230l395 667h589v-176h-304v-66h297v-176h-297v-73h304v-176h-506zM453 469l-113 -215h113v215z" />
<glyph unicode="&#x1fd;" horiz-adv-x="851" d="M473 556h-120l120 144h155zM520 186q10 -20 34 -38.5t70 -18.5q27 0 54 9.5t44 24.5l78 -115q-18 -15 -42 -26.5t-50.5 -19t-53.5 -11t-51 -3.5q-53 0 -96 15.5t-79 49.5q-33 -28 -84 -46.5t-114 -18.5q-44 0 -82.5 9t-67.5 28t-46 48.5t-17 70.5q0 40 13.5 70t37 49 t54 28.5t64.5 9.5q46 0 88 -13.5t64 -38.5v49q0 25 -23.5 42t-70.5 17q-35 0 -72 -12t-67 -35l-61 112q49 39 111 56t117 17q59 0 95.5 -16t60.5 -43q27 24 67 41.5t103 17.5q49 0 93 -18.5t77 -53.5t52 -85.5t19 -114.5v-37h-319zM668 300q-2 8 -6.5 18t-13 19t-22 15 t-34.5 6q-19 0 -32 -6t-21.5 -14.5t-13.5 -18.5t-7 -19h150zM338 157q-10 13 -31.5 20t-44.5 7q-24 0 -45.5 -8.5t-21.5 -26.5q0 -9 5.5 -15.5t14 -10.5t18 -6t18.5 -2q37 0 62 12.5t25 26.5v3z" />
<glyph unicode="&#x1fe;" horiz-adv-x="766" d="M432 723h-120l120 144h155zM383 -12q-110 0 -196 49l-31 -37h-138l87 102q-42 45 -64.5 103t-22.5 128q0 77 28 140.5t77 109t116 70.5t144 25q49 0 93.5 -10.5t84.5 -29.5l25 29h138l-76 -90q47 -45 73.5 -107t26.5 -137q0 -77 -28 -140.5t-77 -109t-116 -70.5t-144 -25 zM383 166q36 0 65.5 13t50.5 35.5t32.5 53t11.5 65.5q0 51 -25 92l-207 -243q34 -16 72 -16zM223 333q0 -42 15 -75l198 233q-24 9 -53 9q-36 0 -65.5 -13t-50.5 -35.5t-32.5 -53t-11.5 -65.5z" />
<glyph unicode="&#x1ff;" horiz-adv-x="577" d="M338 556h-120l120 144h155zM17 0l64 71q-32 35 -48 79t-16 92q0 51 18.5 96.5t53 80.5t85 55.5t114.5 20.5q43 0 79.5 -9t66.5 -26l21 23h105l-65 -71q32 -35 48.5 -78.5t16.5 -91.5q0 -51 -18.5 -97t-53 -81t-85.5 -55.5t-115 -20.5q-44 0 -80.5 9.5t-66.5 26.5l-22 -24 h-102zM288 147q42 0 64.5 27t22.5 68q0 16 -5 33l-113 -123q15 -5 31 -5zM202 242q0 -20 4 -33l111 123q-12 4 -29 4q-42 0 -64 -27t-22 -67z" />
<glyph unicode="&#x218;" horiz-adv-x="613" d="M389 -139q0 -50 -25 -92t-69 -73l-55 44q9 4 19.5 12t20 18t17.5 21t11 22q-5 -3 -19 -3q-27 0 -46 18.5t-19 50.5q0 33 23 56t55 23q34 0 60.5 -25t26.5 -72zM313 -12q-107 0 -181.5 29t-128.5 77l105 150q38 -36 92.5 -61t122.5 -25q29 0 51.5 8t22.5 28 q0 16 -27.5 23.5t-69 14.5t-89.5 18.5t-89.5 35t-69 64t-27.5 106.5q0 42 17.5 82t52.5 71t86.5 49.5t120.5 18.5q82 0 154 -23t129 -70l-108 -143q-44 33 -96 49.5t-100 16.5q-30 0 -40.5 -8.5t-10.5 -21.5q0 -16 27.5 -24t68.5 -15.5t89.5 -19.5t89.5 -35t68.5 -62 t27.5 -101q0 -55 -20 -98t-57 -73t-90.5 -45.5t-120.5 -15.5z" />
<glyph unicode="&#x219;" horiz-adv-x="490" d="M336 -139q0 -50 -25 -92t-69 -73l-55 44q9 4 19.5 12t20 18t17.5 21t11 22q-5 -3 -19 -3q-27 0 -46 18.5t-19 50.5q0 33 23 56t55 23q34 0 60.5 -25t26.5 -72zM246 -12q-33 0 -67 5.5t-65.5 15.5t-58.5 23.5t-46 29.5l72 121q14 -11 35.5 -22t45.5 -19.5t48.5 -14 t44.5 -5.5q28 0 38 6t10 15q0 11 -20.5 15.5t-50.5 9t-66 11.5t-66 24t-50.5 47t-20.5 80q0 33 14 62.5t41.5 52.5t67.5 36.5t93 13.5q61 0 114 -17t95 -45l-66 -117q-23 19 -61.5 34.5t-80.5 15.5q-20 0 -32.5 -6.5t-12.5 -14.5q0 -10 20.5 -14t50.5 -8.5t66 -12.5t66 -26 t50.5 -49t20.5 -81q0 -36 -15.5 -66.5t-45 -52.5t-72 -34.5t-96.5 -12.5z" />
<glyph unicode="&#x21a;" horiz-adv-x="595" d="M383 -139q0 -50 -25 -92t-69 -73l-55 44q9 4 19.5 12t20 18t17.5 21t11 22q-5 -3 -19 -3q-27 0 -46 18.5t-19 50.5q0 33 23 56t55 23q34 0 60.5 -25t26.5 -72zM197 0v491h-179v176h559v-176h-178v-491h-202z" />
<glyph unicode="&#x21b;" horiz-adv-x="382" d="M276 -139q0 -50 -25 -92t-69 -73l-55 44q9 4 19.5 12t20 18t17.5 21t11 22q-5 -3 -19 -3q-27 0 -46 18.5t-19 50.5q0 33 23 56t55 23q34 0 60.5 -25t26.5 -72zM253 -12q-81 0 -123.5 38t-42.5 114v187h-80v156h80v132h180v-132h98v-156h-98v-135q0 -19 11 -32t29 -13 q12 0 22.5 3t13.5 6l32 -136q-14 -13 -45 -22.5t-77 -9.5z" />
<glyph unicode="&#x237;" horiz-adv-x="280" d="M29 -196q-27 0 -46 2t-34 5.5t-27.5 10t-27.5 15.5l43 145q15 -11 27 -15t33 -4q25 0 39 16t14 42v462h180v-462q0 -47 -11.5 -86.5t-36.5 -68.5t-63 -45.5t-90 -16.5z" />
<glyph unicode="&#x2b0;" horiz-adv-x="424" d="M257 326v174q0 23 -12 32t-33 9q-18 0 -28.5 -7t-17.5 -14v-194h-126v434h126v-154q14 15 39.5 28.5t70.5 13.5q57 0 82.5 -29.5t25.5 -70.5v-222h-127z" />
<glyph unicode="&#x2bc;" horiz-adv-x="281" d="M254 548q0 -66 -33 -122t-92 -98l-73 59q12 5 26 15.5t26.5 23.5t23 28t15.5 29q-10 -4 -26 -4q-36 0 -61.5 25.5t-25.5 67.5q0 22 8.5 41t22.5 33t33 22.5t40 8.5q23 0 44 -8.5t37 -25t25.5 -40.5t9.5 -55z" />
<glyph unicode="&#x2c6;" horiz-adv-x="335" d="M230 556l-64 73l-61 -73h-105l88 144h156l91 -144h-105z" />
<glyph unicode="&#x2c7;" horiz-adv-x="335" d="M91 556l-91 144h105l64 -73l61 73h105l-88 -144h-156z" />
<glyph unicode="&#x2c9;" horiz-adv-x="363" d="M0 591v97h363v-97h-363z" />
<glyph unicode="&#x2cb;" horiz-adv-x="275" d="M155 556l-155 144h155l120 -144h-120z" />
<glyph unicode="&#x2d8;" horiz-adv-x="351" d="M351 612q-30 -41 -75.5 -64.5t-99.5 -23.5t-99.5 23.5t-76.5 64.5l76 62q17 -23 42 -38t58 -15q63 0 100 53l75 -62v0z" />
<glyph unicode="&#x2d9;" horiz-adv-x="237" d="M119 530q-37 0 -63 26t-26 63t26 63t63 26q18 0 34 -7t28 -19t19 -28.5t7 -34.5t-7 -34.5t-19 -28.5t-28 -19t-34 -7z" />
<glyph unicode="&#x2da;" horiz-adv-x="222" d="M112 519q-23 0 -43.5 9t-35.5 24t-24 35.5t-9 43.5t9 43.5t24 35.5t35.5 24t43.5 9t43 -9t35 -24t23.5 -35.5t8.5 -43.5t-8.5 -43.5t-23.5 -35.5t-35 -24t-43 -9zM112 596q14 0 24 10.5t10 24.5t-10 24.5t-24 10.5t-24.5 -10.5t-10.5 -24.5t10.5 -24.5t24.5 -10.5z" />
<glyph unicode="&#x2db;" horiz-adv-x="211" d="M211 -133q-17 -25 -41.5 -39t-59.5 -14q-21 0 -41 5.5t-35.5 16.5t-24.5 29t-9 43q0 41 22.5 72.5t66.5 56.5l57 -37q-37 -19 -51 -40.5t-14 -43.5q0 -20 10 -27t19 -7q14 0 22 8.5t13 19.5z" />
<glyph unicode="&#x2dc;" horiz-adv-x="341" d="M223 554q-23 0 -39.5 6.5t-28.5 15t-22 15t-20 6.5t-17 -9t-7 -28h-89q0 69 30 101.5t88 32.5q23 0 39.5 -6.5t28.5 -15t22 -15t20 -6.5t17 9t7 28h89q0 -69 -30 -101.5t-88 -32.5z" />
<glyph unicode="&#x2dd;" horiz-adv-x="371" d="M100 556h-100l80 144h135zM256 556h-100l80 144h135z" />
<glyph unicode="&#x309;" horiz-adv-x="211" d="M15 732q11 31 34.5 44.5t51.5 13.5q35 0 61.5 -17.5t26.5 -57.5q0 -14 -3.5 -25.5t-8.5 -22.5h-70q17 18 17 44q0 14 -7.5 19.5t-15.5 5.5q-11 0 -17.5 -7t-10.5 -16z" />
<glyph unicode="&#x37e;" horiz-adv-x="281" d="M141 276q-22 0 -41.5 8.5t-34 23.5t-23 34.5t-8.5 41.5t8.5 41t23 33.5t34 23t41.5 8.5t41.5 -8.5t34 -23t23 -33.5t8.5 -41t-8.5 -41.5t-23 -34.5t-34 -23.5t-41.5 -8.5zM254 74q0 -66 -33 -122t-92 -98l-73 59q12 5 26 15.5t26.5 23.5t23 28t15.5 29q-10 -4 -26 -4 q-36 0 -61.5 25.5t-25.5 67.5q0 22 8.5 41t22.5 33t33 22.5t40 8.5q23 0 44 -8.5t37 -25t25.5 -40.5t9.5 -55z" />
<glyph unicode="&#x384;" horiz-adv-x="252" d="M119 541l22 224h134l-82 -224h-74z" />
<glyph unicode="&#x385;" horiz-adv-x="607" d="M244 541l22 224h135l-82 -224h-75zM558 618q0 -38 -26 -63.5t-64 -25.5q-37 0 -63 25.5t-26 63.5t26 63.5t63 25.5q38 0 64 -25.5t26 -63.5zM226 618q0 -38 -25.5 -63.5t-63.5 -25.5t-63.5 25.5t-25.5 63.5t25.5 63.5t63.5 25.5t63.5 -25.5t25.5 -63.5z" />
<glyph unicode="&#x386;" horiz-adv-x="710" d="M75 541l22 224h134l-82 -224h-74zM499 0l-24 78h-240l-24 -78h-229l246 667h254l246 -667h-229zM355 469l-66 -215h132z" />
<glyph unicode="&#x388;" horiz-adv-x="652" d="M-21 541l22 224h134l-82 -224h-74zM110 0v667h506v-176h-304v-66h297v-176h-297v-73h304v-176h-506z" />
<glyph unicode="&#x389;" horiz-adv-x="807" d="M-21 541l22 224h134l-82 -224h-74zM551 0v255h-239v-255h-202v667h202v-236h239v236h202v-667h-202z" />
<glyph unicode="&#x38a;" horiz-adv-x="366" d="M-21 541l22 224h134l-82 -224h-74zM110 0v667h202v-667h-202z" />
<glyph unicode="&#x38c;" horiz-adv-x="766" d="M-21 541l22 224h134l-82 -224h-74zM383 -12q-77 0 -144 25t-116 70.5t-77 109t-28 140.5t28 140.5t77 109t116 70.5t144 25t144 -25t116 -70.5t77 -109t28 -140.5t-28 -140.5t-77 -109t-116 -70.5t-144 -25zM383 166q36 0 65.5 13t50.5 35.5t32.5 53t11.5 65.5 t-11.5 65.5t-32.5 53t-50.5 35.5t-65.5 13t-65.5 -13t-50.5 -35.5t-32.5 -53t-11.5 -65.5t11.5 -65.5t32.5 -53t50.5 -35.5t65.5 -13z" />
<glyph unicode="&#x38e;" horiz-adv-x="775" d="M-21 541l22 224h134l-82 -224h-74zM343 0v265l-250 402h227l124 -225l122 225h227l-248 -402v-265h-202z" />
<glyph unicode="&#x38f;" horiz-adv-x="780" d="M-21 541l22 224h134l-82 -224h-74zM152 176q-20 16 -41.5 36.5t-39 46.5t-28.5 57t-11 67q0 71 28 126t77.5 92.5t116 57t143.5 19.5t144 -19.5t116 -57t77 -92.5t28 -126q0 -36 -11 -67t-28.5 -57t-38.5 -46.5t-41 -36.5h102v-176h-298v176q30 9 51 26.5t34 39.5t19 46 t6 47q0 24 -7.5 52.5t-25.5 53.5t-49 41.5t-78 16.5t-78 -16.5t-49 -41.5t-25.5 -53.5t-7.5 -52.5q0 -23 6 -47t19 -46t34 -39.5t51 -26.5v-176h-298v176h103z" />
<glyph unicode="&#x390;" horiz-adv-x="294" d="M89 541l22 224h135l-82 -224h-75zM403 618q0 -38 -26 -63.5t-64 -25.5q-37 0 -63 25.5t-26 63.5t26 63.5t63 25.5q38 0 64 -25.5t26 -63.5zM71 618q0 -38 -25.5 -63.5t-63.5 -25.5t-63.5 25.5t-25.5 63.5t25.5 63.5t63.5 25.5t63.5 -25.5t25.5 -63.5zM216 -12 q-81 0 -123.5 38t-42.5 114v343h180v-305q0 -16 10 -23.5t24 -7.5q10 0 19 3l11 -152q-15 -5 -37 -7.5t-41 -2.5z" />
<glyph unicode="&#x391;" horiz-adv-x="710" d="M499 0l-24 78h-240l-24 -78h-229l246 667h254l246 -667h-229zM355 469l-66 -215h132z" />
<glyph unicode="&#x392;" horiz-adv-x="697" d="M54 0v667h405q52 0 89.5 -15.5t61.5 -40t35.5 -55t11.5 -59.5q0 -63 -32.5 -102.5t-81.5 -50.5q27 -4 50 -18t40.5 -35.5t27 -49.5t9.5 -60q0 -35 -12 -67.5t-36.5 -58t-61.5 -40.5t-87 -15h-419zM412 421q16 0 28 11t12 29q0 17 -12 27.5t-28 10.5h-156v-78h156z M418 168q22 0 34.5 11.5t12.5 30.5q0 18 -12.5 30.5t-34.5 12.5h-162v-85h162z" />
<glyph unicode="&#x393;" horiz-adv-x="592" d="M54 0v667h506v-176h-304v-491h-202z" />
<glyph unicode="&#x394;" horiz-adv-x="710" d="M-18 0l246 667h254l246 -667h-746zM355 469l-90 -293h180z" />
<glyph unicode="&#x395;" d="M54 0v667h506v-176h-304v-66h297v-176h-297v-73h304v-176h-506z" />
<glyph unicode="&#x396;" horiz-adv-x="600" d="M36 0v160l254 331h-254v176h521v-159l-255 -332h262v-176h-528z" />
<glyph unicode="&#x397;" horiz-adv-x="751" d="M495 0v255h-239v-255h-202v667h202v-236h239v236h202v-667h-202z" />
<glyph unicode="&#x398;" horiz-adv-x="766" d="M263 249v176h240v-176h-240zM383 -12q-77 0 -144 25t-116 70.5t-77 109t-28 140.5t28 140.5t77 109t116 70.5t144 25t144 -25t116 -70.5t77 -109t28 -140.5t-28 -140.5t-77 -109t-116 -70.5t-144 -25zM383 166q36 0 65.5 13t50.5 35.5t32.5 53t11.5 65.5t-11.5 65.5 t-32.5 53t-50.5 35.5t-65.5 13t-65.5 -13t-50.5 -35.5t-32.5 -53t-11.5 -65.5t11.5 -65.5t32.5 -53t50.5 -35.5t65.5 -13z" />
<glyph unicode="&#x399;" horiz-adv-x="310" d="M54 0v667h202v-667h-202z" />
<glyph unicode="&#x39a;" horiz-adv-x="671" d="M443 0l-150 235l-37 -50v-185h-202v667h202v-250l175 250h247l-252 -310l263 -357h-246z" />
<glyph unicode="&#x39b;" horiz-adv-x="710" d="M499 0l-144 469l-144 -469h-229l246 667h254l246 -667h-229z" />
<glyph unicode="&#x39c;" horiz-adv-x="900" d="M644 0v401l-149 -401h-90l-149 401v-401h-202v667h279l117 -320l117 320h279v-667h-202z" />
<glyph unicode="&#x39d;" horiz-adv-x="750" d="M502 0l-246 338v-338h-202v667h208l232 -316v316h202v-667h-194z" />
<glyph unicode="&#x39e;" horiz-adv-x="632" d="M36 491v176h559v-176h-559zM37 0v176h559v-176h-559zM43 249v176h546v-176h-546z" />
<glyph unicode="&#x39f;" horiz-adv-x="766" d="M383 -12q-77 0 -144 25t-116 70.5t-77 109t-28 140.5t28 140.5t77 109t116 70.5t144 25t144 -25t116 -70.5t77 -109t28 -140.5t-28 -140.5t-77 -109t-116 -70.5t-144 -25zM383 166q36 0 65.5 13t50.5 35.5t32.5 53t11.5 65.5t-11.5 65.5t-32.5 53t-50.5 35.5t-65.5 13 t-65.5 -13t-50.5 -35.5t-32.5 -53t-11.5 -65.5t11.5 -65.5t32.5 -53t50.5 -35.5t65.5 -13z" />
<glyph unicode="&#x3a0;" horiz-adv-x="751" d="M495 0v491h-239v-491h-202v667h643v-667h-202z" />
<glyph unicode="&#x3a1;" horiz-adv-x="662" d="M54 0v667h356q58 0 103 -18t75.5 -49.5t46 -73t15.5 -88.5t-15.5 -88t-46 -72.5t-75.5 -49.5t-103 -18h-154v-210h-202zM384 386q26 0 43.5 13t17.5 39q0 27 -17.5 40t-43.5 13h-128v-105h128z" />
<glyph unicode="&#x3a3;" d="M460 340l-179 -164h279v-176h-524v176l175 163l-174 153v175h523v-176h-270z" />
<glyph unicode="&#x3a4;" horiz-adv-x="595" d="M197 0v491h-179v176h559v-176h-178v-491h-202z" />
<glyph unicode="&#x3a5;" horiz-adv-x="664" d="M232 0v265l-250 402h227l124 -225l122 225h227l-248 -402v-265h-202z" />
<glyph unicode="&#x3a6;" horiz-adv-x="904" d="M351 0v68q-159 15 -246 80.5t-87 184.5t87 184t246 80v70h202v-70q158 -15 245.5 -80t87.5 -184t-87.5 -184.5t-245.5 -80.5v-68h-202zM223 333q0 -71 128 -86v172q-128 -16 -128 -86zM681 333q0 70 -128 86v-172q128 15 128 86z" />
<glyph unicode="&#x3a7;" horiz-adv-x="684" d="M464 0l-122 204l-122 -204h-238l223 342l-208 325h237l108 -190l106 190h239l-208 -324l223 -343h-238z" />
<glyph unicode="&#x3a8;" horiz-adv-x="937" d="M368 0v130q-80 10 -139 34.5t-98 61t-58 83.5t-19 101v257h205v-250q0 -80 109 -106v356h202v-355q54 12 80.5 39t26.5 66v250h206v-256q0 -54 -19 -101t-57.5 -84t-97.5 -61.5t-139 -34.5v-130h-202z" />
<glyph unicode="&#x3a9;" horiz-adv-x="766" d="M138 176q-20 16 -41.5 36.5t-39 46.5t-28.5 57t-11 67q0 71 28 126t77.5 92.5t116 57t143.5 19.5t144 -19.5t116 -57t77 -92.5t28 -126q0 -36 -11 -67t-28.5 -57t-38.5 -46.5t-41 -36.5h102v-176h-298v176q30 9 51 26.5t34 39.5t19 46t6 47q0 24 -7.5 52.5t-25.5 53.5 t-49 41.5t-78 16.5t-78 -16.5t-49 -41.5t-25.5 -53.5t-7.5 -52.5q0 -23 6 -47t19 -46t34 -39.5t51 -26.5v-176h-298v176h103z" />
<glyph unicode="&#x3aa;" horiz-adv-x="310" d="M54 0v667h202v-667h-202zM354 802q0 -38 -26 -63.5t-64 -25.5q-37 0 -63 25.5t-26 63.5t26 63.5t63 25.5q38 0 64 -25.5t26 -63.5zM137 802q0 -38 -25.5 -63.5t-63.5 -25.5t-63.5 25.5t-25.5 63.5t25.5 63.5t63.5 25.5t63.5 -25.5t25.5 -63.5z" />
<glyph unicode="&#x3ab;" horiz-adv-x="664" d="M232 0v265l-250 402h227l124 -225l122 225h227l-248 -402v-265h-202zM529 802q0 -38 -26 -63.5t-64 -25.5q-37 0 -63 25.5t-26 63.5t26 63.5t63 25.5q38 0 64 -25.5t26 -63.5zM312 802q0 -38 -25.5 -63.5t-63.5 -25.5t-63.5 25.5t-25.5 63.5t25.5 63.5t63.5 25.5 t63.5 -25.5t25.5 -63.5z" />
<glyph unicode="&#x3ac;" horiz-adv-x="610" d="M257 541l22 224h134l-82 -224h-74zM610 -2q-15 -5 -37 -7.5t-41 -2.5q-57 0 -96.5 20t-57.5 62q-24 -40 -63 -61t-85 -21q-44 0 -82.5 16.5t-67.5 48.5t-46 79.5t-17 109.5q0 60 16.5 107t45.5 79.5t67.5 49.5t83.5 17q37 0 71.5 -14t63.5 -49v51h181v-305 q0 -16 10 -23.5t24 -7.5q10 0 19 3zM291 147q18 0 40 8.5t35 24.5v123q-13 16 -35 24t-40 8q-37 0 -63.5 -24t-26.5 -69t26.5 -70t63.5 -25z" />
<glyph unicode="&#x3ad;" horiz-adv-x="493" d="M198 541l22 224h134l-82 -224h-74zM262 -12q-56 0 -101.5 11t-77.5 30.5t-49 46.5t-17 60q0 25 12 45.5t30.5 35t42 22.5t46.5 10q-26 4 -48.5 14.5t-39 25.5t-25.5 32.5t-9 37.5q0 30 15 55t46 43t77.5 27.5t110.5 9.5q67 0 121.5 -23t91.5 -59l-85 -101q-54 49 -137 49 q-26 0 -40 -6.5t-14 -17.5q0 -6 1.5 -10.5t7 -8.5t16.5 -6t31 -2h90v-132h-90q-36 0 -50.5 -9t-14.5 -21q0 -11 12.5 -17.5t46.5 -6.5q16 0 35.5 2.5t39.5 8.5t39.5 14.5t36.5 20.5l80 -105q-35 -33 -94.5 -54.5t-136.5 -21.5z" />
<glyph unicode="&#x3ae;" horiz-adv-x="607" d="M255 541l22 224h134l-82 -224h-74zM377 -184v451q0 38 -19 53.5t-51 15.5q-31 0 -48.5 -12.5t-28.5 -25.5v-298h-180v483h180v-55q21 24 61.5 45.5t104.5 21.5q42 0 72.5 -12t50 -32.5t29 -48.5t9.5 -59v-527h-180z" />
<glyph unicode="&#x3af;" horiz-adv-x="294" d="M100 541l22 224h134l-82 -224h-74zM216 -12q-81 0 -123.5 38t-42.5 114v343h180v-305q0 -16 10 -23.5t24 -7.5q10 0 19 3l11 -152q-15 -5 -37 -7.5t-41 -2.5z" />
<glyph unicode="&#x3b0;" horiz-adv-x="592" d="M238 541l22 224h135l-82 -224h-75zM552 618q0 -38 -26 -63.5t-64 -25.5q-37 0 -63 25.5t-26 63.5t26 63.5t63 25.5q38 0 64 -25.5t26 -63.5zM220 618q0 -38 -25.5 -63.5t-63.5 -25.5t-63.5 25.5t-25.5 63.5t25.5 63.5t63.5 25.5t63.5 -25.5t25.5 -63.5zM303 -12 q-65 0 -112.5 17.5t-78.5 49t-46.5 75t-15.5 94.5v259h180v-256q0 -34 19 -57t54 -23q42 0 64.5 30.5t22.5 91.5q0 37 -11.5 80.5t-33.5 78.5l167 67q34 -54 48.5 -114.5t14.5 -111.5q0 -62 -18.5 -113.5t-53 -88.5t-85.5 -58t-115 -21z" />
<glyph unicode="&#x3b1;" horiz-adv-x="610" d="M610 -2q-15 -5 -37 -7.5t-41 -2.5q-57 0 -96.5 20t-57.5 62q-24 -40 -63 -61t-85 -21q-44 0 -82.5 16.5t-67.5 48.5t-46 79.5t-17 109.5q0 60 16.5 107t45.5 79.5t67.5 49.5t83.5 17q37 0 71.5 -14t63.5 -49v51h181v-305q0 -16 10 -23.5t24 -7.5q10 0 19 3zM291 147 q18 0 40 8.5t35 24.5v123q-13 16 -35 24t-40 8q-37 0 -63.5 -24t-26.5 -69t26.5 -70t63.5 -25z" />
<glyph unicode="&#x3b2;" d="M230 179q17 -16 39 -24t52 -8q36 0 55 16t19 39q0 22 -18 37.5t-56 15.5h-44v160h38q35 0 49.5 15t14.5 36q0 24 -17 37.5t-46 13.5q-42 0 -64 -22t-22 -54v-262zM230 -184h-180v625q0 66 25 111t64 72.5t86 40t91 12.5q63 0 110 -13.5t77.5 -38t45.5 -58.5t15 -75 q0 -54 -39 -95.5t-103 -52.5q28 -3 56 -15t50.5 -34t36.5 -54.5t14 -75.5q0 -36 -16.5 -68t-43.5 -56.5t-62 -38.5t-71 -14q-52 0 -88.5 14t-67.5 49v-235z" />
<glyph unicode="&#x3b3;" horiz-adv-x="535" d="M177 -184v79q0 85 -15.5 169t-42.5 160t-64 142t-80 117h200q20 -28 39 -64.5t34 -75t25.5 -75.5t14.5 -67q10 19 20.5 52.5t18.5 72.5t13 80.5t5 76.5h180q0 -60 -13.5 -126.5t-36.5 -130t-53.5 -121t-64.5 -100.5v-189h-180z" />
<glyph unicode="&#x3b4;" horiz-adv-x="577" d="M299 -12q-68 0 -120.5 19t-88.5 52t-54.5 77.5t-18.5 95.5q0 64 28 112t65 74q-17 17 -27.5 40.5t-10.5 55.5q0 33 14 62.5t41.5 52.5t67.5 36.5t93 13.5q61 0 114 -17t95 -45l-66 -128q-23 19 -61.5 34.5t-80.5 15.5q-20 0 -32.5 -5t-12.5 -13q0 -9 23.5 -15.5 t58.5 -16.5t76 -26.5t76 -46t58.5 -74.5t23.5 -112q0 -50 -16.5 -94t-49.5 -77t-82 -52t-113 -19zM387 230q0 25 -10.5 43.5t-27.5 31.5t-39.5 22.5t-47.5 18.5q-31 -20 -45.5 -52t-14.5 -55q0 -44 25.5 -68t66.5 -24q45 0 69 22.5t24 60.5z" />
<glyph unicode="&#x3b5;" horiz-adv-x="493" d="M262 -12q-56 0 -101.5 11t-77.5 30.5t-49 46.5t-17 60q0 25 12 45.5t30.5 35t42 22.5t46.5 10q-26 4 -48.5 14.5t-39 25.5t-25.5 32.5t-9 37.5q0 30 15 55t46 43t77.5 27.5t110.5 9.5q67 0 121.5 -23t91.5 -59l-85 -101q-54 49 -137 49q-26 0 -40 -6.5t-14 -17.5 q0 -6 1.5 -10.5t7 -8.5t16.5 -6t31 -2h90v-132h-90q-36 0 -50.5 -9t-14.5 -21q0 -11 12.5 -17.5t46.5 -6.5q16 0 35.5 2.5t39.5 8.5t39.5 14.5t36.5 20.5l80 -105q-35 -33 -94.5 -54.5t-136.5 -21.5z" />
<glyph unicode="&#x3b6;" horiz-adv-x="482" d="M281 -21q0 9 -9 9q-59 0 -106 15.5t-80 44.5t-51 70.5t-18 92.5q0 46 14 89.5t40 82.5t63 71.5t84 56.5h-185v156h416v-126q-41 -21 -85 -55t-80 -76t-59.5 -89.5t-23.5 -94.5q0 -46 24.5 -62.5t70.5 -16.5q94 0 131.5 -32t37.5 -90q0 -38 -16.5 -83t-46.5 -99h-188 q8 10 19.5 28.5t22 38.5t18 39t7.5 30z" />
<glyph unicode="&#x3b7;" horiz-adv-x="607" d="M377 -184v451q0 38 -19 53.5t-51 15.5q-31 0 -48.5 -12.5t-28.5 -25.5v-298h-180v483h180v-55q21 24 61.5 45.5t104.5 21.5q42 0 72.5 -12t50 -32.5t29 -48.5t9.5 -59v-527h-180z" />
<glyph unicode="&#x3b8;" horiz-adv-x="577" d="M288 -12q-64 0 -114.5 28t-85 76t-53 110.5t-18.5 131.5t18.5 132t53 110t85 75t114.5 28t115 -28t85.5 -75t53 -110t18.5 -132t-18.5 -131.5t-53 -110.5t-85.5 -76t-115 -28zM288 147q35 0 55 25t28 85h-165q7 -60 27 -85t55 -25zM288 520q-35 0 -55 -25t-27 -82h165 q-8 57 -28 82t-55 25z" />
<glyph unicode="&#x3b9;" horiz-adv-x="294" d="M216 -12q-81 0 -123.5 38t-42.5 114v343h180v-305q0 -16 10 -23.5t24 -7.5q10 0 19 3l11 -152q-15 -5 -37 -7.5t-41 -2.5z" />
<glyph unicode="&#x3ba;" horiz-adv-x="557" d="M348 0l-83 156l-35 -47v-109h-180v483h180v-172l111 172h217l-166 -220l177 -263h-221z" />
<glyph unicode="&#x3bb;" horiz-adv-x="535" d="M45 671q6 2 16 3.5t20.5 2.5t19.5 1.5t14 0.5q38 -1 72 -6.5t62.5 -20.5t51.5 -41t39 -68l210 -543h-190l-93 276l-92 -276h-190l190 491l-4 10q-9 19 -63 19q-9 0 -19.5 -2t-18.5 -7z" />
<glyph unicode="&#x3bc;" horiz-adv-x="620" d="M230 -184h-180v667h180v-268q0 -37 18.5 -52.5t51.5 -15.5q30 0 47.5 12.5t28.5 25.5v298h180v-305q0 -16 10 -23.5t24 -7.5q10 0 19 3l11 -152q-15 -5 -37 -7.5t-41 -2.5q-60 0 -99 21t-57 66q-16 -38 -45.5 -62.5t-71.5 -24.5q-12 0 -22.5 2.5t-16.5 5.5v-180z" />
<glyph unicode="&#x3bd;" horiz-adv-x="535" d="M172 0l-187 483h190l101 -304q18 30 31 68.5t21.5 79t12.5 81t4 75.5h180q0 -61 -14 -128.5t-37.5 -132t-54.5 -122.5t-66 -100h-181z" />
<glyph unicode="&#x3be;" horiz-adv-x="482" d="M272 -12q-64 0 -112 13t-79.5 36t-47.5 54.5t-16 69.5q0 56 28.5 90.5t75.5 51.5q-39 7 -66 31.5t-27 65.5q0 36 23 66t61 45h-72v156h409v-156h-192q-20 -6 -32 -19t-12 -33q0 -22 20.5 -34.5t62.5 -12.5h150v-154h-150q-94 0 -94 -58q0 -53 94 -53t131.5 -32t37.5 -90 q0 -38 -16.5 -83t-46.5 -99h-188q8 10 19.5 28.5t22 38.5t18 39t7.5 30q0 9 -9 9z" />
<glyph unicode="&#x3bf;" horiz-adv-x="577" d="M288 -12q-64 0 -114.5 20.5t-85 55.5t-53 81t-18.5 97t18.5 96.5t53 80.5t85 55.5t114.5 20.5t115 -20.5t85.5 -55.5t53 -80.5t18.5 -96.5t-18.5 -97t-53 -81t-85.5 -55.5t-115 -20.5zM288 147q42 0 64.5 27t22.5 68q0 40 -22.5 67t-64.5 27t-64 -27t-22 -67 q0 -41 22 -68t64 -27z" />
<glyph unicode="&#x3c0;" horiz-adv-x="681" d="M414 0v327h-147v-327h-180v327h-80v156h667v-156h-80v-327h-180z" />
<glyph unicode="&#x3c1;" horiz-adv-x="595" d="M366 -12q-38 0 -72 14t-64 49v-235h-180v426q0 51 18 96.5t51.5 80.5t82.5 55.5t112 20.5t112 -20.5t82.5 -55.5t51.5 -80.5t18 -96.5q0 -62 -16.5 -109.5t-45 -79.5t-67 -48.5t-83.5 -16.5zM304 147q36 0 63 24.5t27 70.5q0 40 -21 67t-61 27t-61 -27t-21 -67v-62 q12 -15 34.5 -24t39.5 -9z" />
<glyph unicode="&#x3c2;" horiz-adv-x="502" d="M288 -12q-57 0 -106.5 18t-86 51t-57.5 80t-21 105q0 57 21 104t57.5 80t86 51t106.5 18q41 0 74.5 -8.5t59 -21.5t43.5 -29.5t28 -31.5l-116 -109q-11 17 -31.5 29t-49.5 12q-38 0 -66.5 -23.5t-28.5 -70.5t28.5 -71t66.5 -24q95 0 138.5 -32t43.5 -90q0 -38 -16.5 -83 t-46.5 -99h-188q8 10 19.5 28.5t22 38.5t18 39t7.5 30q0 9 -6 9z" />
<glyph unicode="&#x3c3;" horiz-adv-x="577" d="M545 205q0 -44 -16 -83.5t-48 -69t-80.5 -47t-112.5 -17.5t-114.5 20.5t-85 55.5t-53 81t-18.5 97t18.5 95t53 76.5t85 51t114.5 18.5h274v-159h-65q29 -27 38.5 -57t9.5 -62zM375 242q0 50 -39 82h-48q-42 0 -64 -25t-22 -57q0 -41 22 -68t64 -27t64.5 27t22.5 68z" />
<glyph unicode="&#x3c4;" horiz-adv-x="495" d="M324 -12q-81 0 -123.5 38t-42.5 114v187h-143v156h465v-156h-142v-135q0 -19 11 -32t29 -13q12 0 22.5 3t13.5 6l32 -136q-14 -13 -45 -22.5t-77 -9.5z" />
<glyph unicode="&#x3c5;" horiz-adv-x="592" d="M303 -12q-65 0 -112.5 17.5t-78.5 49t-46.5 75t-15.5 94.5v259h180v-256q0 -34 19 -57t54 -23q42 0 64.5 30.5t22.5 91.5q0 37 -11.5 80.5t-33.5 78.5l167 67q34 -54 48.5 -114.5t14.5 -111.5q0 -62 -18.5 -113.5t-53 -88.5t-85.5 -58t-115 -21z" />
<glyph unicode="&#x3c6;" horiz-adv-x="846" d="M829 242q0 -109 -78.5 -172.5t-237.5 -77.5v-176h-180v176q-316 27 -316 265q0 46 15 82.5t41 66t61 51.5t76 38l74 -140q-44 -15 -63 -43.5t-19 -54.5q0 -47 31 -72.5t100 -33.5v344h89q206 0 306.5 -65t100.5 -188zM644 242q0 23 -11 39t-29.5 26.5t-42 16t-48.5 7.5 v-180q69 8 100 30.5t31 60.5z" />
<glyph unicode="&#x3c7;" horiz-adv-x="521" d="M336 -184l-75 176l-77 -176h-196l158 343l-148 324h197l65 -156l65 156h197l-148 -324l159 -343h-197z" />
<glyph unicode="&#x3c8;" horiz-adv-x="846" d="M333 -184v177q-72 8 -125.5 30.5t-88.5 56.5t-52 78.5t-17 98.5v226h180v-225q0 -42 27.5 -66.5t75.5 -35.5v511h180v-511q48 11 75.5 35.5t27.5 66.5v225h180v-226q0 -108 -69 -177.5t-214 -86.5v-177h-180z" />
<glyph unicode="&#x3c9;" horiz-adv-x="897" d="M879 242q0 -51 -16 -97t-46 -81t-74 -55.5t-100 -20.5q-72 0 -119 32t-76 95q-29 -63 -76 -95t-119 -32q-56 0 -100 20.5t-74 55.5t-46 81t-16 97q0 86 33 148.5t78 104.5l138 -99q-34 -39 -49 -77.5t-15 -76.5q0 -41 20 -68t57 -27q38 0 58.5 27t20.5 68v121h180v-121 q0 -41 20.5 -68t58.5 -27q37 0 57 27t20 68q0 38 -15 76.5t-49 77.5l138 99q45 -42 78 -104.5t33 -148.5z" />
<glyph unicode="&#x3ca;" horiz-adv-x="294" d="M346 618q0 -38 -26 -63.5t-64 -25.5q-37 0 -63 25.5t-26 63.5t26 63.5t63 25.5q38 0 64 -25.5t26 -63.5zM129 618q0 -38 -25.5 -63.5t-63.5 -25.5t-63.5 25.5t-25.5 63.5t25.5 63.5t63.5 25.5t63.5 -25.5t25.5 -63.5zM216 -12q-81 0 -123.5 38t-42.5 114v343h180v-305 q0 -16 10 -23.5t24 -7.5q10 0 19 3l11 -152q-15 -5 -37 -7.5t-41 -2.5z" />
<glyph unicode="&#x3cb;" horiz-adv-x="592" d="M493 618q0 -38 -26 -63.5t-64 -25.5q-37 0 -63 25.5t-26 63.5t26 63.5t63 25.5q38 0 64 -25.5t26 -63.5zM276 618q0 -38 -25.5 -63.5t-63.5 -25.5t-63.5 25.5t-25.5 63.5t25.5 63.5t63.5 25.5t63.5 -25.5t25.5 -63.5zM303 -12q-65 0 -112.5 17.5t-78.5 49t-46.5 75 t-15.5 94.5v259h180v-256q0 -34 19 -57t54 -23q42 0 64.5 30.5t22.5 91.5q0 37 -11.5 80.5t-33.5 78.5l167 67q34 -54 48.5 -114.5t14.5 -111.5q0 -62 -18.5 -113.5t-53 -88.5t-85.5 -58t-115 -21z" />
<glyph unicode="&#x3cc;" horiz-adv-x="577" d="M240 541l22 224h134l-82 -224h-74zM288 -12q-64 0 -114.5 20.5t-85 55.5t-53 81t-18.5 97t18.5 96.5t53 80.5t85 55.5t114.5 20.5t115 -20.5t85.5 -55.5t53 -80.5t18.5 -96.5t-18.5 -97t-53 -81t-85.5 -55.5t-115 -20.5zM288 147q42 0 64.5 27t22.5 68q0 40 -22.5 67 t-64.5 27t-64 -27t-22 -67q0 -41 22 -68t64 -27z" />
<glyph unicode="&#x3cd;" horiz-adv-x="592" d="M248 541l22 224h134l-82 -224h-74zM303 -12q-65 0 -112.5 17.5t-78.5 49t-46.5 75t-15.5 94.5v259h180v-256q0 -34 19 -57t54 -23q42 0 64.5 30.5t22.5 91.5q0 37 -11.5 80.5t-33.5 78.5l167 67q34 -54 48.5 -114.5t14.5 -111.5q0 -62 -18.5 -113.5t-53 -88.5t-85.5 -58 t-115 -21z" />
<glyph unicode="&#x3ce;" horiz-adv-x="897" d="M400 541l22 224h134l-82 -224h-74zM879 242q0 -51 -16 -97t-46 -81t-74 -55.5t-100 -20.5q-72 0 -119 32t-76 95q-29 -63 -76 -95t-119 -32q-56 0 -100 20.5t-74 55.5t-46 81t-16 97q0 86 33 148.5t78 104.5l138 -99q-34 -39 -49 -77.5t-15 -76.5q0 -41 20 -68t57 -27 q38 0 58.5 27t20.5 68v121h180v-121q0 -41 20.5 -68t58.5 -27q37 0 57 27t20 68q0 38 -15 76.5t-49 77.5l138 99q45 -42 78 -104.5t33 -148.5z" />
<glyph unicode="&#x401;" d="M505 785q0 -38 -26 -63.5t-64 -25.5q-37 0 -63 25.5t-26 63.5t26 63.5t63 25.5q38 0 64 -25.5t26 -63.5zM288 785q0 -38 -25.5 -63.5t-63.5 -25.5t-63.5 25.5t-25.5 63.5t25.5 63.5t63.5 25.5t63.5 -25.5t25.5 -63.5zM54 0v667h506v-176h-304v-66h297v-176h-297v-73h304 v-176h-506z" />
<glyph unicode="&#x402;" horiz-adv-x="805" d="M537 154q26 0 38.5 13t12.5 33v3q0 28 -26 41.5t-66 13.5q-57 0 -97 -15v-243h-202v491h-179v176h559v-176h-178v-72q38 8 66.5 11.5t60.5 3.5q69 0 119 -16.5t83 -47t49 -72.5t16 -93v-6q0 -45 -18 -84t-51.5 -67t-81 -44t-105.5 -16v166z" />
<glyph unicode="&#x403;" horiz-adv-x="592" d="M358 723h-120l120 144h155zM54 0v667h506v-176h-304v-491h-202z" />
<glyph unicode="&#x404;" horiz-adv-x="697" d="M385 -12q-78 0 -145.5 25t-116.5 70.5t-77 109t-28 140.5t28 140.5t77 109t116.5 70.5t145.5 25q66 0 115.5 -17.5t86.5 -45t61.5 -62.5t39.5 -69l-174 -81q-13 39 -49.5 68t-87.5 29q-50 0 -83 -20.5t-51 -54.5h225v-176h-229q17 -38 51 -60.5t87 -22.5q51 0 87.5 29 t49.5 68l174 -80q-15 -33 -39.5 -68t-61 -63t-86.5 -46t-116 -18z" />
<glyph unicode="&#x405;" horiz-adv-x="613" d="M313 -12q-107 0 -181.5 29t-128.5 77l105 150q38 -36 92.5 -61t122.5 -25q29 0 51.5 8t22.5 28q0 16 -27.5 23.5t-69 14.5t-89.5 18.5t-89.5 35t-69 64t-27.5 106.5q0 42 17.5 82t52.5 71t86.5 49.5t120.5 18.5q82 0 154 -23t129 -70l-108 -143q-44 33 -96 49.5 t-100 16.5q-30 0 -40.5 -8.5t-10.5 -21.5q0 -16 27.5 -24t68.5 -15.5t89.5 -19.5t89.5 -35t68.5 -62t27.5 -101q0 -55 -20 -98t-57 -73t-90.5 -45.5t-120.5 -15.5z" />
<glyph unicode="&#x406;" horiz-adv-x="310" d="M54 0v667h202v-667h-202z" />
<glyph unicode="&#x407;" horiz-adv-x="310" d="M54 0v667h202v-667h-202zM354 785q0 -38 -26 -63.5t-64 -25.5q-37 0 -63 25.5t-26 63.5t26 63.5t63 25.5q38 0 64 -25.5t26 -63.5zM137 785q0 -38 -25.5 -63.5t-63.5 -25.5t-63.5 25.5t-25.5 63.5t25.5 63.5t63.5 25.5t63.5 -25.5t25.5 -63.5z" />
<glyph unicode="&#x408;" horiz-adv-x="498" d="M186 -12q-49 0 -98 12t-88 42l82 154q17 -11 38.5 -20.5t47.5 -9.5q33 0 53.5 20t20.5 55v426h202v-429q0 -64 -18.5 -111t-52.5 -78t-81.5 -46t-105.5 -15z" />
<glyph unicode="&#x409;" horiz-adv-x="1103" d="M20 166q21 0 39.5 8t33.5 27t25.5 50.5t16.5 79.5l41 336h521v-210h154q58 0 103 -18t75.5 -49.5t46 -73t15.5 -87.5q0 -47 -15.5 -88.5t-46 -73t-75.5 -49.5t-103 -18h-356v491h-137l-22 -175q-12 -99 -41 -162.5t-71 -100t-94 -51t-110 -14.5v178zM697 281v-105h128 q26 0 43.5 13t17.5 40q0 26 -17.5 39t-43.5 13h-128z" />
<glyph unicode="&#x40a;" horiz-adv-x="1103" d="M54 667h202v-236h239v236h202v-236h167q55 0 97.5 -17t71.5 -46.5t43.5 -68.5t14.5 -83t-14.5 -83.5t-43.5 -69t-71.5 -46.5t-97.5 -17h-369v255h-239v-255h-202v667zM840 176q19 0 32.5 10t13.5 30t-13.5 29.5t-32.5 9.5h-143v-79h143z" />
<glyph unicode="&#x40b;" horiz-adv-x="847" d="M588 176q0 24 -7 40t-19 25.5t-29 13t-37 3.5q-57 0 -97 -15v-243h-202v491h-179v176h559v-176h-178v-72q38 8 66.5 11.5t60.5 3.5q69 0 119 -18.5t83 -52.5t49 -81.5t16 -105.5v-176h-205v176z" />
<glyph unicode="&#x40c;" horiz-adv-x="671" d="M404 723h-120l120 144h155zM443 0l-150 235l-37 -50v-185h-202v667h202v-250l175 250h247l-252 -310l263 -357h-246z" />
<glyph unicode="&#x40e;" horiz-adv-x="664" d="M169 -12q-49 0 -98 12t-88 42l82 154q17 -11 38.5 -20.5t47.5 -9.5t41 8t26 24l-235 469h226l123 -271l124 271h226l-267 -533q-16 -31 -38 -58t-52 -46.5t-69 -30.5t-87 -11zM507 779q-30 -41 -75.5 -64.5t-99.5 -23.5t-99.5 23.5t-76.5 64.5l76 62q17 -23 42 -38 t58 -15q63 0 100 53l75 -62v0z" />
<glyph unicode="&#x40f;" horiz-adv-x="751" d="M54 667h202v-491h239v491h202v-667h-220v-123h-202v123h-221v667z" />
<glyph unicode="&#x410;" horiz-adv-x="710" d="M499 0l-24 78h-240l-24 -78h-229l246 667h254l246 -667h-229zM355 469l-66 -215h132z" />
<glyph unicode="&#x411;" horiz-adv-x="662" d="M610 667v-176h-354v-53h164q56 0 99 -17.5t72 -47t44 -69t15 -84.5t-15 -85t-44 -70t-72 -47.5t-99 -17.5h-366v667h556zM256 262v-86h139q21 0 35.5 10.5t14.5 32.5t-14.5 32.5t-35.5 10.5h-139z" />
<glyph unicode="&#x412;" horiz-adv-x="697" d="M54 0v667h405q52 0 89.5 -15.5t61.5 -40t35.5 -55t11.5 -59.5q0 -63 -32.5 -102.5t-81.5 -50.5q27 -4 50 -18t40.5 -35.5t27 -49.5t9.5 -60q0 -35 -12 -67.5t-36.5 -58t-61.5 -40.5t-87 -15h-419zM412 421q16 0 28 11t12 29q0 17 -12 27.5t-28 10.5h-156v-78h156z M418 168q22 0 34.5 11.5t12.5 30.5q0 18 -12.5 30.5t-34.5 12.5h-162v-85h162z" />
<glyph unicode="&#x413;" horiz-adv-x="592" d="M54 0v667h506v-176h-304v-491h-202z" />
<glyph unicode="&#x414;" horiz-adv-x="768" d="M20 166q22 4 41 12.5t33 26.5t24.5 48t16.5 78l41 336h521v-491h58v-299h-202v123h-331v-123h-202v289zM336 316q-5 -45 -22 -79.5t-43 -60.5h224v315h-137z" />
<glyph unicode="&#x415;" d="M54 0v667h506v-176h-304v-66h297v-176h-297v-73h304v-176h-506z" />
<glyph unicode="&#x416;" horiz-adv-x="992" d="M-18 0l263 357l-252 310h247l155 -222v222h202v-222l155 222h247l-252 -310l263 -357h-246l-150 235l-17 -23v-212h-202v212l-17 23l-150 -235h-246z" />
<glyph unicode="&#x417;" horiz-adv-x="637" d="M310 -12q-99 0 -177.5 29.5t-120.5 74.5l99 138q19 -17 44.5 -29t51.5 -20t51 -11.5t44 -3.5q54 0 80.5 13.5t26.5 31.5q0 9 -4.5 15.5t-17 11t-34.5 7t-57 2.5h-137v176h137q48 0 75 8.5t27 24.5q0 23 -30.5 33t-78.5 10q-43 0 -90.5 -14.5t-82.5 -43.5l-95 126 q45 49 118.5 79.5t171.5 30.5q139 0 213.5 -51t74.5 -134q0 -27 -11 -51.5t-30.5 -44t-46.5 -33.5t-59 -19q28 -3 56 -15t50.5 -31.5t37 -47.5t14.5 -62q0 -45 -22.5 -81.5t-62.5 -63t-95 -41t-120 -14.5z" />
<glyph unicode="&#x418;" horiz-adv-x="750" d="M54 0v667h202v-356l232 356h208v-667h-202v378l-246 -378h-194z" />
<glyph unicode="&#x419;" horiz-adv-x="750" d="M54 0v667h202v-356l232 356h208v-667h-202v378l-246 -378h-194zM550 779q-30 -41 -75.5 -64.5t-99.5 -23.5t-99.5 23.5t-76.5 64.5l76 62q17 -23 42 -38t58 -15q63 0 100 53l75 -62v0z" />
<glyph unicode="&#x41a;" horiz-adv-x="671" d="M443 0l-150 235l-37 -50v-185h-202v667h202v-250l175 250h247l-252 -310l263 -357h-246z" />
<glyph unicode="&#x41b;" horiz-adv-x="751" d="M20 166q21 0 39.5 8t33.5 27t25.5 50.5t16.5 79.5l41 336h521v-667h-202v491h-137l-22 -175q-12 -99 -41 -162.5t-71 -100t-94 -51t-110 -14.5v178z" />
<glyph unicode="&#x41c;" horiz-adv-x="900" d="M644 0v401l-149 -401h-90l-149 401v-401h-202v667h279l117 -320l117 320h279v-667h-202z" />
<glyph unicode="&#x41d;" horiz-adv-x="751" d="M495 0v255h-239v-255h-202v667h202v-236h239v236h202v-667h-202z" />
<glyph unicode="&#x41e;" horiz-adv-x="766" d="M383 -12q-77 0 -144 25t-116 70.5t-77 109t-28 140.5t28 140.5t77 109t116 70.5t144 25t144 -25t116 -70.5t77 -109t28 -140.5t-28 -140.5t-77 -109t-116 -70.5t-144 -25zM383 166q36 0 65.5 13t50.5 35.5t32.5 53t11.5 65.5t-11.5 65.5t-32.5 53t-50.5 35.5t-65.5 13 t-65.5 -13t-50.5 -35.5t-32.5 -53t-11.5 -65.5t11.5 -65.5t32.5 -53t50.5 -35.5t65.5 -13z" />
<glyph unicode="&#x41f;" horiz-adv-x="751" d="M495 0v491h-239v-491h-202v667h643v-667h-202z" />
<glyph unicode="&#x420;" horiz-adv-x="662" d="M54 0v667h356q58 0 103 -18t75.5 -49.5t46 -73t15.5 -88.5t-15.5 -88t-46 -72.5t-75.5 -49.5t-103 -18h-154v-210h-202zM384 386q26 0 43.5 13t17.5 39q0 27 -17.5 40t-43.5 13h-128v-105h128z" />
<glyph unicode="&#x421;" horiz-adv-x="697" d="M385 -12q-78 0 -145.5 25t-116.5 70.5t-77 109t-28 140.5t28 140.5t77 109t116.5 70.5t145.5 25q66 0 115.5 -17.5t86.5 -45t61.5 -62.5t39.5 -69l-174 -81q-6 19 -18.5 37t-29.5 31t-38 21t-43 8q-36 0 -66 -13t-51.5 -35.5t-33 -53t-11.5 -65.5t11.5 -65.5t33 -53 t51.5 -35.5t66 -13q22 0 43 8t38 21t29.5 30.5t18.5 37.5l174 -80q-15 -33 -39.5 -68t-61 -63t-86.5 -46t-116 -18z" />
<glyph unicode="&#x422;" horiz-adv-x="595" d="M197 0v491h-179v176h559v-176h-178v-491h-202z" />
<glyph unicode="&#x423;" horiz-adv-x="664" d="M169 -12q-49 0 -98 12t-88 42l82 154q17 -11 38.5 -20.5t47.5 -9.5t41 8t26 24l-235 469h226l123 -271l124 271h226l-267 -533q-16 -31 -38 -58t-52 -46.5t-69 -30.5t-87 -11z" />
<glyph unicode="&#x424;" horiz-adv-x="904" d="M351 0v68q-159 15 -246 80.5t-87 184.5t87 184t246 80v70h202v-70q158 -15 245.5 -80t87.5 -184t-87.5 -184.5t-245.5 -80.5v-68h-202zM223 333q0 -71 128 -86v172q-128 -16 -128 -86zM681 333q0 70 -128 86v-172q128 15 128 86z" />
<glyph unicode="&#x425;" horiz-adv-x="684" d="M464 0l-122 204l-122 -204h-238l223 342l-208 325h237l108 -190l106 190h239l-208 -324l223 -343h-238z" />
<glyph unicode="&#x426;" horiz-adv-x="768" d="M553 0h-499v667h202v-491h239v491h202v-491h58v-299h-202v123z" />
<glyph unicode="&#x427;" horiz-adv-x="691" d="M246 456q0 -24 7 -40t19 -25.5t29 -13t37 -3.5q56 0 97 15v278h202v-667h-202v213q-38 -8 -66.5 -11.5t-60.5 -3.5q-69 0 -119 18.5t-83 52.5t-49 81.5t-16 105.5v211h205v-211z" />
<glyph unicode="&#x428;" horiz-adv-x="1052" d="M998 667v-667h-944v667h202v-491h169v491h202v-491h169v491h202z" />
<glyph unicode="&#x429;" horiz-adv-x="1069" d="M998 667v-491h58v-299h-202v123h-800v667h202v-491h169v491h202v-491h169v491h202z" />
<glyph unicode="&#x42a;" horiz-adv-x="805" d="M197 0v491h-179v176h381v-210h154q58 0 103 -18t75.5 -49.5t46 -73t15.5 -87.5q0 -47 -15.5 -88.5t-46 -73t-75.5 -49.5t-103 -18h-356zM399 281v-105h128q26 0 43.5 13t17.5 40q0 26 -17.5 39t-43.5 13h-128z" />
<glyph unicode="&#x42b;" horiz-adv-x="947" d="M256 667v-210h154q58 0 103 -18t75.5 -49.5t46 -73t15.5 -87.5q0 -47 -15.5 -88.5t-46 -73t-75.5 -49.5t-103 -18h-356v667h202zM256 281v-105h128q26 0 43.5 13t17.5 40q0 26 -17.5 39t-43.5 13h-128zM691 0v667h202v-667h-202z" />
<glyph unicode="&#x42c;" horiz-adv-x="662" d="M256 667v-210h154q58 0 103 -18t75.5 -49.5t46 -73t15.5 -87.5q0 -47 -15.5 -88.5t-46 -73t-75.5 -49.5t-103 -18h-356v667h202zM256 281v-105h128q26 0 43.5 13t17.5 40q0 26 -17.5 39t-43.5 13h-128z" />
<glyph unicode="&#x42d;" horiz-adv-x="697" d="M312 -12q-66 0 -116 18t-86.5 46t-61 63t-39.5 68l174 80q13 -39 49.5 -68t87.5 -29q52 0 86 22.5t51 60.5h-228v176h224q-17 34 -50 54.5t-83 20.5q-51 0 -87.5 -29t-49.5 -68l-174 81q15 34 39.5 69t61.5 62.5t86.5 45t115.5 17.5q78 0 145.5 -25t116.5 -70.5t77 -109 t28 -140.5t-28 -140.5t-77 -109t-116.5 -70.5t-145.5 -25z" />
<glyph unicode="&#x42e;" horiz-adv-x="1108" d="M725 -12q-67 0 -126.5 19t-106 54t-79 84t-45.5 110h-112v-255h-202v667h202v-236h117q16 56 49 101.5t79 78t103 50t121 17.5q77 0 144 -25t116 -70.5t77 -109t28 -140.5t-28 -140.5t-77 -109t-116 -70.5t-144 -25zM725 166q36 0 65.5 13t50.5 35.5t32.5 53t11.5 65.5 t-11.5 65.5t-32.5 53t-50.5 35.5t-65.5 13t-65.5 -13t-50.5 -35.5t-32.5 -53t-11.5 -65.5t11.5 -65.5t32.5 -53t50.5 -35.5t65.5 -13z" />
<glyph unicode="&#x42f;" horiz-adv-x="678" d="M27 0l121 236q-20 10 -41 26.5t-38.5 41t-29 58t-11.5 76.5q0 47 15.5 88.5t46 73t75 49.5t103.5 18h356v-667h-202v210h-73l-92 -210h-230zM422 386v105h-123q-26 0 -46 -12.5t-20 -39.5q0 -28 20 -40.5t46 -12.5h123z" />
<glyph unicode="&#x430;" horiz-adv-x="559" d="M329 0v46q-20 -26 -60.5 -42t-85.5 -16q-27 0 -56.5 9.5t-53.5 29t-40 49.5t-16 71q0 45 16 74.5t40 47.5t53.5 25t56.5 7q48 0 87 -14t59 -39v50q0 26 -22.5 43t-67.5 17q-34 0 -69.5 -12.5t-64.5 -34.5l-61 111q49 39 111 56t117 17q45 0 87.5 -9t76 -32t53.5 -62.5 t20 -99.5v-292h-180zM258 105q21 0 41.5 6.5t29.5 19.5v27q-9 13 -29.5 19.5t-41.5 6.5q-23 0 -43 -9t-20 -31q0 -11 5.5 -18.5t14.5 -12t20.5 -6.5t22.5 -2z" />
<glyph unicode="&#x431;" horiz-adv-x="577" d="M288 147q42 0 64.5 27t22.5 69q0 39 -22.5 66t-64.5 27t-64 -27t-22 -66q0 -42 22 -69t64 -27zM288 -12q-64 0 -114.5 21t-85 58t-53 87.5t-18.5 109.5q0 176 68 264t199 108q23 4 40 12t17 19h200q0 -35 -19 -59t-48 -39.5t-62.5 -24t-61.5 -12.5q-41 -7 -69.5 -17 t-47.5 -22.5t-29.5 -28t-15.5 -33.5q29 35 63.5 49.5t82.5 14.5q52 0 93.5 -20.5t71 -55t45.5 -80.5t16 -96q0 -51 -18.5 -97t-53 -81.5t-85.5 -56t-115 -20.5z" />
<glyph unicode="&#x432;" horiz-adv-x="618" d="M50 0v483h348q41 0 71 -11.5t49.5 -29.5t28.5 -40t9 -43q0 -43 -24 -71t-60 -39q42 -8 68.5 -40t26.5 -77q0 -26 -9.5 -49.5t-29 -42t-49.5 -29.5t-70 -11h-359zM360 133q11 0 18.5 6t7.5 16q0 11 -7.5 17t-18.5 6h-130v-45h130zM353 310q9 0 15.5 6t6.5 14t-6 14t-16 6 h-123v-40h123z" />
<glyph unicode="&#x433;" horiz-adv-x="457" d="M442 327h-212v-327h-180v483h392v-156z" />
<glyph unicode="&#x434;" horiz-adv-x="623" d="M18 150q12 0 23 3t20 13.5t16 30.5t12 55l34 231h434v-327h53v-279h-180v123h-232v-123h-180v273zM266 252q-9 -61 -38 -96h149v171h-100z" />
<glyph unicode="&#x435;" horiz-adv-x="543" d="M286 -12q-57 0 -106 17.5t-85 50t-57 79.5t-21 107q0 52 19 98.5t54 80.5t83 54t107 20q53 0 99 -18.5t79.5 -53.5t53 -85.5t19.5 -114.5v-37h-328q8 -23 33.5 -42t70.5 -19q10 0 25.5 2.5t31.5 7t30.5 10.5t23.5 14l74 -111q-18 -15 -42.5 -26.5t-51.5 -19t-56 -11 t-56 -3.5zM360 300q-2 8 -6.5 18t-13.5 19t-23.5 15t-36.5 6q-21 0 -35 -6t-23 -15t-14 -19t-7 -18h159z" />
<glyph unicode="&#x436;" horiz-adv-x="794" d="M-12 0l177 263l-166 220h217l91 -141v141h180v-141l91 141h217l-166 -220l177 -263h-221l-83 156l-15 -20v-136h-180v136l-15 20l-83 -156h-221z" />
<glyph unicode="&#x437;" horiz-adv-x="493" d="M231 -12q-77 0 -136.5 21.5t-94.5 54.5l80 105q16 -12 36 -20.5t40 -14.5t39.5 -8.5t35.5 -2.5q34 0 46.5 6.5t12.5 17.5q0 12 -14.5 21t-50.5 9h-90v132h90q19 0 30.5 2t17 6t7 8.5t1.5 10.5q0 11 -14 17.5t-40 6.5q-83 0 -137 -49l-85 101q37 36 91.5 59t121.5 23 q127 1 187.5 -36.5t61.5 -98.5q0 -20 -9 -37.5t-25.5 -32.5t-39 -25.5t-48.5 -14.5q23 -2 46.5 -10t42 -22.5t30.5 -35t12 -45.5q0 -33 -17 -60t-49 -46.5t-77.5 -30.5t-101.5 -11z" />
<glyph unicode="&#x438;" horiz-adv-x="607" d="M50 0v483h180v-215l145 215h182v-483h-180v229l-155 -229h-172z" />
<glyph unicode="&#x439;" horiz-adv-x="607" d="M50 0v483h180v-215l145 215h182v-483h-180v229l-155 -229h-172zM479 612q-30 -41 -75.5 -64.5t-99.5 -23.5t-99.5 23.5t-76.5 64.5l76 62q17 -23 42 -38t58 -15q63 0 100 53l75 -62v0z" />
<glyph unicode="&#x43a;" horiz-adv-x="557" d="M348 0l-83 156l-35 -47v-109h-180v483h180v-172l111 172h217l-166 -220l177 -263h-221z" />
<glyph unicode="&#x43b;" horiz-adv-x="607" d="M18 135q12 0 23 5t20 18.5t16 36t12 57.5l34 231h434v-483h-180v327h-100l-14 -99q-8 -56 -24.5 -100t-45.5 -75.5t-72 -48t-103 -16.5v147z" />
<glyph unicode="&#x43c;" horiz-adv-x="743" d="M514 0v263l-93 -263h-98l-93 263v-263h-180v483h238l83 -233l84 233h238v-483h-179z" />
<glyph unicode="&#x43d;" horiz-adv-x="607" d="M50 0v483h180v-153h147v153h180v-483h-180v174h-147v-174h-180z" />
<glyph unicode="&#x43e;" horiz-adv-x="577" d="M288 -12q-64 0 -114.5 20.5t-85 55.5t-53 81t-18.5 97t18.5 96.5t53 80.5t85 55.5t114.5 20.5t115 -20.5t85.5 -55.5t53 -80.5t18.5 -96.5t-18.5 -97t-53 -81t-85.5 -55.5t-115 -20.5zM288 147q42 0 64.5 27t22.5 68q0 40 -22.5 67t-64.5 27t-64 -27t-22 -67 q0 -41 22 -68t64 -27z" />
<glyph unicode="&#x43f;" horiz-adv-x="607" d="M377 0v327h-147v-327h-180v483h507v-483h-180z" />
<glyph unicode="&#x440;" horiz-adv-x="595" d="M366 -12q-38 0 -72 14t-64 49v-235h-180v667h180v-51q29 35 63.5 49t72.5 14q45 0 83.5 -16.5t67 -48.5t45 -79t16.5 -109t-16.5 -109.5t-45 -79.5t-67 -48.5t-83.5 -16.5zM304 147q36 0 63 24.5t27 70.5q0 45 -27 69.5t-63 24.5q-17 0 -39 -8.5t-35 -24.5v-123 q12 -15 34.5 -24t39.5 -9z" />
<glyph unicode="&#x441;" horiz-adv-x="502" d="M288 -12q-57 0 -106.5 18t-86 51t-57.5 80t-21 105q0 57 21 104t57.5 80t86 51t106.5 18q41 0 74.5 -8.5t59 -21.5t43.5 -29.5t28 -31.5l-116 -109q-11 17 -31.5 29t-49.5 12q-38 0 -66.5 -23.5t-28.5 -70.5t28.5 -71t66.5 -24q29 0 49.5 12.5t31.5 29.5l116 -110 q-10 -15 -28 -31t-43.5 -29.5t-59 -22t-74.5 -8.5z" />
<glyph unicode="&#x442;" horiz-adv-x="466" d="M144 0v327h-129v156h436v-156h-127v-327h-180z" />
<glyph unicode="&#x443;" horiz-adv-x="535" d="M70 -28q8 -5 18.5 -7t19.5 -2q54 0 63 19l4 10l-190 491h190l92 -276l93 276h190l-210 -543q-16 -42 -39 -68t-51.5 -41t-62.5 -20.5t-72 -6.5q-5 0 -14 0.5t-19.5 1.5t-20.5 2.5t-16 3.5z" />
<glyph unicode="&#x444;" horiz-adv-x="858" d="M213 495q35 0 66.5 -14t59.5 -49v235h180v-235q27 35 59 49t67 14q42 0 77.5 -16.5t62 -48.5t41.5 -79t15 -109t-15 -109.5t-41.5 -79.5t-62 -48.5t-77.5 -16.5q-35 0 -66.5 14t-59.5 49v-235h-180v235q-27 -35 -59 -49t-67 -14q-42 0 -77.5 16.5t-62 48.5t-41.5 79 t-15 109t15 109.5t41.5 79.5t62 48.5t77.5 16.5zM275 336q-31 0 -54 -24.5t-23 -70.5q0 -45 23 -69.5t54 -24.5q15 0 34 8.5t30 24.5v123q-11 15 -30 24t-34 9zM583 147q31 0 54 24.5t23 70.5q0 45 -23 69.5t-54 24.5q-15 0 -34 -8.5t-30 -24.5v-123q11 -15 30 -24t34 -9z " />
<glyph unicode="&#x445;" horiz-adv-x="521" d="M336 0l-75 128l-77 -128h-196l158 248l-148 235h197l65 -113l65 113h197l-148 -235l159 -248h-197z" />
<glyph unicode="&#x446;" horiz-adv-x="623" d="M430 0h-380v483h180v-327h147v327h180v-327h53v-279h-180v123z" />
<glyph unicode="&#x447;" horiz-adv-x="597" d="M220 483v-135q0 -38 19 -53.5t51 -15.5q31 0 48.5 6.5t28.5 14.5v183h180v-483h-180v158q-21 -14 -59 -26t-88 -12q-49 0 -83.5 12t-56 34.5t-31 54.5t-9.5 71v191h180z" />
<glyph unicode="&#x448;" horiz-adv-x="896" d="M846 483v-483h-796v483h180v-327h128v327h180v-327h128v327h180z" />
<glyph unicode="&#x449;" horiz-adv-x="912" d="M846 483v-327h53v-279h-180v123h-669v483h180v-327h128v327h180v-327h128v327h180z" />
<glyph unicode="&#x44a;" horiz-adv-x="678" d="M144 0v327h-129v156h309v-144h152q46 0 80.5 -13.5t58 -37t35 -54.5t11.5 -65t-12.5 -64.5t-36.5 -54t-58.5 -37t-77.5 -13.5h-332zM324 198v-57h118q17 0 27 8t10 20q0 13 -10 21t-27 8h-118z" />
<glyph unicode="&#x44b;" horiz-adv-x="838" d="M230 483v-144h152q46 0 80.5 -13.5t58 -37t35 -54.5t11.5 -65t-12.5 -64.5t-36.5 -54t-58.5 -37t-77.5 -13.5h-332v483h180zM230 198v-57h118q17 0 27 8t10 20q0 13 -10 21t-27 8h-118zM608 0v483h180v-483h-180z" />
<glyph unicode="&#x44c;" horiz-adv-x="584" d="M230 483v-144h152q46 0 80.5 -13.5t58 -37t35 -54.5t11.5 -65t-12.5 -64.5t-36.5 -54t-58.5 -37t-77.5 -13.5h-332v483h180zM230 198v-57h118q17 0 27 8t10 20q0 13 -10 21t-27 8h-118z" />
<glyph unicode="&#x44d;" horiz-adv-x="502" d="M214 -12q-41 0 -74.5 8.5t-59 22t-43.5 29.5t-28 31l109 91q14 -20 35 -33.5t49 -13.5q29 0 53 16t36 47h-139v114h138q-12 29 -35.5 44t-52.5 15q-28 0 -49 -13t-35 -32l-109 90q10 15 28 31.5t43.5 29.5t59 21.5t74.5 8.5q57 0 106.5 -18t86 -51t57.5 -80t21 -104 q0 -58 -21 -105t-57.5 -80t-86 -51t-106.5 -18z" />
<glyph unicode="&#x44e;" horiz-adv-x="854" d="M565 -12q-53 0 -97 14.5t-77.5 39.5t-56 59t-32.5 73h-72v-174h-180v483h180v-153h79q13 35 36 65.5t55 52.5t73.5 34.5t91.5 12.5q64 0 115 -20.5t85.5 -55.5t53 -80.5t18.5 -96.5t-18.5 -97t-53 -81t-85.5 -55.5t-115 -20.5zM565 147q42 0 64.5 27t22.5 68 q0 40 -22.5 67t-64.5 27t-64 -27t-22 -67q0 -41 22 -68t64 -27z" />
<glyph unicode="&#x44f;" horiz-adv-x="602" d="M39 0l95 162q-14 6 -30 17.5t-30.5 29.5t-24 44t-9.5 61q0 34 12.5 64.5t36.5 54t58 37t78 13.5h332v-483h-180v144h-71l-67 -144h-200zM377 285v57h-118q-17 0 -27 -8t-10 -20q0 -13 10 -21t27 -8h118z" />
<glyph unicode="&#x451;" horiz-adv-x="543" d="M481 618q0 -38 -26 -63.5t-64 -25.5q-37 0 -63 25.5t-26 63.5t26 63.5t63 25.5q38 0 64 -25.5t26 -63.5zM264 618q0 -38 -25.5 -63.5t-63.5 -25.5t-63.5 25.5t-25.5 63.5t25.5 63.5t63.5 25.5t63.5 -25.5t25.5 -63.5zM286 -12q-57 0 -106 17.5t-85 50t-57 79.5t-21 107 q0 52 19 98.5t54 80.5t83 54t107 20q53 0 99 -18.5t79.5 -53.5t53 -85.5t19.5 -114.5v-37h-328q8 -23 33.5 -42t70.5 -19q10 0 25.5 2.5t31.5 7t30.5 10.5t23.5 14l74 -111q-18 -15 -42.5 -26.5t-51.5 -19t-56 -11t-56 -3.5zM360 300q-2 8 -6.5 18t-13.5 19t-23.5 15 t-36.5 6q-21 0 -35 -6t-23 -15t-14 -19t-7 -18h159z" />
<glyph unicode="&#x452;" horiz-adv-x="613" d="M236 521v-93q21 24 61.5 45.5t104.5 21.5q42 0 72.5 -11.5t50 -32t29 -48t9.5 -58.5v-324q0 -47 -11.5 -86.5t-36.5 -68.5t-63 -45.5t-90 -16.5q-27 0 -46 2t-34 5.5t-27.5 10t-27.5 15.5l43 133q15 -11 27 -15t33 -4q25 0 39 17.5t14 52.5v248q0 38 -19 52.5t-51 14.5 q-31 0 -48.5 -12.5t-28.5 -25.5v-298h-180v521h-49v97h49v49h180v-49h134v-97h-134z" />
<glyph unicode="&#x453;" horiz-adv-x="457" d="M298 556h-120l120 144h155zM442 327h-212v-327h-180v483h392v-156z" />
<glyph unicode="&#x454;" horiz-adv-x="502" d="M288 -12q-57 0 -106.5 18t-86 51t-57.5 80t-21 105q0 57 21 104t57.5 80t86 51t106.5 18q41 0 74.5 -8.5t59 -21.5t43.5 -29.5t28 -31.5l-109 -90q-14 19 -35 32t-49 13q-29 0 -53 -15t-36 -44h139v-114h-140q12 -31 36 -47t54 -16q28 0 49 13.5t35 33.5l109 -91 q-10 -15 -28 -31t-43.5 -29.5t-59 -22t-74.5 -8.5z" />
<glyph unicode="&#x455;" horiz-adv-x="490" d="M246 -12q-33 0 -67 5.5t-65.5 15.5t-58.5 23.5t-46 29.5l72 121q14 -11 35.5 -22t45.5 -19.5t48.5 -14t44.5 -5.5q28 0 38 6t10 15q0 11 -20.5 15.5t-50.5 9t-66 11.5t-66 24t-50.5 47t-20.5 80q0 33 14 62.5t41.5 52.5t67.5 36.5t93 13.5q61 0 114 -17t95 -45l-66 -117 q-23 19 -61.5 34.5t-80.5 15.5q-20 0 -32.5 -6.5t-12.5 -14.5q0 -10 20.5 -14t50.5 -8.5t66 -12.5t66 -26t50.5 -49t20.5 -81q0 -36 -15.5 -66.5t-45 -52.5t-72 -34.5t-96.5 -12.5z" />
<glyph unicode="&#x456;" horiz-adv-x="280" d="M140 518q-21 0 -39.5 8t-32 21.5t-21.5 32t-8 39.5t8 39.5t21.5 32t32 21.5t39.5 8t39.5 -8t32 -21.5t21.5 -32t8 -39.5t-8 -39.5t-21.5 -32t-32 -21.5t-39.5 -8zM50 0v483h180v-483h-180z" />
<glyph unicode="&#x457;" horiz-adv-x="280" d="M339 618q0 -38 -26 -63.5t-64 -25.5q-37 0 -63 25.5t-26 63.5t26 63.5t63 25.5q38 0 64 -25.5t26 -63.5zM122 618q0 -38 -25.5 -63.5t-63.5 -25.5t-63.5 25.5t-25.5 63.5t25.5 63.5t63.5 25.5t63.5 -25.5t25.5 -63.5zM50 0v483h180v-483h-180z" />
<glyph unicode="&#x458;" horiz-adv-x="280" d="M140 518q-21 0 -39.5 8t-32 21.5t-21.5 32t-8 39.5t8 39.5t21.5 32t32 21.5t39.5 8t39.5 -8t32 -21.5t21.5 -32t8 -39.5t-8 -39.5t-21.5 -32t-32 -21.5t-39.5 -8zM29 -196q-27 0 -46 2t-34 5.5t-27.5 10t-27.5 15.5l43 133q15 -11 27 -15t33 -4q25 0 39 17.5t14 52.5v462 h180v-462q0 -47 -11.5 -86.5t-36.5 -68.5t-63 -45.5t-90 -16.5z" />
<glyph unicode="&#x459;" horiz-adv-x="911" d="M18 135q12 0 23 5t20 18.5t16 36t12 57.5l34 231h434v-144h152q46 0 80.5 -13.5t58 -37t35 -54.5t11.5 -65t-12.5 -64.5t-36.5 -54t-58.5 -37t-77.5 -13.5h-332v327h-100l-14 -99q-8 -56 -24.5 -100t-45.5 -75.5t-72 -48t-103 -16.5v147zM557 198v-57h118q17 0 27 8 t10 20q0 13 -10 21t-27 8h-118z" />
<glyph unicode="&#x45a;" horiz-adv-x="911" d="M50 0v483h180v-144h147v144h180v-144h152q46 0 80.5 -13.5t58 -37t35 -54.5t11.5 -65t-12.5 -64.5t-36.5 -54t-58.5 -37t-77.5 -13.5h-332v183h-147v-183h-180zM557 198v-57h118q17 0 27 8t10 20q0 13 -10 21t-27 8h-118z" />
<glyph unicode="&#x45b;" horiz-adv-x="613" d="M236 521v-93q21 24 61.5 45.5t104.5 21.5q42 0 72.5 -11.5t50 -32t29 -48t9.5 -58.5v-345h-180v269q0 38 -19 52.5t-51 14.5q-31 0 -48.5 -12.5t-28.5 -25.5v-298h-180v521h-49v97h49v49h180v-49h134v-97h-134z" />
<glyph unicode="&#x45c;" horiz-adv-x="557" d="M331 556h-120l120 144h155zM348 0l-83 156l-35 -47v-109h-180v483h180v-172l111 172h217l-166 -220l177 -263h-221z" />
<glyph unicode="&#x45e;" horiz-adv-x="535" d="M70 -28q8 -5 18.5 -7t19.5 -2q54 0 63 19l4 10l-190 491h190l92 -276l93 276h190l-210 -543q-16 -42 -39 -68t-51.5 -41t-62.5 -20.5t-72 -6.5q-5 0 -14 0.5t-19.5 1.5t-20.5 2.5t-16 3.5zM443 612q-30 -41 -75.5 -64.5t-99.5 -23.5t-99.5 23.5t-76.5 64.5l76 62 q17 -23 42 -38t58 -15q63 0 100 53l75 -62v0z" />
<glyph unicode="&#x45f;" horiz-adv-x="607" d="M213 0h-163v483h180v-327h147v327h180v-483h-164v-123h-180v123z" />
<glyph unicode="&#x490;" horiz-adv-x="592" d="M256 0h-202v667h304v123h202v-299h-304v-491z" />
<glyph unicode="&#x491;" horiz-adv-x="457" d="M230 0h-180v483h212v123h180v-279h-212v-327z" />
<glyph unicode="&#x1e02;" horiz-adv-x="697" d="M54 0v667h405q52 0 89.5 -15.5t61.5 -40t35.5 -55t11.5 -59.5q0 -63 -32.5 -102.5t-81.5 -50.5q27 -4 50 -18t40.5 -35.5t27 -49.5t9.5 -60q0 -35 -12 -67.5t-36.5 -58t-61.5 -40.5t-87 -15h-419zM412 421q16 0 28 11t12 29q0 17 -12 27.5t-28 10.5h-156v-78h156z M418 168q22 0 34.5 11.5t12.5 30.5q0 18 -12.5 30.5t-34.5 12.5h-162v-85h162zM349 697q-37 0 -63 26t-26 63t26 63t63 26q18 0 34 -7t28 -19t19 -28.5t7 -34.5t-7 -34.5t-19 -28.5t-28 -19t-34 -7z" />
<glyph unicode="&#x1e03;" d="M230 179q13 -16 35 -24t40 -8q37 0 63.5 24.5t26.5 70.5q0 45 -26.5 69.5t-63.5 24.5q-18 0 -40 -8.5t-35 -24.5v-124zM50 0v667h180v-235q29 35 64 49t72 14q45 0 83.5 -17t67.5 -49.5t45.5 -79.5t16.5 -107q0 -62 -17 -109.5t-46 -79.5t-67.5 -48.5t-82.5 -16.5 q-37 0 -71 14t-65 49v-51h-180zM305 697q-37 0 -63 26t-26 63t26 63t63 26q18 0 34 -7t28 -19t19 -28.5t7 -34.5t-7 -34.5t-19 -28.5t-28 -19t-34 -7z" />
<glyph unicode="&#x1e0a;" horiz-adv-x="736" d="M54 0v667h298q79 0 146 -22t116 -64.5t76.5 -104.5t27.5 -142t-27.5 -142t-76.5 -105t-116 -65t-145 -22h-299zM352 176q38 0 68 13t50.5 34.5t31.5 50t11 60.5q0 34 -10 62.5t-29.5 49.5t-50 33t-70.5 12h-97v-315h96zM368 697q-37 0 -63 26t-26 63t26 63t63 26 q18 0 34 -7t28 -19t19 -28.5t7 -34.5t-7 -34.5t-19 -28.5t-28 -19t-34 -7z" />
<glyph unicode="&#x1e0b;" d="M366 0v51q-31 -35 -65 -49t-71 -14q-44 0 -82.5 16.5t-67.5 48.5t-46 79.5t-17 109.5q0 60 16.5 107t45.5 79.5t67.5 49.5t83.5 17q37 0 72 -14t64 -49v235h180v-667h-180zM291 147q18 0 40 8.5t35 24.5v124q-13 16 -35 24t-40 8q-37 0 -63.5 -24.5t-26.5 -69.5t26.5 -70 t63.5 -25zM293 697q-37 0 -63 26t-26 63t26 63t63 26q18 0 34 -7t28 -19t19 -28.5t7 -34.5t-7 -34.5t-19 -28.5t-28 -19t-34 -7z" />
<glyph unicode="&#x1e1e;" horiz-adv-x="592" d="M311 697q-37 0 -63 26t-26 63t26 63t63 26q18 0 34 -7t28 -19t19 -28.5t7 -34.5t-7 -34.5t-19 -28.5t-28 -19t-34 -7zM54 0v667h506v-176h-304v-66h297v-176h-297v-249h-202z" />
<glyph unicode="&#x1e1f;" horiz-adv-x="371" d="M272 697q-37 0 -63 26t-26 63t26 63t63 26q18 0 34 -7t28 -19t19 -28.5t7 -34.5t-7 -34.5t-19 -28.5t-28 -19t-34 -7zM87 0v327h-80v156h80v22q0 38 13.5 69.5t38 54.5t58.5 35.5t74 12.5q42 0 83.5 -12.5t67.5 -39.5l-65 -100q-16 19 -44 19q-17 0 -31.5 -10.5 t-14.5 -28.5v-22h98v-156h-98v-327h-180z" />
<glyph unicode="&#x1e22;" horiz-adv-x="751" d="M495 0v255h-239v-255h-202v667h202v-236h239v236h202v-667h-202zM376 697q-37 0 -63 26t-26 63t26 63t63 26q18 0 34 -7t28 -19t19 -28.5t7 -34.5t-7 -34.5t-19 -28.5t-28 -19t-34 -7z" />
<glyph unicode="&#x1e23;" horiz-adv-x="608" d="M378 0v269q0 38 -19 52.5t-51 14.5q-31 0 -48.5 -12.5t-28.5 -25.5v-298h-180v667h180v-239q21 24 61.5 45.5t104.5 21.5q42 0 72.5 -11.5t50 -32t29 -48t9.5 -58.5v-345h-180zM304 697q-37 0 -63 26t-26 63t26 63t63 26q18 0 34 -7t28 -19t19 -28.5t7 -34.5t-7 -34.5 t-19 -28.5t-28 -19t-34 -7z" />
<glyph unicode="&#x1e56;" horiz-adv-x="662" d="M54 0v667h356q58 0 103 -18t75.5 -49.5t46 -73t15.5 -88.5t-15.5 -88t-46 -72.5t-75.5 -49.5t-103 -18h-154v-210h-202zM384 386q26 0 43.5 13t17.5 39q0 27 -17.5 40t-43.5 13h-128v-105h128zM331 697q-37 0 -63 26t-26 63t26 63t63 26q18 0 34 -7t28 -19t19 -28.5 t7 -34.5t-7 -34.5t-19 -28.5t-28 -19t-34 -7z" />
<glyph unicode="&#x1e57;" horiz-adv-x="595" d="M366 -12q-38 0 -72 14t-64 49v-235h-180v667h180v-51q29 35 63.5 49t72.5 14q45 0 83.5 -16.5t67 -48.5t45 -79t16.5 -109t-16.5 -109.5t-45 -79.5t-67 -48.5t-83.5 -16.5zM304 147q36 0 63 24.5t27 70.5q0 45 -27 69.5t-63 24.5q-17 0 -39 -8.5t-35 -24.5v-123 q12 -15 34.5 -24t39.5 -9zM305 530q-37 0 -63 26t-26 63t26 63t63 26q18 0 34 -7t28 -19t19 -28.5t7 -34.5t-7 -34.5t-19 -28.5t-28 -19t-34 -7z" />
<glyph unicode="&#x1e60;" horiz-adv-x="613" d="M313 -12q-107 0 -181.5 29t-128.5 77l105 150q38 -36 92.5 -61t122.5 -25q29 0 51.5 8t22.5 28q0 16 -27.5 23.5t-69 14.5t-89.5 18.5t-89.5 35t-69 64t-27.5 106.5q0 42 17.5 82t52.5 71t86.5 49.5t120.5 18.5q82 0 154 -23t129 -70l-108 -143q-44 33 -96 49.5 t-100 16.5q-30 0 -40.5 -8.5t-10.5 -21.5q0 -16 27.5 -24t68.5 -15.5t89.5 -19.5t89.5 -35t68.5 -62t27.5 -101q0 -55 -20 -98t-57 -73t-90.5 -45.5t-120.5 -15.5zM307 697q-37 0 -63 26t-26 63t26 63t63 26q18 0 34 -7t28 -19t19 -28.5t7 -34.5t-7 -34.5t-19 -28.5t-28 -19 t-34 -7z" />
<glyph unicode="&#x1e61;" horiz-adv-x="490" d="M246 -12q-33 0 -67 5.5t-65.5 15.5t-58.5 23.5t-46 29.5l72 121q14 -11 35.5 -22t45.5 -19.5t48.5 -14t44.5 -5.5q28 0 38 6t10 15q0 11 -20.5 15.5t-50.5 9t-66 11.5t-66 24t-50.5 47t-20.5 80q0 33 14 62.5t41.5 52.5t67.5 36.5t93 13.5q61 0 114 -17t95 -45l-66 -117 q-23 19 -61.5 34.5t-80.5 15.5q-20 0 -32.5 -6.5t-12.5 -14.5q0 -10 20.5 -14t50.5 -8.5t66 -12.5t66 -26t50.5 -49t20.5 -81q0 -36 -15.5 -66.5t-45 -52.5t-72 -34.5t-96.5 -12.5zM245 530q-37 0 -63 26t-26 63t26 63t63 26q18 0 34 -7t28 -19t19 -28.5t7 -34.5t-7 -34.5 t-19 -28.5t-28 -19t-34 -7z" />
<glyph unicode="&#x1e6a;" horiz-adv-x="595" d="M197 0v491h-179v176h559v-176h-178v-491h-202zM298 697q-37 0 -63 26t-26 63t26 63t63 26q18 0 34 -7t28 -19t19 -28.5t7 -34.5t-7 -34.5t-19 -28.5t-28 -19t-34 -7z" />
<glyph unicode="&#x1e6b;" horiz-adv-x="382" d="M253 -12q-81 0 -123.5 38t-42.5 114v187h-80v156h80v132h180v-132h98v-156h-98v-135q0 -19 11 -32t29 -13q12 0 22.5 3t13.5 6l32 -136q-14 -13 -45 -22.5t-77 -9.5zM179 697q-37 0 -63 26t-26 63t26 63t63 26q18 0 34 -7t28 -19t19 -28.5t7 -34.5t-7 -34.5t-19 -28.5 t-28 -19t-34 -7z" />
<glyph unicode="&#x1e80;" horiz-adv-x="954" d="M563 0l-86 378l-86 -378h-212l-191 667h226l86 -408l101 408h152l101 -408l85 408h227l-191 -667h-212zM427 723l-155 144h155l120 -144h-120z" />
<glyph unicode="&#x1e81;" horiz-adv-x="805" d="M481 0l-79 270l-78 -270h-196l-140 483h185l64 -266l85 266h161l84 -266l64 266h186l-140 -483h-196zM349 556l-155 144h155l120 -144h-120z" />
<glyph unicode="&#x1e82;" horiz-adv-x="954" d="M529 723h-120l120 144h155zM563 0l-86 378l-86 -378h-212l-191 667h226l86 -408l101 408h152l101 -408l85 408h227l-191 -667h-212z" />
<glyph unicode="&#x1e83;" horiz-adv-x="805" d="M452 556h-120l120 144h155zM481 0l-79 270l-78 -270h-196l-140 483h185l64 -266l85 266h161l84 -266l64 266h186l-140 -483h-196z" />
<glyph unicode="&#x1e84;" horiz-adv-x="954" d="M674 785q0 -38 -26 -63.5t-64 -25.5q-37 0 -63 25.5t-26 63.5t26 63.5t63 25.5q38 0 64 -25.5t26 -63.5zM457 785q0 -38 -25.5 -63.5t-63.5 -25.5t-63.5 25.5t-25.5 63.5t25.5 63.5t63.5 25.5t63.5 -25.5t25.5 -63.5zM563 0l-86 378l-86 -378h-212l-191 667h226l86 -408 l101 408h152l101 -408l85 408h227l-191 -667h-212z" />
<glyph unicode="&#x1e85;" horiz-adv-x="805" d="M600 618q0 -38 -26 -63.5t-64 -25.5q-37 0 -63 25.5t-26 63.5t26 63.5t63 25.5q38 0 64 -25.5t26 -63.5zM383 618q0 -38 -25.5 -63.5t-63.5 -25.5t-63.5 25.5t-25.5 63.5t25.5 63.5t63.5 25.5t63.5 -25.5t25.5 -63.5zM481 0l-79 270l-78 -270h-196l-140 483h185l64 -266 l85 266h161l84 -266l64 266h186l-140 -483h-196z" />
<glyph unicode="&#x1ea0;" horiz-adv-x="710" d="M499 0l-24 78h-240l-24 -78h-229l246 667h254l246 -667h-229zM355 469l-66 -215h132zM356 -208q-37 0 -63 26t-26 63t26 63t63 26q18 0 34 -7t28 -19t19 -28.5t7 -34.5t-7 -34.5t-19 -28.5t-28 -19t-34 -7z" />
<glyph unicode="&#x1ea1;" horiz-adv-x="559" d="M329 0v46q-20 -26 -60.5 -42t-85.5 -16q-27 0 -56.5 9.5t-53.5 29t-40 49.5t-16 71q0 45 16 74.5t40 47.5t53.5 25t56.5 7q48 0 87 -14t59 -39v50q0 26 -22.5 43t-67.5 17q-34 0 -69.5 -12.5t-64.5 -34.5l-61 111q49 39 111 56t117 17q45 0 87.5 -9t76 -32t53.5 -62.5 t20 -99.5v-292h-180zM258 105q21 0 41.5 6.5t29.5 19.5v27q-9 13 -29.5 19.5t-41.5 6.5q-23 0 -43 -9t-20 -31q0 -11 5.5 -18.5t14.5 -12t20.5 -6.5t22.5 -2zM280 -208q-37 0 -63 26t-26 63t26 63t63 26q18 0 34 -7t28 -19t19 -28.5t7 -34.5t-7 -34.5t-19 -28.5t-28 -19 t-34 -7z" />
<glyph unicode="&#x1ea2;" horiz-adv-x="710" d="M499 0l-24 78h-240l-24 -78h-229l246 667h254l246 -667h-229zM355 469l-66 -215h132zM268 762q11 31 34.5 44.5t51.5 13.5q35 0 61.5 -17.5t26.5 -57.5q0 -14 -3.5 -25.5t-8.5 -22.5h-70q17 18 17 44q0 14 -7.5 19.5t-15.5 5.5q-11 0 -17.5 -7t-10.5 -16z" />
<glyph unicode="&#x1ea3;" horiz-adv-x="559" d="M329 0v46q-20 -26 -60.5 -42t-85.5 -16q-27 0 -56.5 9.5t-53.5 29t-40 49.5t-16 71q0 45 16 74.5t40 47.5t53.5 25t56.5 7q48 0 87 -14t59 -39v50q0 26 -22.5 43t-67.5 17q-34 0 -69.5 -12.5t-64.5 -34.5l-61 111q49 39 111 56t117 17q45 0 87.5 -9t76 -32t53.5 -62.5 t20 -99.5v-292h-180zM258 105q21 0 41.5 6.5t29.5 19.5v27q-9 13 -29.5 19.5t-41.5 6.5q-23 0 -43 -9t-20 -31q0 -11 5.5 -18.5t14.5 -12t20.5 -6.5t22.5 -2zM192 593q11 31 34.5 44.5t51.5 13.5q35 0 61.5 -17.5t26.5 -57.5q0 -14 -3.5 -25.5t-8.5 -22.5h-70q17 18 17 44 q0 14 -7.5 19.5t-15.5 5.5q-11 0 -17.5 -7t-10.5 -16z" />
<glyph unicode="&#x1ea4;" horiz-adv-x="710" d="M419 616l-64 54.75l-61 -54.75h-105l88 108h156l91 -108h-105zM499 0l-24 78h-240l-24 -78h-229l246 667h254l246 -667h-229zM355 469l-66 -215h132zM609 655h-120l120 108h155z" />
<glyph unicode="&#x1ea5;" horiz-adv-x="559" d="M329 0v46q-20 -26 -60.5 -42t-85.5 -16q-27 0 -56.5 9.5t-53.5 29t-40 49.5t-16 71q0 45 16 74.5t40 47.5t53.5 25t56.5 7q48 0 87 -14t59 -39v50q0 26 -22.5 43t-67.5 17q-34 0 -69.5 -12.5t-64.5 -34.5l-61 111q49 39 111 56t117 17q45 0 87.5 -9t76 -32t53.5 -62.5 t20 -99.5v-292h-180zM258 105q21 0 41.5 6.5t29.5 19.5v27q-9 13 -29.5 19.5t-41.5 6.5q-23 0 -43 -9t-20 -31q0 -11 5.5 -18.5t14.5 -12t20.5 -6.5t22.5 -2zM341 556l-64 73l-61 -73h-105l88 144h156l91 -144h-105zM524 626h-120l120 144h155z" />
<glyph unicode="&#x1ea6;" horiz-adv-x="710" d="M419 616l-64 54.75l-61 -54.75h-105l88 108h156l91 -108h-105zM499 0l-24 78h-240l-24 -78h-229l246 667h254l246 -667h-229zM355 469l-66 -215h132zM107 655l-155 108h155l120 -108h-120z" />
<glyph unicode="&#x1ea7;" horiz-adv-x="559" d="M329 0v46q-20 -26 -60.5 -42t-85.5 -16q-27 0 -56.5 9.5t-53.5 29t-40 49.5t-16 71q0 45 16 74.5t40 47.5t53.5 25t56.5 7q48 0 87 -14t59 -39v50q0 26 -22.5 43t-67.5 17q-34 0 -69.5 -12.5t-64.5 -34.5l-61 111q49 39 111 56t117 17q45 0 87.5 -9t76 -32t53.5 -62.5 t20 -99.5v-292h-180zM258 105q21 0 41.5 6.5t29.5 19.5v27q-9 13 -29.5 19.5t-41.5 6.5q-23 0 -43 -9t-20 -31q0 -11 5.5 -18.5t14.5 -12t20.5 -6.5t22.5 -2zM341 556l-64 73l-61 -73h-105l88 144h156l91 -144h-105zM28 626l-155 144h155l120 -144h-120z" />
<glyph unicode="&#x1ea8;" horiz-adv-x="710" d="M419 616l-64 54.75l-61 -54.75h-105l88 108h156l91 -108h-105zM499 0l-24 78h-240l-24 -78h-229l246 667h254l246 -667h-229zM355 469l-66 -215h132zM449 733q11 23.25 34.5 33.375t51.5 10.125q35 0 61.5 -13.125t26.5 -43.125q0 -10.5 -3.5 -19.125t-8.5 -16.875h-70 q17 13.5 17 33q0 10.5 -7.5 14.625t-15.5 4.125q-11 0 -17.5 -5.25t-10.5 -12z" />
<glyph unicode="&#x1ea9;" horiz-adv-x="559" d="M329 0v46q-20 -26 -60.5 -42t-85.5 -16q-27 0 -56.5 9.5t-53.5 29t-40 49.5t-16 71q0 45 16 74.5t40 47.5t53.5 25t56.5 7q48 0 87 -14t59 -39v50q0 26 -22.5 43t-67.5 17q-34 0 -69.5 -12.5t-64.5 -34.5l-61 111q49 39 111 56t117 17q45 0 87.5 -9t76 -32t53.5 -62.5 t20 -99.5v-292h-180zM258 105q21 0 41.5 6.5t29.5 19.5v27q-9 13 -29.5 19.5t-41.5 6.5q-23 0 -43 -9t-20 -31q0 -11 5.5 -18.5t14.5 -12t20.5 -6.5t22.5 -2zM341 556l-64 73l-61 -73h-105l88 144h156l91 -144h-105zM310 732q11 31 34.5 44.5t51.5 13.5q35 0 61.5 -17.5 t26.5 -57.5q0 -14 -3.5 -25.5t-8.5 -22.5h-70q17 18 17 44q0 14 -7.5 19.5t-15.5 5.5q-11 0 -17.5 -7t-10.5 -16z" />
<glyph unicode="&#x1eaa;" horiz-adv-x="710" d="M419 478l-64 36.5l-61 -36.5h-105l88 72h156l91 -72h-105zM499 0l-24 78h-240l-24 -78h-229l246 667h254l246 -667h-229zM355 469l-66 -215h132zM407 517q-23 0 -39.5 3.25t-28.5 7.5t-22 7.5t-20 3.25t-17 -4.5t-7 -14h-89q0 34.5 30 50.75t88 16.25q23 0 39.5 -3.25 t28.5 -7.5t22 -7.5t20 -3.25t17 4.5t7 14h89q0 -34.5 -30 -50.75t-88 -16.25z" />
<glyph unicode="&#x1eab;" horiz-adv-x="559" d="M329 0v46q-20 -26 -60.5 -42t-85.5 -16q-27 0 -56.5 9.5t-53.5 29t-40 49.5t-16 71q0 45 16 74.5t40 47.5t53.5 25t56.5 7q48 0 87 -14t59 -39v50q0 26 -22.5 43t-67.5 17q-34 0 -69.5 -12.5t-64.5 -34.5l-61 111q49 39 111 56t117 17q45 0 87.5 -9t76 -32t53.5 -62.5 t20 -99.5v-292h-180zM258 105q21 0 41.5 6.5t29.5 19.5v27q-9 13 -29.5 19.5t-41.5 6.5q-23 0 -43 -9t-20 -31q0 -11 5.5 -18.5t14.5 -12t20.5 -6.5t22.5 -2zM341 524l-64 73l-61 -73h-105l88 144h156l91 -144h-105zM332 682q-23 0 -39.5 6.5t-28.5 15t-22 15t-20 6.5 t-17 -9t-7 -28h-89q0 69 30 101.5t88 32.5q23 0 39.5 -6.5t28.5 -15t22 -15t20 -6.5t17 9t7 28h89q0 -69 -30 -101.5t-88 -32.5z" />
<glyph unicode="&#x1eac;" horiz-adv-x="710" d="M499 0l-24 78h-240l-24 -78h-229l246 667h254l246 -667h-229zM355 469l-66 -215h132zM418 723l-64 73l-61 -73h-105l88 144h156l91 -144h-105zM356 -208q-37 0 -63 26t-26 63t26 63t63 26q18 0 34 -7t28 -19t19 -28.5t7 -34.5t-7 -34.5t-19 -28.5t-28 -19t-34 -7z" />
<glyph unicode="&#x1ead;" horiz-adv-x="559" d="M329 0v46q-20 -26 -60.5 -42t-85.5 -16q-27 0 -56.5 9.5t-53.5 29t-40 49.5t-16 71q0 45 16 74.5t40 47.5t53.5 25t56.5 7q48 0 87 -14t59 -39v50q0 26 -22.5 43t-67.5 17q-34 0 -69.5 -12.5t-64.5 -34.5l-61 111q49 39 111 56t117 17q45 0 87.5 -9t76 -32t53.5 -62.5 t20 -99.5v-292h-180zM258 105q21 0 41.5 6.5t29.5 19.5v27q-9 13 -29.5 19.5t-41.5 6.5q-23 0 -43 -9t-20 -31q0 -11 5.5 -18.5t14.5 -12t20.5 -6.5t22.5 -2zM342 556l-64 73l-61 -73h-105l88 144h156l91 -144h-105zM280 -208q-37 0 -63 26t-26 63t26 63t63 26q18 0 34 -7 t28 -19t19 -28.5t7 -34.5t-7 -34.5t-19 -28.5t-28 -19t-34 -7z" />
<glyph unicode="&#x1eae;" horiz-adv-x="710" d="M499 0l-24 78h-240l-24 -78h-229l246 667h254l246 -667h-229zM355 469l-66 -215h132zM409 516h-120l120 72h155zM530 518q-30 -20.5 -75.5 -32.25t-99.5 -11.75t-99.5 11.75t-76.5 32.25l76 31q17 -11.5 42 -19t58 -7.5q63 0 100 26.5l75 -31v0z" />
<glyph unicode="&#x1eaf;" horiz-adv-x="559" d="M329 0v46q-20 -26 -60.5 -42t-85.5 -16q-27 0 -56.5 9.5t-53.5 29t-40 49.5t-16 71q0 45 16 74.5t40 47.5t53.5 25t56.5 7q48 0 87 -14t59 -39v50q0 26 -22.5 43t-67.5 17q-34 0 -69.5 -12.5t-64.5 -34.5l-61 111q49 39 111 56t117 17q45 0 87.5 -9t76 -32t53.5 -62.5 t20 -99.5v-292h-180zM258 105q21 0 41.5 6.5t29.5 19.5v27q-9 13 -29.5 19.5t-41.5 6.5q-23 0 -43 -9t-20 -31q0 -11 5.5 -18.5t14.5 -12t20.5 -6.5t22.5 -2zM332 646h-120l120 144h155zM451 600q-30 -41 -75.5 -64.5t-99.5 -23.5t-99.5 23.5t-76.5 64.5l76 62 q17 -23 42 -38t58 -15q63 0 100 53l75 -62v0z" />
<glyph unicode="&#x1eb0;" horiz-adv-x="710" d="M499 0l-24 78h-240l-24 -78h-229l246 667h254l246 -667h-229zM355 469l-66 -215h132zM303 516l-155 72h155l120 -72h-120zM530 515q-30 -20.5 -75.5 -32.25t-99.5 -11.75t-99.5 11.75t-76.5 32.25l76 31q17 -11.5 42 -19t58 -7.5q63 0 100 26.5l75 -31v0z" />
<glyph unicode="&#x1eb1;" horiz-adv-x="559" d="M329 0v46q-20 -26 -60.5 -42t-85.5 -16q-27 0 -56.5 9.5t-53.5 29t-40 49.5t-16 71q0 45 16 74.5t40 47.5t53.5 25t56.5 7q48 0 87 -14t59 -39v50q0 26 -22.5 43t-67.5 17q-34 0 -69.5 -12.5t-64.5 -34.5l-61 111q49 39 111 56t117 17q45 0 87.5 -9t76 -32t53.5 -62.5 t20 -99.5v-292h-180zM258 105q21 0 41.5 6.5t29.5 19.5v27q-9 13 -29.5 19.5t-41.5 6.5q-23 0 -43 -9t-20 -31q0 -11 5.5 -18.5t14.5 -12t20.5 -6.5t22.5 -2zM222 646l-155 144h155l120 -144h-120zM451 600q-30 -41 -75.5 -64.5t-99.5 -23.5t-99.5 23.5t-76.5 64.5l76 62 q17 -23 42 -38t58 -15q63 0 100 53l75 -62v0z" />
<glyph unicode="&#x1eb2;" horiz-adv-x="710" d="M499 0l-24 78h-240l-24 -78h-229l246 667h254l246 -667h-229zM355 469l-66 -215h132zM268 576q11 15.5 34.5 22.25t51.5 6.75q35 0 61.5 -8.75t26.5 -28.75q0 -7 -3.5 -12.75t-8.5 -11.25h-70q17 9 17 22q0 7 -7.5 9.75t-15.5 2.75q-11 0 -17.5 -3.5t-10.5 -8zM530 515 q-30 -20.5 -75.5 -32.25t-99.5 -11.75t-99.5 11.75t-76.5 32.25l76 31q17 -11.5 42 -19t58 -7.5q63 0 100 26.5l75 -31v0z" />
<glyph unicode="&#x1eb3;" horiz-adv-x="559" d="M329 0v46q-20 -26 -60.5 -42t-85.5 -16q-27 0 -56.5 9.5t-53.5 29t-40 49.5t-16 71q0 45 16 74.5t40 47.5t53.5 25t56.5 7q48 0 87 -14t59 -39v50q0 26 -22.5 43t-67.5 17q-34 0 -69.5 -12.5t-64.5 -34.5l-61 111q49 39 111 56t117 17q45 0 87.5 -9t76 -32t53.5 -62.5 t20 -99.5v-292h-180zM258 105q21 0 41.5 6.5t29.5 19.5v27q-9 13 -29.5 19.5t-41.5 6.5q-23 0 -43 -9t-20 -31q0 -11 5.5 -18.5t14.5 -12t20.5 -6.5t22.5 -2zM190 723q11 31 34.5 44.5t51.5 13.5q35 0 61.5 -17.5t26.5 -57.5q0 -14 -3.5 -25.5t-8.5 -22.5h-70q17 18 17 44 q0 14 -7.5 19.5t-15.5 5.5q-11 0 -17.5 -7t-10.5 -16zM451 600q-30 -41 -75.5 -64.5t-99.5 -23.5t-99.5 23.5t-76.5 64.5l76 62q17 -23 42 -38t58 -15q63 0 100 53l75 -62v0z" />
<glyph unicode="&#x1eb4;" horiz-adv-x="710" d="M499 0l-24 78h-240l-24 -78h-229l246 667h254l246 -667h-229zM355 469l-66 -215h132zM531 514q-30 -20.5 -75.5 -32.25t-99.5 -11.75t-99.5 11.75t-76.5 32.25l76 31q17 -11.5 42 -19t58 -7.5q63 0 100 26.5l75 -31v0zM407 517q-23 0 -39.5 3.25t-28.5 7.5t-22 7.5 t-20 3.25t-17 -4.5t-7 -14h-89q0 34.5 30 50.75t88 16.25q23 0 39.5 -3.25t28.5 -7.5t22 -7.5t20 -3.25t17 4.5t7 14h89q0 -34.5 -30 -50.75t-88 -16.25z" />
<glyph unicode="&#x1eb5;" horiz-adv-x="559" d="M329 0v46q-20 -26 -60.5 -42t-85.5 -16q-27 0 -56.5 9.5t-53.5 29t-40 49.5t-16 71q0 45 16 74.5t40 47.5t53.5 25t56.5 7q48 0 87 -14t59 -39v50q0 26 -22.5 43t-67.5 17q-34 0 -69.5 -12.5t-64.5 -34.5l-61 111q49 39 111 56t117 17q45 0 87.5 -9t76 -32t53.5 -62.5 t20 -99.5v-292h-180zM258 105q21 0 41.5 6.5t29.5 19.5v27q-9 13 -29.5 19.5t-41.5 6.5q-23 0 -43 -9t-20 -31q0 -11 5.5 -18.5t14.5 -12t20.5 -6.5t22.5 -2zM451 600q-30 -41 -75.5 -64.5t-99.5 -23.5t-99.5 23.5t-76.5 64.5l76 62q17 -23 42 -38t58 -15q63 0 100 53 l75 -62v0zM323 660q-23 0 -39.5 6.5t-28.5 15t-22 15t-20 6.5t-17 -9t-7 -28h-89q0 69 30 101.5t88 32.5q23 0 39.5 -6.5t28.5 -15t22 -15t20 -6.5t17 9t7 28h89q0 -69 -30 -101.5t-88 -32.5z" />
<glyph unicode="&#x1eb6;" horiz-adv-x="710" d="M499 0l-24 78h-240l-24 -78h-229l246 667h254l246 -667h-229zM355 469l-66 -215h132zM356 -208q-37 0 -63 26t-26 63t26 63t63 26q18 0 34 -7t28 -19t19 -28.5t7 -34.5t-7 -34.5t-19 -28.5t-28 -19t-34 -7zM530 779q-30 -41 -75.5 -64.5t-99.5 -23.5t-99.5 23.5 t-76.5 64.5l76 62q17 -23 42 -38t58 -15q63 0 100 53l75 -62v0z" />
<glyph unicode="&#x1eb7;" horiz-adv-x="559" d="M329 0v46q-20 -26 -60.5 -42t-85.5 -16q-27 0 -56.5 9.5t-53.5 29t-40 49.5t-16 71q0 45 16 74.5t40 47.5t53.5 25t56.5 7q48 0 87 -14t59 -39v50q0 26 -22.5 43t-67.5 17q-34 0 -69.5 -12.5t-64.5 -34.5l-61 111q49 39 111 56t117 17q45 0 87.5 -9t76 -32t53.5 -62.5 t20 -99.5v-292h-180zM258 105q21 0 41.5 6.5t29.5 19.5v27q-9 13 -29.5 19.5t-41.5 6.5q-23 0 -43 -9t-20 -31q0 -11 5.5 -18.5t14.5 -12t20.5 -6.5t22.5 -2zM280 -208q-37 0 -63 26t-26 63t26 63t63 26q18 0 34 -7t28 -19t19 -28.5t7 -34.5t-7 -34.5t-19 -28.5t-28 -19 t-34 -7zM451 612q-30 -41 -75.5 -64.5t-99.5 -23.5t-99.5 23.5t-76.5 64.5l76 62q17 -23 42 -38t58 -15q63 0 100 53l75 -62v0z" />
<glyph unicode="&#x1eb8;" d="M54 0v667h506v-176h-304v-66h297v-176h-297v-73h304v-176h-506zM306 -208q-37 0 -63 26t-26 63t26 63t63 26q18 0 34 -7t28 -19t19 -28.5t7 -34.5t-7 -34.5t-19 -28.5t-28 -19t-34 -7z" />
<glyph unicode="&#x1eb9;" horiz-adv-x="543" d="M286 -12q-57 0 -106 17.5t-85 50t-57 79.5t-21 107q0 52 19 98.5t54 80.5t83 54t107 20q53 0 99 -18.5t79.5 -53.5t53 -85.5t19.5 -114.5v-37h-328q8 -23 33.5 -42t70.5 -19q10 0 25.5 2.5t31.5 7t30.5 10.5t23.5 14l74 -111q-18 -15 -42.5 -26.5t-51.5 -19t-56 -11 t-56 -3.5zM360 300q-2 8 -6.5 18t-13.5 19t-23.5 15t-36.5 6q-21 0 -35 -6t-23 -15t-14 -19t-7 -18h159zM282 -208q-37 0 -63 26t-26 63t26 63t63 26q18 0 34 -7t28 -19t19 -28.5t7 -34.5t-7 -34.5t-19 -28.5t-28 -19t-34 -7z" />
<glyph unicode="&#x1eba;" d="M54 0v667h506v-176h-304v-66h297v-176h-297v-73h304v-176h-506zM211 762q11 31 34.5 44.5t51.5 13.5q35 0 61.5 -17.5t26.5 -57.5q0 -14 -3.5 -25.5t-8.5 -22.5h-70q17 18 17 44q0 14 -7.5 19.5t-15.5 5.5q-11 0 -17.5 -7t-10.5 -16z" />
<glyph unicode="&#x1ebb;" horiz-adv-x="543" d="M286 -12q-57 0 -106 17.5t-85 50t-57 79.5t-21 107q0 52 19 98.5t54 80.5t83 54t107 20q53 0 99 -18.5t79.5 -53.5t53 -85.5t19.5 -114.5v-37h-328q8 -23 33.5 -42t70.5 -19q10 0 25.5 2.5t31.5 7t30.5 10.5t23.5 14l74 -111q-18 -15 -42.5 -26.5t-51.5 -19t-56 -11 t-56 -3.5zM360 300q-2 8 -6.5 18t-13.5 19t-23.5 15t-36.5 6q-21 0 -35 -6t-23 -15t-14 -19t-7 -18h159zM184 593q11 31 34.5 44.5t51.5 13.5q35 0 61.5 -17.5t26.5 -57.5q0 -14 -3.5 -25.5t-8.5 -22.5h-70q17 18 17 44q0 14 -7.5 19.5t-15.5 5.5q-11 0 -17.5 -7t-10.5 -16z " />
<glyph unicode="&#x1ebc;" d="M54 0v667h506v-176h-304v-66h297v-176h-297v-73h304v-176h-506zM375 721q-23 0 -39.5 6.5t-28.5 15t-22 15t-20 6.5t-17 -9t-7 -28h-89q0 69 30 101.5t88 32.5q23 0 39.5 -6.5t28.5 -15t22 -15t20 -6.5t17 9t7 28h89q0 -69 -30 -101.5t-88 -32.5z" />
<glyph unicode="&#x1ebd;" horiz-adv-x="543" d="M286 -12q-57 0 -106 17.5t-85 50t-57 79.5t-21 107q0 52 19 98.5t54 80.5t83 54t107 20q53 0 99 -18.5t79.5 -53.5t53 -85.5t19.5 -114.5v-37h-328q8 -23 33.5 -42t70.5 -19q10 0 25.5 2.5t31.5 7t30.5 10.5t23.5 14l74 -111q-18 -15 -42.5 -26.5t-51.5 -19t-56 -11 t-56 -3.5zM360 300q-2 8 -6.5 18t-13.5 19t-23.5 15t-36.5 6q-21 0 -35 -6t-23 -15t-14 -19t-7 -18h159zM324 554q-23 0 -39.5 6.5t-28.5 15t-22 15t-20 6.5t-17 -9t-7 -28h-89q0 69 30 101.5t88 32.5q23 0 39.5 -6.5t28.5 -15t22 -15t20 -6.5t17 9t7 28h89 q0 -69 -30 -101.5t-88 -32.5z" />
<glyph unicode="&#x1ebe;" d="M376 616l-64 54.75l-61 -54.75h-105l88 108h156l91 -108h-105zM566 655h-120l120 108h155zM54 0v667h506v-176h-304v-66h297v-176h-297v-73h304v-176h-506z" />
<glyph unicode="&#x1ebf;" horiz-adv-x="543" d="M341 556l-64 73l-61 -73h-105l88 144h156l91 -144h-105zM524 626h-120l120 144h155zM286 -12q-57 0 -106 17.5t-85 50t-57 79.5t-21 107q0 52 19 98.5t54 80.5t83 54t107 20q53 0 99 -18.5t79.5 -53.5t53 -85.5t19.5 -114.5v-37h-328q8 -23 33.5 -42t70.5 -19 q10 0 25.5 2.5t31.5 7t30.5 10.5t23.5 14l74 -111q-18 -15 -42.5 -26.5t-51.5 -19t-56 -11t-56 -3.5zM360 300q-2 8 -6.5 18t-13.5 19t-23.5 15t-36.5 6q-21 0 -35 -6t-23 -15t-14 -19t-7 -18h159z" />
<glyph unicode="&#x1ec0;" d="M379 616l-64 54.75l-61 -54.75h-105l88 108h156l91 -108h-105zM54 0v667h506v-176h-304v-66h297v-176h-297v-73h304v-176h-506zM67 655l-155 108h155l120 -108h-120z" />
<glyph unicode="&#x1ec1;" horiz-adv-x="543" d="M341 556l-64 73l-61 -73h-105l88 144h156l91 -144h-105zM286 -12q-57 0 -106 17.5t-85 50t-57 79.5t-21 107q0 52 19 98.5t54 80.5t83 54t107 20q53 0 99 -18.5t79.5 -53.5t53 -85.5t19.5 -114.5v-37h-328q8 -23 33.5 -42t70.5 -19q10 0 25.5 2.5t31.5 7t30.5 10.5 t23.5 14l74 -111q-18 -15 -42.5 -26.5t-51.5 -19t-56 -11t-56 -3.5zM360 300q-2 8 -6.5 18t-13.5 19t-23.5 15t-36.5 6q-21 0 -35 -6t-23 -15t-14 -19t-7 -18h159zM28 626l-155 144h155l120 -144h-120z" />
<glyph unicode="&#x1ec2;" d="M374 616l-64 54.75l-61 -54.75h-105l88 108h156l91 -108h-105zM54 0v667h506v-176h-304v-66h297v-176h-297v-73h304v-176h-506zM404 733q11 23.25 34.5 33.375t51.5 10.125q35 0 61.5 -13.125t26.5 -43.125q0 -10.5 -3.5 -19.125t-8.5 -16.875h-70q17 13.5 17 33 q0 10.5 -7.5 14.625t-15.5 4.125q-11 0 -17.5 -5.25t-10.5 -12z" />
<glyph unicode="&#x1ec3;" horiz-adv-x="543" d="M341 556l-64 73l-61 -73h-105l88 144h156l91 -144h-105zM286 -12q-57 0 -106 17.5t-85 50t-57 79.5t-21 107q0 52 19 98.5t54 80.5t83 54t107 20q53 0 99 -18.5t79.5 -53.5t53 -85.5t19.5 -114.5v-37h-328q8 -23 33.5 -42t70.5 -19q10 0 25.5 2.5t31.5 7t30.5 10.5 t23.5 14l74 -111q-18 -15 -42.5 -26.5t-51.5 -19t-56 -11t-56 -3.5zM360 300q-2 8 -6.5 18t-13.5 19t-23.5 15t-36.5 6q-21 0 -35 -6t-23 -15t-14 -19t-7 -18h159zM310 732q11 31 34.5 44.5t51.5 13.5q35 0 61.5 -17.5t26.5 -57.5q0 -14 -3.5 -25.5t-8.5 -22.5h-70 q17 18 17 44q0 14 -7.5 19.5t-15.5 5.5q-11 0 -17.5 -7t-10.5 -16z" />
<glyph unicode="&#x1ec4;" d="M375 478l-64 36.5l-61 -36.5h-105l88 72h156l91 -72h-105zM54 0v667h506v-176h-304v-66h297v-176h-297v-73h304v-176h-506zM363 517q-23 0 -39.5 3.25t-28.5 7.5t-22 7.5t-20 3.25t-17 -4.5t-7 -14h-89q0 34.5 30 50.75t88 16.25q23 0 39.5 -3.25t28.5 -7.5t22 -7.5 t20 -3.25t17 4.5t7 14h89q0 -34.5 -30 -50.75t-88 -16.25z" />
<glyph unicode="&#x1ec5;" horiz-adv-x="543" d="M341 524l-64 73l-61 -73h-105l88 144h156l91 -144h-105zM286 -12q-57 0 -106 17.5t-85 50t-57 79.5t-21 107q0 52 19 98.5t54 80.5t83 54t107 20q53 0 99 -18.5t79.5 -53.5t53 -85.5t19.5 -114.5v-37h-328q8 -23 33.5 -42t70.5 -19q10 0 25.5 2.5t31.5 7t30.5 10.5 t23.5 14l74 -111q-18 -15 -42.5 -26.5t-51.5 -19t-56 -11t-56 -3.5zM360 300q-2 8 -6.5 18t-13.5 19t-23.5 15t-36.5 6q-21 0 -35 -6t-23 -15t-14 -19t-7 -18h159zM332 682q-23 0 -39.5 6.5t-28.5 15t-22 15t-20 6.5t-17 -9t-7 -28h-89q0 69 30 101.5t88 32.5 q23 0 39.5 -6.5t28.5 -15t22 -15t20 -6.5t17 9t7 28h89q0 -69 -30 -101.5t-88 -32.5z" />
<glyph unicode="&#x1ec6;" d="M370 723l-64 73l-61 -73h-105l88 144h156l91 -144h-105zM54 0v667h506v-176h-304v-66h297v-176h-297v-73h304v-176h-506zM306 -208q-37 0 -63 26t-26 63t26 63t63 26q18 0 34 -7t28 -19t19 -28.5t7 -34.5t-7 -34.5t-19 -28.5t-28 -19t-34 -7z" />
<glyph unicode="&#x1ec7;" horiz-adv-x="543" d="M344 556l-64 73l-61 -73h-105l88 144h156l91 -144h-105zM286 -12q-57 0 -106 17.5t-85 50t-57 79.5t-21 107q0 52 19 98.5t54 80.5t83 54t107 20q53 0 99 -18.5t79.5 -53.5t53 -85.5t19.5 -114.5v-37h-328q8 -23 33.5 -42t70.5 -19q10 0 25.5 2.5t31.5 7t30.5 10.5 t23.5 14l74 -111q-18 -15 -42.5 -26.5t-51.5 -19t-56 -11t-56 -3.5zM360 300q-2 8 -6.5 18t-13.5 19t-23.5 15t-36.5 6q-21 0 -35 -6t-23 -15t-14 -19t-7 -18h159zM282 -208q-37 0 -63 26t-26 63t26 63t63 26q18 0 34 -7t28 -19t19 -28.5t7 -34.5t-7 -34.5t-19 -28.5 t-28 -19t-34 -7z" />
<glyph unicode="&#x1ec8;" horiz-adv-x="310" d="M54 0v667h202v-667h-202zM68 762q11 31 34.5 44.5t51.5 13.5q35 0 61.5 -17.5t26.5 -57.5q0 -14 -3.5 -25.5t-8.5 -22.5h-70q17 18 17 44q0 14 -7.5 19.5t-15.5 5.5q-11 0 -17.5 -7t-10.5 -16z" />
<glyph unicode="&#x1ec9;" horiz-adv-x="280" d="M50 0v483h180v-483h-180zM53 593q11 31 34.5 44.5t51.5 13.5q35 0 61.5 -17.5t26.5 -57.5q0 -14 -3.5 -25.5t-8.5 -22.5h-70q17 18 17 44q0 14 -7.5 19.5t-15.5 5.5q-11 0 -17.5 -7t-10.5 -16z" />
<glyph unicode="&#x1eca;" horiz-adv-x="310" d="M54 0v667h202v-667h-202zM159 -208q-37 0 -63 26t-26 63t26 63t63 26q18 0 34 -7t28 -19t19 -28.5t7 -34.5t-7 -34.5t-19 -28.5t-28 -19t-34 -7z" />
<glyph unicode="&#x1ecb;" horiz-adv-x="280" d="M140 518q-21 0 -39.5 8t-32 21.5t-21.5 32t-8 39.5t8 39.5t21.5 32t32 21.5t39.5 8t39.5 -8t32 -21.5t21.5 -32t8 -39.5t-8 -39.5t-21.5 -32t-32 -21.5t-39.5 -8zM50 0v483h180v-483h-180zM143 -208q-37 0 -63 26t-26 63t26 63t63 26q18 0 34 -7t28 -19t19 -28.5t7 -34.5 t-7 -34.5t-19 -28.5t-28 -19t-34 -7z" />
<glyph unicode="&#x1ecc;" horiz-adv-x="766" d="M383 -12q-77 0 -144 25t-116 70.5t-77 109t-28 140.5t28 140.5t77 109t116 70.5t144 25t144 -25t116 -70.5t77 -109t28 -140.5t-28 -140.5t-77 -109t-116 -70.5t-144 -25zM383 166q36 0 65.5 13t50.5 35.5t32.5 53t11.5 65.5t-11.5 65.5t-32.5 53t-50.5 35.5t-65.5 13 t-65.5 -13t-50.5 -35.5t-32.5 -53t-11.5 -65.5t11.5 -65.5t32.5 -53t50.5 -35.5t65.5 -13zM385 -208q-37 0 -63 26t-26 63t26 63t63 26q18 0 34 -7t28 -19t19 -28.5t7 -34.5t-7 -34.5t-19 -28.5t-28 -19t-34 -7z" />
<glyph unicode="&#x1ecd;" horiz-adv-x="577" d="M288 -12q-64 0 -114.5 20.5t-85 55.5t-53 81t-18.5 97t18.5 96.5t53 80.5t85 55.5t114.5 20.5t115 -20.5t85.5 -55.5t53 -80.5t18.5 -96.5t-18.5 -97t-53 -81t-85.5 -55.5t-115 -20.5zM288 147q42 0 64.5 27t22.5 68q0 40 -22.5 67t-64.5 27t-64 -27t-22 -67 q0 -41 22 -68t64 -27zM290 -208q-37 0 -63 26t-26 63t26 63t63 26q18 0 34 -7t28 -19t19 -28.5t7 -34.5t-7 -34.5t-19 -28.5t-28 -19t-34 -7z" />
<glyph unicode="&#x1ece;" horiz-adv-x="766" d="M383 -12q-77 0 -144 25t-116 70.5t-77 109t-28 140.5t28 140.5t77 109t116 70.5t144 25t144 -25t116 -70.5t77 -109t28 -140.5t-28 -140.5t-77 -109t-116 -70.5t-144 -25zM383 166q36 0 65.5 13t50.5 35.5t32.5 53t11.5 65.5t-11.5 65.5t-32.5 53t-50.5 35.5t-65.5 13 t-65.5 -13t-50.5 -35.5t-32.5 -53t-11.5 -65.5t11.5 -65.5t32.5 -53t50.5 -35.5t65.5 -13zM293 762q11 31 34.5 44.5t51.5 13.5q35 0 61.5 -17.5t26.5 -57.5q0 -14 -3.5 -25.5t-8.5 -22.5h-70q17 18 17 44q0 14 -7.5 19.5t-15.5 5.5q-11 0 -17.5 -7t-10.5 -16z" />
<glyph unicode="&#x1ecf;" horiz-adv-x="577" d="M288 -12q-64 0 -114.5 20.5t-85 55.5t-53 81t-18.5 97t18.5 96.5t53 80.5t85 55.5t114.5 20.5t115 -20.5t85.5 -55.5t53 -80.5t18.5 -96.5t-18.5 -97t-53 -81t-85.5 -55.5t-115 -20.5zM288 147q42 0 64.5 27t22.5 68q0 40 -22.5 67t-64.5 27t-64 -27t-22 -67 q0 -41 22 -68t64 -27zM202 593q11 31 34.5 44.5t51.5 13.5q35 0 61.5 -17.5t26.5 -57.5q0 -14 -3.5 -25.5t-8.5 -22.5h-70q17 18 17 44q0 14 -7.5 19.5t-15.5 5.5q-11 0 -17.5 -7t-10.5 -16z" />
<glyph unicode="&#x1ed0;" horiz-adv-x="766" d="M441 616l-64 54.75l-61 -54.75h-105l88 108h156l91 -108h-105zM631 655h-120l120 108h155zM383 -12q-77 0 -144 25t-116 70.5t-77 109t-28 140.5t28 140.5t77 109t116 70.5t144 25t144 -25t116 -70.5t77 -109t28 -140.5t-28 -140.5t-77 -109t-116 -70.5t-144 -25z M383 166q36 0 65.5 13t50.5 35.5t32.5 53t11.5 65.5t-11.5 65.5t-32.5 53t-50.5 35.5t-65.5 13t-65.5 -13t-50.5 -35.5t-32.5 -53t-11.5 -65.5t11.5 -65.5t32.5 -53t50.5 -35.5t65.5 -13z" />
<glyph unicode="&#x1ed1;" horiz-adv-x="577" d="M351 556l-64 73l-61 -73h-105l88 144h156l91 -144h-105zM534 626h-120l120 144h155zM288 -12q-64 0 -114.5 20.5t-85 55.5t-53 81t-18.5 97t18.5 96.5t53 80.5t85 55.5t114.5 20.5t115 -20.5t85.5 -55.5t53 -80.5t18.5 -96.5t-18.5 -97t-53 -81t-85.5 -55.5t-115 -20.5z M288 147q42 0 64.5 27t22.5 68q0 40 -22.5 67t-64.5 27t-64 -27t-22 -67q0 -41 22 -68t64 -27z" />
<glyph unicode="&#x1ed2;" horiz-adv-x="766" d="M440 616l-64 54.75l-61 -54.75h-105l88 108h156l91 -108h-105zM383 -12q-77 0 -144 25t-116 70.5t-77 109t-28 140.5t28 140.5t77 109t116 70.5t144 25t144 -25t116 -70.5t77 -109t28 -140.5t-28 -140.5t-77 -109t-116 -70.5t-144 -25zM383 166q36 0 65.5 13t50.5 35.5 t32.5 53t11.5 65.5t-11.5 65.5t-32.5 53t-50.5 35.5t-65.5 13t-65.5 -13t-50.5 -35.5t-32.5 -53t-11.5 -65.5t11.5 -65.5t32.5 -53t50.5 -35.5t65.5 -13zM128 655l-155 108h155l120 -108h-120z" />
<glyph unicode="&#x1ed3;" horiz-adv-x="577" d="M351 556l-64 73l-61 -73h-105l88 144h156l91 -144h-105zM288 -12q-64 0 -114.5 20.5t-85 55.5t-53 81t-18.5 97t18.5 96.5t53 80.5t85 55.5t114.5 20.5t115 -20.5t85.5 -55.5t53 -80.5t18.5 -96.5t-18.5 -97t-53 -81t-85.5 -55.5t-115 -20.5zM288 147q42 0 64.5 27 t22.5 68q0 40 -22.5 67t-64.5 27t-64 -27t-22 -67q0 -41 22 -68t64 -27zM38 626l-155 144h155l120 -144h-120z" />
<glyph unicode="&#x1ed4;" horiz-adv-x="766" d="M444 616l-64 54.75l-61 -54.75h-105l88 108h156l91 -108h-105zM383 -12q-77 0 -144 25t-116 70.5t-77 109t-28 140.5t28 140.5t77 109t116 70.5t144 25t144 -25t116 -70.5t77 -109t28 -140.5t-28 -140.5t-77 -109t-116 -70.5t-144 -25zM383 166q36 0 65.5 13t50.5 35.5 t32.5 53t11.5 65.5t-11.5 65.5t-32.5 53t-50.5 35.5t-65.5 13t-65.5 -13t-50.5 -35.5t-32.5 -53t-11.5 -65.5t11.5 -65.5t32.5 -53t50.5 -35.5t65.5 -13zM474 733q11 23.25 34.5 33.375t51.5 10.125q35 0 61.5 -13.125t26.5 -43.125q0 -10.5 -3.5 -19.125t-8.5 -16.875h-70 q17 13.5 17 33q0 10.5 -7.5 14.625t-15.5 4.125q-11 0 -17.5 -5.25t-10.5 -12z" />
<glyph unicode="&#x1ed5;" horiz-adv-x="577" d="M350 556l-64 73l-61 -73h-105l88 144h156l91 -144h-105zM288 -12q-64 0 -114.5 20.5t-85 55.5t-53 81t-18.5 97t18.5 96.5t53 80.5t85 55.5t114.5 20.5t115 -20.5t85.5 -55.5t53 -80.5t18.5 -96.5t-18.5 -97t-53 -81t-85.5 -55.5t-115 -20.5zM288 147q42 0 64.5 27 t22.5 68q0 40 -22.5 67t-64.5 27t-64 -27t-22 -67q0 -41 22 -68t64 -27zM319 732q11 31 34.5 44.5t51.5 13.5q35 0 61.5 -17.5t26.5 -57.5q0 -14 -3.5 -25.5t-8.5 -22.5h-70q17 18 17 44q0 14 -7.5 19.5t-15.5 5.5q-11 0 -17.5 -7t-10.5 -16z" />
<glyph unicode="&#x1ed6;" horiz-adv-x="766" d="M443 478l-64 36.5l-61 -36.5h-105l88 72h156l91 -72h-105zM383 -12q-77 0 -144 25t-116 70.5t-77 109t-28 140.5t28 140.5t77 109t116 70.5t144 25t144 -25t116 -70.5t77 -109t28 -140.5t-28 -140.5t-77 -109t-116 -70.5t-144 -25zM383 166q36 0 65.5 13t50.5 35.5 t32.5 53t11.5 65.5t-11.5 65.5t-32.5 53t-50.5 35.5t-65.5 13t-65.5 -13t-50.5 -35.5t-32.5 -53t-11.5 -65.5t11.5 -65.5t32.5 -53t50.5 -35.5t65.5 -13zM431 517q-23 0 -39.5 3.25t-28.5 7.5t-22 7.5t-20 3.25t-17 -4.5t-7 -14h-89q0 34.5 30 50.75t88 16.25 q23 0 39.5 -3.25t28.5 -7.5t22 -7.5t20 -3.25t17 4.5t7 14h89q0 -34.5 -30 -50.75t-88 -16.25z" />
<glyph unicode="&#x1ed7;" horiz-adv-x="577" d="M350 524l-64 73l-61 -73h-105l88 144h156l91 -144h-105zM288 -12q-64 0 -114.5 20.5t-85 55.5t-53 81t-18.5 97t18.5 96.5t53 80.5t85 55.5t114.5 20.5t115 -20.5t85.5 -55.5t53 -80.5t18.5 -96.5t-18.5 -97t-53 -81t-85.5 -55.5t-115 -20.5zM288 147q42 0 64.5 27 t22.5 68q0 40 -22.5 67t-64.5 27t-64 -27t-22 -67q0 -41 22 -68t64 -27zM341 682q-23 0 -39.5 6.5t-28.5 15t-22 15t-20 6.5t-17 -9t-7 -28h-89q0 69 30 101.5t88 32.5q23 0 39.5 -6.5t28.5 -15t22 -15t20 -6.5t17 9t7 28h89q0 -69 -30 -101.5t-88 -32.5z" />
<glyph unicode="&#x1ed8;" horiz-adv-x="766" d="M449 723l-64 73l-61 -73h-105l88 144h156l91 -144h-105zM383 -12q-77 0 -144 25t-116 70.5t-77 109t-28 140.5t28 140.5t77 109t116 70.5t144 25t144 -25t116 -70.5t77 -109t28 -140.5t-28 -140.5t-77 -109t-116 -70.5t-144 -25zM383 166q36 0 65.5 13t50.5 35.5t32.5 53 t11.5 65.5t-11.5 65.5t-32.5 53t-50.5 35.5t-65.5 13t-65.5 -13t-50.5 -35.5t-32.5 -53t-11.5 -65.5t11.5 -65.5t32.5 -53t50.5 -35.5t65.5 -13zM385 -208q-37 0 -63 26t-26 63t26 63t63 26q18 0 34 -7t28 -19t19 -28.5t7 -34.5t-7 -34.5t-19 -28.5t-28 -19t-34 -7z" />
<glyph unicode="&#x1ed9;" horiz-adv-x="577" d="M351 556l-64 73l-61 -73h-105l88 144h156l91 -144h-105zM288 -12q-64 0 -114.5 20.5t-85 55.5t-53 81t-18.5 97t18.5 96.5t53 80.5t85 55.5t114.5 20.5t115 -20.5t85.5 -55.5t53 -80.5t18.5 -96.5t-18.5 -97t-53 -81t-85.5 -55.5t-115 -20.5zM288 147q42 0 64.5 27 t22.5 68q0 40 -22.5 67t-64.5 27t-64 -27t-22 -67q0 -41 22 -68t64 -27zM290 -208q-37 0 -63 26t-26 63t26 63t63 26q18 0 34 -7t28 -19t19 -28.5t7 -34.5t-7 -34.5t-19 -28.5t-28 -19t-34 -7z" />
<glyph unicode="&#x1eda;" horiz-adv-x="766" d="M432 723h-120l120 144h155zM383 -12q-77 0 -144 25t-116 70.5t-77 109t-28 140.5t28 140.5t77 109t116 70.5t144 25q81 0 150.5 -27.5t119.5 -78.5q13 10 25 24.5t17 28.5q-5 -3 -17 -3q-24 0 -40.5 16.5t-16.5 44.5q0 29 20 49t48 20q30 0 53 -22t23 -63 q0 -42 -20 -77.5t-55 -61.5q28 -41 43 -89.5t15 -105.5q0 -77 -28 -140.5t-77 -109t-116 -70.5t-144 -25zM383 166q36 0 65.5 13t50.5 35.5t32.5 53t11.5 65.5t-11.5 65.5t-32.5 53t-50.5 35.5t-65.5 13t-65.5 -13t-50.5 -35.5t-32.5 -53t-11.5 -65.5t11.5 -65.5t32.5 -53 t50.5 -35.5t65.5 -13z" />
<glyph unicode="&#x1edb;" horiz-adv-x="577" d="M338 556h-120l120 144h155zM577 534q0 -40 -19 -74.5t-52 -61.5q54 -68 54 -156q0 -51 -18.5 -97t-53 -81t-85.5 -55.5t-115 -20.5t-114.5 20.5t-85 55.5t-53 81t-18.5 97t18.5 96.5t53 80.5t85 55.5t114.5 20.5q54 0 98.5 -14.5t78.5 -40.5q13 10 25 24t17 28 q-5 -3 -17 -3q-24 0 -40.5 16.5t-16.5 44.5q0 29 20 49t48 20q30 0 53 -22t23 -63zM288 147q42 0 64.5 27t22.5 68q0 40 -22.5 67t-64.5 27t-64 -27t-22 -67q0 -41 22 -68t64 -27z" />
<glyph unicode="&#x1edc;" horiz-adv-x="766" d="M383 -12q-77 0 -144 25t-116 70.5t-77 109t-28 140.5t28 140.5t77 109t116 70.5t144 25q81 0 150.5 -27.5t119.5 -78.5q13 10 25 24.5t17 28.5q-5 -3 -17 -3q-24 0 -40.5 16.5t-16.5 44.5q0 29 20 49t48 20q30 0 53 -22t23 -63q0 -42 -20 -77.5t-55 -61.5 q28 -41 43 -89.5t15 -105.5q0 -77 -28 -140.5t-77 -109t-116 -70.5t-144 -25zM383 166q36 0 65.5 13t50.5 35.5t32.5 53t11.5 65.5t-11.5 65.5t-32.5 53t-50.5 35.5t-65.5 13t-65.5 -13t-50.5 -35.5t-32.5 -53t-11.5 -65.5t11.5 -65.5t32.5 -53t50.5 -35.5t65.5 -13z M332 723l-155 144h155l120 -144h-120z" />
<glyph unicode="&#x1edd;" horiz-adv-x="577" d="M577 534q0 -40 -19 -74.5t-52 -61.5q54 -68 54 -156q0 -51 -18.5 -97t-53 -81t-85.5 -55.5t-115 -20.5t-114.5 20.5t-85 55.5t-53 81t-18.5 97t18.5 96.5t53 80.5t85 55.5t114.5 20.5q54 0 98.5 -14.5t78.5 -40.5q13 10 25 24t17 28q-5 -3 -17 -3q-24 0 -40.5 16.5 t-16.5 44.5q0 29 20 49t48 20q30 0 53 -22t23 -63zM288 147q42 0 64.5 27t22.5 68q0 40 -22.5 67t-64.5 27t-64 -27t-22 -67q0 -41 22 -68t64 -27zM237 556l-155 144h155l120 -144h-120z" />
<glyph unicode="&#x1ede;" horiz-adv-x="766" d="M383 -12q-77 0 -144 25t-116 70.5t-77 109t-28 140.5t28 140.5t77 109t116 70.5t144 25q81 0 150.5 -27.5t119.5 -78.5q13 10 25 24.5t17 28.5q-5 -3 -17 -3q-24 0 -40.5 16.5t-16.5 44.5q0 29 20 49t48 20q30 0 53 -22t23 -63q0 -42 -20 -77.5t-55 -61.5 q28 -41 43 -89.5t15 -105.5q0 -77 -28 -140.5t-77 -109t-116 -70.5t-144 -25zM383 166q36 0 65.5 13t50.5 35.5t32.5 53t11.5 65.5t-11.5 65.5t-32.5 53t-50.5 35.5t-65.5 13t-65.5 -13t-50.5 -35.5t-32.5 -53t-11.5 -65.5t11.5 -65.5t32.5 -53t50.5 -35.5t65.5 -13z M296 762q11 31 34.5 44.5t51.5 13.5q35 0 61.5 -17.5t26.5 -57.5q0 -14 -3.5 -25.5t-8.5 -22.5h-70q17 18 17 44q0 14 -7.5 19.5t-15.5 5.5q-11 0 -17.5 -7t-10.5 -16z" />
<glyph unicode="&#x1edf;" horiz-adv-x="577" d="M577 534q0 -40 -19 -74.5t-52 -61.5q54 -68 54 -156q0 -51 -18.5 -97t-53 -81t-85.5 -55.5t-115 -20.5t-114.5 20.5t-85 55.5t-53 81t-18.5 97t18.5 96.5t53 80.5t85 55.5t114.5 20.5q54 0 98.5 -14.5t78.5 -40.5q13 10 25 24t17 28q-5 -3 -17 -3q-24 0 -40.5 16.5 t-16.5 44.5q0 29 20 49t48 20q30 0 53 -22t23 -63zM288 147q42 0 64.5 27t22.5 68q0 40 -22.5 67t-64.5 27t-64 -27t-22 -67q0 -41 22 -68t64 -27zM201 593q11 31 34.5 44.5t51.5 13.5q35 0 61.5 -17.5t26.5 -57.5q0 -14 -3.5 -25.5t-8.5 -22.5h-70q17 18 17 44 q0 14 -7.5 19.5t-15.5 5.5q-11 0 -17.5 -7t-10.5 -16z" />
<glyph unicode="&#x1ee0;" horiz-adv-x="766" d="M383 -12q-77 0 -144 25t-116 70.5t-77 109t-28 140.5t28 140.5t77 109t116 70.5t144 25q81 0 150.5 -27.5t119.5 -78.5q13 10 25 24.5t17 28.5q-5 -3 -17 -3q-24 0 -40.5 16.5t-16.5 44.5q0 29 20 49t48 20q30 0 53 -22t23 -63q0 -42 -20 -77.5t-55 -61.5 q28 -41 43 -89.5t15 -105.5q0 -77 -28 -140.5t-77 -109t-116 -70.5t-144 -25zM383 166q36 0 65.5 13t50.5 35.5t32.5 53t11.5 65.5t-11.5 65.5t-32.5 53t-50.5 35.5t-65.5 13t-65.5 -13t-50.5 -35.5t-32.5 -53t-11.5 -65.5t11.5 -65.5t32.5 -53t50.5 -35.5t65.5 -13z M436 721q-23 0 -39.5 6.5t-28.5 15t-22 15t-20 6.5t-17 -9t-7 -28h-89q0 69 30 101.5t88 32.5q23 0 39.5 -6.5t28.5 -15t22 -15t20 -6.5t17 9t7 28h89q0 -69 -30 -101.5t-88 -32.5z" />
<glyph unicode="&#x1ee1;" horiz-adv-x="577" d="M577 534q0 -40 -19 -74.5t-52 -61.5q54 -68 54 -156q0 -51 -18.5 -97t-53 -81t-85.5 -55.5t-115 -20.5t-114.5 20.5t-85 55.5t-53 81t-18.5 97t18.5 96.5t53 80.5t85 55.5t114.5 20.5q54 0 98.5 -14.5t78.5 -40.5q13 10 25 24t17 28q-5 -3 -17 -3q-24 0 -40.5 16.5 t-16.5 44.5q0 29 20 49t48 20q30 0 53 -22t23 -63zM288 147q42 0 64.5 27t22.5 68q0 40 -22.5 67t-64.5 27t-64 -27t-22 -67q0 -41 22 -68t64 -27zM321 554q-23 0 -39.5 6.5t-28.5 15t-22 15t-20 6.5t-17 -9t-7 -28h-89q0 69 30 101.5t88 32.5q23 0 39.5 -6.5t28.5 -15 t22 -15t20 -6.5t17 9t7 28h89q0 -69 -30 -101.5t-88 -32.5z" />
<glyph unicode="&#x1ee2;" horiz-adv-x="766" d="M383 -12q-77 0 -144 25t-116 70.5t-77 109t-28 140.5t28 140.5t77 109t116 70.5t144 25q81 0 150.5 -27.5t119.5 -78.5q13 10 25 24.5t17 28.5q-5 -3 -17 -3q-24 0 -40.5 16.5t-16.5 44.5q0 29 20 49t48 20q30 0 53 -22t23 -63q0 -42 -20 -77.5t-55 -61.5 q28 -41 43 -89.5t15 -105.5q0 -77 -28 -140.5t-77 -109t-116 -70.5t-144 -25zM383 166q36 0 65.5 13t50.5 35.5t32.5 53t11.5 65.5t-11.5 65.5t-32.5 53t-50.5 35.5t-65.5 13t-65.5 -13t-50.5 -35.5t-32.5 -53t-11.5 -65.5t11.5 -65.5t32.5 -53t50.5 -35.5t65.5 -13z M385 -208q-37 0 -63 26t-26 63t26 63t63 26q18 0 34 -7t28 -19t19 -28.5t7 -34.5t-7 -34.5t-19 -28.5t-28 -19t-34 -7z" />
<glyph unicode="&#x1ee3;" horiz-adv-x="577" d="M577 534q0 -40 -19 -74.5t-52 -61.5q54 -68 54 -156q0 -51 -18.5 -97t-53 -81t-85.5 -55.5t-115 -20.5t-114.5 20.5t-85 55.5t-53 81t-18.5 97t18.5 96.5t53 80.5t85 55.5t114.5 20.5q54 0 98.5 -14.5t78.5 -40.5q13 10 25 24t17 28q-5 -3 -17 -3q-24 0 -40.5 16.5 t-16.5 44.5q0 29 20 49t48 20q30 0 53 -22t23 -63zM288 147q42 0 64.5 27t22.5 68q0 40 -22.5 67t-64.5 27t-64 -27t-22 -67q0 -41 22 -68t64 -27zM290 -208q-37 0 -63 26t-26 63t26 63t63 26q18 0 34 -7t28 -19t19 -28.5t7 -34.5t-7 -34.5t-19 -28.5t-28 -19t-34 -7z" />
<glyph unicode="&#x1ee4;" horiz-adv-x="767" d="M384 -12q-84 0 -146.5 21.5t-103 59.5t-60.5 90.5t-20 114.5v393h205v-386q0 -48 31 -81.5t94 -33.5q62 0 93 33.5t31 81.5v386h205v-392q0 -62 -20 -115t-60.5 -91t-102.5 -59.5t-146 -21.5zM387 -208q-37 0 -63 26t-26 63t26 63t63 26q18 0 34 -7t28 -19t19 -28.5 t7 -34.5t-7 -34.5t-19 -28.5t-28 -19t-34 -7z" />
<glyph unicode="&#x1ee5;" horiz-adv-x="606" d="M376 0v54q-11 -12 -26 -23.5t-35.5 -21t-46.5 -15.5t-58 -6q-42 0 -72.5 12t-50 32t-28.5 47.5t-9 58.5v345h180v-268q0 -37 18.5 -52.5t51.5 -15.5q30 0 47.5 12.5t28.5 25.5v298h180v-483h-180zM305 -208q-37 0 -63 26t-26 63t26 63t63 26q18 0 34 -7t28 -19t19 -28.5 t7 -34.5t-7 -34.5t-19 -28.5t-28 -19t-34 -7z" />
<glyph unicode="&#x1ee6;" horiz-adv-x="767" d="M384 -12q-84 0 -146.5 21.5t-103 59.5t-60.5 90.5t-20 114.5v393h205v-386q0 -48 31 -81.5t94 -33.5q62 0 93 33.5t31 81.5v386h205v-392q0 -62 -20 -115t-60.5 -91t-102.5 -59.5t-146 -21.5zM296 762q11 31 34.5 44.5t51.5 13.5q35 0 61.5 -17.5t26.5 -57.5 q0 -14 -3.5 -25.5t-8.5 -22.5h-70q17 18 17 44q0 14 -7.5 19.5t-15.5 5.5q-11 0 -17.5 -7t-10.5 -16z" />
<glyph unicode="&#x1ee7;" horiz-adv-x="606" d="M376 0v54q-11 -12 -26 -23.5t-35.5 -21t-46.5 -15.5t-58 -6q-42 0 -72.5 12t-50 32t-28.5 47.5t-9 58.5v345h180v-268q0 -37 18.5 -52.5t51.5 -15.5q30 0 47.5 12.5t28.5 25.5v298h180v-483h-180zM216 593q11 31 34.5 44.5t51.5 13.5q35 0 61.5 -17.5t26.5 -57.5 q0 -14 -3.5 -25.5t-8.5 -22.5h-70q17 18 17 44q0 14 -7.5 19.5t-15.5 5.5q-11 0 -17.5 -7t-10.5 -16z" />
<glyph unicode="&#x1ee8;" horiz-adv-x="767" d="M435 723h-120l120 144h155zM817 725q0 -42 -25 -85.5t-79 -72.5v-292q0 -62 -20 -115t-60.5 -91t-102.5 -59.5t-146 -21.5t-146.5 21.5t-103 59.5t-60.5 90.5t-20 114.5v393h205v-386q0 -48 31 -81.5t94 -33.5q62 0 93 33.5t31 81.5v386h205v-30q11 10 20 22t14 24 q-5 -3 -17 -3q-24 0 -40.5 16.5t-16.5 44.5q0 29 20 49t48 20q30 0 53 -22t23 -63z" />
<glyph unicode="&#x1ee9;" horiz-adv-x="606" d="M353 556h-120l120 144h155zM376 0v54q-11 -12 -26 -23.5t-35.5 -21t-46.5 -15.5t-58 -6q-42 0 -72.5 12t-50 32t-28.5 47.5t-9 58.5v345h180v-268q0 -37 18.5 -52.5t51.5 -15.5q30 0 47.5 12.5t28.5 25.5v298h163q12 13 18 29q-5 -3 -17 -3q-24 0 -40.5 16.5t-16.5 44.5 q0 29 20 49t48 20q30 0 53 -22t23 -63q0 -34 -17 -71t-54 -66v-417h-180z" />
<glyph unicode="&#x1eea;" horiz-adv-x="767" d="M332 723l-155 144h155l120 -144h-120zM817 725q0 -42 -25 -85.5t-79 -72.5v-292q0 -62 -20 -115t-60.5 -91t-102.5 -59.5t-146 -21.5t-146.5 21.5t-103 59.5t-60.5 90.5t-20 114.5v393h205v-386q0 -48 31 -81.5t94 -33.5q62 0 93 33.5t31 81.5v386h205v-30q11 10 20 22 t14 24q-5 -3 -17 -3q-24 0 -40.5 16.5t-16.5 44.5q0 29 20 49t48 20q30 0 53 -22t23 -63z" />
<glyph unicode="&#x1eeb;" horiz-adv-x="606" d="M252 556l-155 144h155l120 -144h-120zM376 0v54q-11 -12 -26 -23.5t-35.5 -21t-46.5 -15.5t-58 -6q-42 0 -72.5 12t-50 32t-28.5 47.5t-9 58.5v345h180v-268q0 -37 18.5 -52.5t51.5 -15.5q30 0 47.5 12.5t28.5 25.5v298h163q12 13 18 29q-5 -3 -17 -3q-24 0 -40.5 16.5 t-16.5 44.5q0 29 20 49t48 20q30 0 53 -22t23 -63q0 -34 -17 -71t-54 -66v-417h-180z" />
<glyph unicode="&#x1eec;" horiz-adv-x="767" d="M296 762q11 31 34.5 44.5t51.5 13.5q35 0 61.5 -17.5t26.5 -57.5q0 -14 -3.5 -25.5t-8.5 -22.5h-70q17 18 17 44q0 14 -7.5 19.5t-15.5 5.5q-11 0 -17.5 -7t-10.5 -16zM817 725q0 -42 -25 -85.5t-79 -72.5v-292q0 -62 -20 -115t-60.5 -91t-102.5 -59.5t-146 -21.5 t-146.5 21.5t-103 59.5t-60.5 90.5t-20 114.5v393h205v-386q0 -48 31 -81.5t94 -33.5q62 0 93 33.5t31 81.5v386h205v-30q11 10 20 22t14 24q-5 -3 -17 -3q-24 0 -40.5 16.5t-16.5 44.5q0 29 20 49t48 20q30 0 53 -22t23 -63z" />
<glyph unicode="&#x1eed;" horiz-adv-x="606" d="M216 593q11 31 34.5 44.5t51.5 13.5q35 0 61.5 -17.5t26.5 -57.5q0 -14 -3.5 -25.5t-8.5 -22.5h-70q17 18 17 44q0 14 -7.5 19.5t-15.5 5.5q-11 0 -17.5 -7t-10.5 -16zM376 0v54q-11 -12 -26 -23.5t-35.5 -21t-46.5 -15.5t-58 -6q-42 0 -72.5 12t-50 32t-28.5 47.5 t-9 58.5v345h180v-268q0 -37 18.5 -52.5t51.5 -15.5q30 0 47.5 12.5t28.5 25.5v298h163q12 13 18 29q-5 -3 -17 -3q-24 0 -40.5 16.5t-16.5 44.5q0 29 20 49t48 20q30 0 53 -22t23 -63q0 -34 -17 -71t-54 -66v-417h-180z" />
<glyph unicode="&#x1eee;" horiz-adv-x="767" d="M817 725q0 -42 -25 -85.5t-79 -72.5v-292q0 -62 -20 -115t-60.5 -91t-102.5 -59.5t-146 -21.5t-146.5 21.5t-103 59.5t-60.5 90.5t-20 114.5v393h205v-386q0 -48 31 -81.5t94 -33.5q62 0 93 33.5t31 81.5v386h205v-30q11 10 20 22t14 24q-5 -3 -17 -3q-24 0 -40.5 16.5 t-16.5 44.5q0 29 20 49t48 20q30 0 53 -22t23 -63zM436 721q-23 0 -39.5 6.5t-28.5 15t-22 15t-20 6.5t-17 -9t-7 -28h-89q0 69 30 101.5t88 32.5q23 0 39.5 -6.5t28.5 -15t22 -15t20 -6.5t17 9t7 28h89q0 -69 -30 -101.5t-88 -32.5z" />
<glyph unicode="&#x1eef;" horiz-adv-x="606" d="M376 0v54q-11 -12 -26 -23.5t-35.5 -21t-46.5 -15.5t-58 -6q-42 0 -72.5 12t-50 32t-28.5 47.5t-9 58.5v345h180v-268q0 -37 18.5 -52.5t51.5 -15.5q30 0 47.5 12.5t28.5 25.5v298h163q12 13 18 29q-5 -3 -17 -3q-24 0 -40.5 16.5t-16.5 44.5q0 29 20 49t48 20 q30 0 53 -22t23 -63q0 -34 -17 -71t-54 -66v-417h-180zM355 554q-23 0 -39.5 6.5t-28.5 15t-22 15t-20 6.5t-17 -9t-7 -28h-89q0 69 30 101.5t88 32.5q23 0 39.5 -6.5t28.5 -15t22 -15t20 -6.5t17 9t7 28h89q0 -69 -30 -101.5t-88 -32.5z" />
<glyph unicode="&#x1ef0;" horiz-adv-x="767" d="M387 -208q-37 0 -63 26t-26 63t26 63t63 26q18 0 34 -7t28 -19t19 -28.5t7 -34.5t-7 -34.5t-19 -28.5t-28 -19t-34 -7zM817 725q0 -42 -25 -85.5t-79 -72.5v-292q0 -62 -20 -115t-60.5 -91t-102.5 -59.5t-146 -21.5t-146.5 21.5t-103 59.5t-60.5 90.5t-20 114.5v393h205 v-386q0 -48 31 -81.5t94 -33.5q62 0 93 33.5t31 81.5v386h205v-30q11 10 20 22t14 24q-5 -3 -17 -3q-24 0 -40.5 16.5t-16.5 44.5q0 29 20 49t48 20q30 0 53 -22t23 -63z" />
<glyph unicode="&#x1ef1;" horiz-adv-x="606" d="M305 -208q-37 0 -63 26t-26 63t26 63t63 26q18 0 34 -7t28 -19t19 -28.5t7 -34.5t-7 -34.5t-19 -28.5t-28 -19t-34 -7zM376 0v54q-11 -12 -26 -23.5t-35.5 -21t-46.5 -15.5t-58 -6q-42 0 -72.5 12t-50 32t-28.5 47.5t-9 58.5v345h180v-268q0 -37 18.5 -52.5t51.5 -15.5 q30 0 47.5 12.5t28.5 25.5v298h163q12 13 18 29q-5 -3 -17 -3q-24 0 -40.5 16.5t-16.5 44.5q0 29 20 49t48 20q30 0 53 -22t23 -63q0 -34 -17 -71t-54 -66v-417h-180z" />
<glyph unicode="&#x1ef2;" horiz-adv-x="664" d="M232 0v265l-250 402h227l124 -225l122 225h227l-248 -402v-265h-202zM282 723l-155 144h155l120 -144h-120z" />
<glyph unicode="&#x1ef3;" horiz-adv-x="535" d="M70 -28q8 -5 18.5 -7t19.5 -2q54 0 63 19l4 10l-190 491h190l92 -276l93 276h190l-210 -543q-16 -42 -39 -68t-51.5 -41t-62.5 -20.5t-72 -6.5q-5 0 -14 0.5t-19.5 1.5t-20.5 2.5t-16 3.5zM214 556l-155 144h155l120 -144h-120z" />
<glyph unicode="&#x2009;" horiz-adv-x="51" />
<glyph unicode="&#x2013;" horiz-adv-x="593" d="M30 167v150h533v-150h-533z" />
<glyph unicode="&#x2014;" horiz-adv-x="833" d="M30 167v150h773v-150h-773z" />
<glyph unicode="&#x2015;" horiz-adv-x="593" d="M30 167v150h533v-150h-533z" />
<glyph unicode="&#x2018;" horiz-adv-x="281" d="M30 458q0 66 33 122t92 98l73 -59q-12 -5 -26 -15.5t-26.5 -23.5t-23 -28t-15.5 -29q10 4 26 4q36 0 61.5 -25.5t25.5 -67.5q0 -22 -8.5 -41t-22.5 -33.5t-33 -22.5t-40 -8q-23 0 -44 8.5t-37 25t-25.5 40.5t-9.5 55z" />
<glyph unicode="&#x2019;" horiz-adv-x="281" d="M254 548q0 -66 -33 -122t-92 -98l-73 59q12 5 26 15.5t26.5 23.5t23 28t15.5 29q-10 -4 -26 -4q-36 0 -61.5 25.5t-25.5 67.5q0 22 8.5 41t22.5 33t33 22.5t40 8.5q23 0 44 -8.5t37 -25t25.5 -40.5t9.5 -55z" />
<glyph unicode="&#x201a;" horiz-adv-x="281" d="M254 73q0 -66 -33 -122t-92 -98l-73 59q12 5 26 15.5t26.5 23.5t23 28t15.5 29q-10 -4 -26 -4q-36 0 -61.5 25.5t-25.5 67.5q0 22 8.5 41t22.5 33t33 22.5t40 8.5q23 0 44 -8.5t37 -25t25.5 -40.5t9.5 -55z" />
<glyph unicode="&#x201b;" horiz-adv-x="281" d="M27 548q0 31 9.5 55t25.5 40.5t37 25t44 8.5q21 0 40 -8.5t33 -22.5t22.5 -33t8.5 -41q0 -42 -25.5 -67.5t-61.5 -25.5q-16 0 -26 4q5 -14 15.5 -29t23 -28t26.5 -23.5t26 -15.5l-73 -59q-59 42 -92 98t-33 122z" />
<glyph unicode="&#x201c;" horiz-adv-x="528" d="M26 458q0 66 33 122t92 98l73 -59q-12 -5 -26 -15.5t-26.5 -23.5t-23 -28t-15.5 -29q10 4 26 4q36 0 61.5 -25.5t25.5 -67.5q0 -22 -8.5 -41t-22.5 -33.5t-33 -22.5t-40 -8q-23 0 -44 8.5t-37 25t-25.5 40.5t-9.5 55zM273 458q0 66 33 122t92 98l73 -59q-12 -5 -26 -15.5 t-26.5 -23.5t-23 -28t-15.5 -29q10 4 26 4q36 0 61.5 -25.5t25.5 -67.5q0 -22 -8.5 -41t-22.5 -33.5t-33 -22.5t-40 -8q-23 0 -44 8.5t-37 25t-25.5 40.5t-9.5 55z" />
<glyph unicode="&#x201d;" horiz-adv-x="528" d="M501 548q0 -66 -33 -122t-92 -98l-73 59q12 5 26 15.5t26.5 23.5t23 28t15.5 29q-10 -4 -26 -4q-36 0 -61.5 25.5t-25.5 67.5q0 22 8.5 41t22.5 33t33 22.5t40 8.5q23 0 44 -8.5t37 -25t25.5 -40.5t9.5 -55zM254 548q0 -66 -33 -122t-92 -98l-73 59q12 5 26 15.5 t26.5 23.5t23 28t15.5 29q-10 -4 -26 -4q-36 0 -61.5 25.5t-25.5 67.5q0 22 8.5 41t22.5 33t33 22.5t40 8.5q23 0 44 -8.5t37 -25t25.5 -40.5t9.5 -55z" />
<glyph unicode="&#x201e;" horiz-adv-x="528" d="M254 73q0 -66 -33 -122t-92 -98l-73 59q12 5 26 15.5t26.5 23.5t23 28t15.5 29q-10 -4 -26 -4q-36 0 -61.5 25.5t-25.5 67.5q0 22 8.5 41t22.5 33t33 22.5t40 8.5q23 0 44 -8.5t37 -25t25.5 -40.5t9.5 -55zM501 73q0 -66 -33 -122t-92 -98l-73 59q12 5 26 15.5t26.5 23.5 t23 28t15.5 29q-10 -4 -26 -4q-36 0 -61.5 25.5t-25.5 67.5q0 22 8.5 41t22.5 33t33 22.5t40 8.5q23 0 44 -8.5t37 -25t25.5 -40.5t9.5 -55z" />
<glyph unicode="&#x2020;" horiz-adv-x="291" d="M185 517l4 -190h-88l5 190l-89 -4v81l89 -3l-5 86h88l-4 -86l89 3v-81z" />
<glyph unicode="&#x2021;" horiz-adv-x="291" d="M274 513l-89 4v-175l89 4v-81l-89 3l4 -88h-88l4 88l-88 -3v81l88 -4v175l-88 -4v81l88 -3l-4 86h88l-4 -86l89 3v-81z" />
<glyph unicode="&#x2022;" horiz-adv-x="358" d="M310 242q0 -27 -10 -50.5t-28 -41t-41.5 -27.5t-50.5 -10t-50.5 10t-41.5 27.5t-28 41t-10 50.5t10 50.5t28 41.5t41.5 28t50.5 10t50.5 -10t41.5 -28t28 -41.5t10 -50.5z" />
<glyph unicode="&#x2026;" horiz-adv-x="846" d="M247 95q0 -21 -8.5 -40.5t-23 -34t-33.5 -23t-41 -8.5t-41 8.5t-33.5 23t-23 34t-8.5 40.5q0 22 8.5 41.5t23 34t33.5 23t41 8.5t41 -8.5t33.5 -23t23 -34t8.5 -41.5zM529 95q0 -21 -8.5 -40.5t-23 -34t-33.5 -23t-41 -8.5t-41 8.5t-33.5 23t-23 34t-8.5 40.5 q0 22 8.5 41.5t23 34t33.5 23t41 8.5t41 -8.5t33.5 -23t23 -34t8.5 -41.5zM811 95q0 -21 -8.5 -40.5t-23 -34t-33.5 -23t-41 -8.5t-41 8.5t-33.5 23t-23 34t-8.5 40.5q0 22 8.5 41.5t23 34t33.5 23t41 8.5t41 -8.5t33.5 -23t23 -34t8.5 -41.5z" />
<glyph unicode="&#x2030;" horiz-adv-x="1160" d="M378 508q0 -35 -12.5 -65.5t-36 -53t-57 -35.5t-74.5 -13t-74 13t-56 35.5t-35.5 53t-12.5 65.5t12.5 66t35.5 54t56 36t74 13t74.5 -13t57 -36t36 -54t12.5 -66zM228 0h-97l426 667h98zM764 155q0 -35 -12.5 -65.5t-36 -53t-56.5 -35.5t-74 -13t-74 13t-56 35.5 t-35.5 53t-12.5 65.5t12.5 66t35.5 54t56 36t74 13t74 -13t56.5 -36t36 -54t12.5 -66zM256 508q0 41 -17 58t-41 17q-23 0 -39.5 -17t-16.5 -58q0 -39 16.5 -56t39.5 -17q24 0 41 17t17 56zM643 155q0 41 -17 58t-41 17t-40.5 -17t-16.5 -58q0 -39 16.5 -56t40.5 -17t41 17 t17 56zM1140 155q0 -35 -12.5 -65.5t-36 -53t-56.5 -35.5t-74 -13t-74 13t-56 35.5t-35.5 53t-12.5 65.5t12.5 66t35.5 54t56 36t74 13t74 -13t56.5 -36t36 -54t12.5 -66zM1019 155q0 41 -17 58t-41 17t-40.5 -17t-16.5 -58q0 -39 16.5 -56t40.5 -17t41 17t17 56z" />
<glyph unicode="&#x2039;" horiz-adv-x="380" d="M190 63l-160 180l160 177h160l-160 -177l160 -180h-160z" />
<glyph unicode="&#x203a;" horiz-adv-x="380" d="M190 63h-160l160 180l-160 177h160l160 -177z" />
<glyph unicode="&#x203e;" horiz-adv-x="363" d="M0 551v97h363v-97h-363z" />
<glyph unicode="&#x2044;" horiz-adv-x="180" d="M-75 0h-97l426 667h98z" />
<glyph unicode="&#x2070;" horiz-adv-x="407" d="M387 621q0 -41 -11.5 -78.5t-34 -66t-57 -45.5t-80.5 -17q-47 0 -81.5 17t-57 45.5t-34 66t-11.5 78.5t11.5 78t34 65.5t57 45.5t81.5 17q46 0 80.5 -17t57 -45.5t34 -65.5t11.5 -78zM255 621q0 56 -12.5 79t-38.5 23t-39 -23t-13 -79t13 -79.5t39 -23.5t38.5 23.5 t12.5 79.5z" />
<glyph unicode="&#x2074;" horiz-adv-x="407" d="M347 492v-71h-131v71h-197v87l143 242h185v-227h47v-102h-47zM216 712l-68 -118h68v118z" />
</font>
</defs>
</svg>
